<svg class="s-svg-icon" aria-hidden="true" xmlns="http://www.w3.org/2000/svg">
<symbol id="admin-close-menu" viewBox="0 0 100 100"><g fill-rule="nonzero" fill="currentColor"><path d="M21.678 4l17.677 17.678-17.677 17.678L4 21.678zM77.678 5l17.677 17.678-17.677 17.678L60 22.678zM50.5 32.822L68.178 50.5 50.5 68.178 32.822 50.5zM22.678 60l17.677 17.678-17.677 17.678L5 77.678zM77.678 60l17.677 17.678-17.677 17.678L60 77.678z"/></g></symbol>
<symbol id="admin-menu" viewBox="0 0 100 100"><g fill-rule="nonzero" fill="currentColor"><path d="M0 0h25v25H0zM38 0h25v25H38zM75 0h25v25H75zM0 38h25v25H0zM38 38h25v25H38zM75 38h25v25H75zM0 75h25v25H0zM38 75h25v25H38zM75 75h25v25H75z"/></g></symbol>
<symbol id="bible" viewBox="0 0 14 17"><path d="M12.587 2.157v13.475H2.545c-.633 0-1.25-.34-1.25-1.342h10.043V.815H6.324v10.79L4.442 9.581 2.56 11.604V.814h-.633C.045.815.045.815.045 2.838V14.29c0 2.022 1.566 2.701 3.132 2.701h10.66V3.516l-1.25-1.359z" fill="currentColor" fill-rule="evenodd"/></symbol>
<symbol id="calendar" viewBox="0 0 33 30"><path fill="currentColor" fill-rule="evenodd" d="M9.954 23.425v4.254H8.82v-4.255H2.777v-1.16H8.82v-4.64H2.777v-1.162H8.82v-4.64h1.134v4.64h6.234v-4.64h1.133v4.64h6.235v-4.64h1.133v4.64h6.045v1.16h-6.045v4.642h6.045v1.16h-6.045v4.254h-1.133v-4.255H17.32v4.254h-1.13v-4.255H9.954zm0-1.16h6.234v-4.64H9.954v4.64zm7.367-4.64v4.64h6.235v-4.64H17.32zM25.067 2.54h5.926c1.11 0 2.008.898 2.008 1.997v23.466A2.007 2.007 0 0130.992 30H2.517A2.004 2.004 0 01.51 28.003V4.537c0-1.103.902-1.997 2.007-1.997h5.548V1.158A.94.94 0 019.009.22c.52 0 .944.414.944.938V2.54h13.223V1.158a.94.94 0 01.945-.938c.52 0 .944.414.944.938V2.54zm0 2.32v1.382c0 .52-.42.94-.944.94a.939.939 0 01-.945-.94v-1.38H9.954v1.38c0 .52-.42.94-.945.94a.939.939 0 01-.945-.94v-1.38h-3.29c-1.1 0-2 .896-2 2.004v18.808c0 1.11.896 2.005 2 2.005h23.96c1.1 0 1.998-.898 1.998-2.006V6.866a2 2 0 00-2-2.005h-3.667zM8.443 1.178v5.046c0 .32.253.57.566.57a.573.573 0 00.566-.57V1.177c0-.32-.254-.57-.567-.57a.574.574 0 00-.567.57zm15.112 0v5.046a.565.565 0 101.133 0V1.177c0-.32-.253-.57-.566-.57a.574.574 0 00-.567.57zm-20.78 9.485h27.958v1.16H2.776v-1.16z"/></symbol>
<symbol id="christianity-explored" viewBox="0 0 245 245"><path fill="currentColor" fill-rule="nonzero" d="M123.621 89.95L58.565 0h51.03l39.314 56.23L190.793 0H240l-67.887 91.233 66.651 92.858h-46.897l-44.75-60.876L55.166 246H7z"/></symbol>
<symbol id="clock" viewBox="0 0 33 32"><g fill="none" fill-rule="evenodd"><path d="M16.5 32C7.485 32 .177 24.837.177 16S7.485 0 16.5 0s16.323 7.163 16.323 16S25.515 32 16.5 32zm0-2.555c7.493 0 13.567-6.02 13.567-13.445 0-7.425-6.074-13.445-13.567-13.445S2.933 8.575 2.933 16c0 7.425 6.074 13.445 13.567 13.445z" fill="currentColor"/><path d="M18 15.416V6.009c0-.83-.672-1.493-1.5-1.493-.834 0-1.5.669-1.5 1.493v10.025c0 .365.13.699.347.957.052.072.11.14.176.204l4.098 3.956c.583.564 1.54.554 2.115-.042.58-.6.561-1.543-.032-2.116L18 15.416z" fill="#C16443"/></g></symbol>
<symbol id="comission-themed" viewBox="0 0 426 53"><g fill="currentColor" fill-rule="evenodd"><path d="M27.414 52.862C11.074 52.862 0 41.857 0 27.021c0-14.904 11.074-25.91 27.414-25.91 5.811 0 11.144 1.707 15.655 4.376l-3.555 9.844c-3.692-2.051-7.862-3.349-11.964-3.349-9.365 0-15.176 5.743-15.176 15.039s5.811 15.043 15.176 15.043c4.102 0 8.751-1.371 12.512-3.695l3.486 9.847c-4.376 2.87-10.392 4.646-16.134 4.646M71.035 11.502c-7.931 0-13.263 6.495-13.263 15.519 0 8.955 5.332 15.519 13.263 15.519 7.929 0 13.262-6.564 13.262-15.519 0-9.024-5.333-15.519-13.262-15.519zm-.206 41.36c-15.519 0-25.431-11.143-25.431-25.841 0-14.767 10.391-25.91 25.91-25.91 15.45 0 25.431 11.143 25.431 25.91 0 14.698-10.46 25.841-25.91 25.841zM101.668 38.78h17.571v-7.178h-17.571zM166.617 52.042l-.616-24.609L152.123 45h-1.229l-14.016-17.567-.479 24.609h-11.211l2.324-50.453 1.573-.136 22.696 28.644 22.151-28.644 1.572.136 2.393 50.453h-11.28M186.451 52.042h11.622V1.931h-11.622zM220.43 52.862c-5.674 0-12.51-2.255-16.886-5.127l3.215-10.527c4.031 2.939 9.295 4.856 14.014 4.856 4.101 0 5.675-1.917 5.675-4.378 0-2.597-1.301-4.374-8.958-7.452-8.817-3.555-11.894-8.681-11.894-14.699 0-7.314 5.948-14.424 17.636-14.424 5.47 0 11.077 1.913 14.016 3.897l-2.939 10.391c-2.87-1.982-7.52-4.1-11.077-4.1-4.238 0-5.945 1.981-5.945 4.032 0 3.281 2.529 4.376 8.817 7.041 9.366 3.965 12.17 8.478 12.17 14.903 0 8-5.813 15.587-17.844 15.587M257.488 52.862c-5.674 0-12.51-2.255-16.886-5.127l3.215-10.527c4.032 2.939 9.295 4.856 14.014 4.856 4.1 0 5.673-1.917 5.673-4.378 0-2.597-1.299-4.374-8.956-7.452-8.817-3.555-11.894-8.681-11.894-14.699 0-7.314 5.947-14.424 17.636-14.424 5.47 0 11.079 1.913 14.014 3.897l-2.935 10.391c-2.873-1.982-7.523-4.1-11.079-4.1-4.237 0-5.946 1.981-5.946 4.032 0 3.281 2.53 4.376 8.818 7.041 9.368 3.965 12.171 8.478 12.171 14.903 0 8-5.812 15.587-17.845 15.587M281.762 52.042h11.621V1.931h-11.621zM326.542 11.502c-7.928 0-13.262 6.495-13.262 15.519 0 8.955 5.334 15.519 13.262 15.519 7.931 0 13.264-6.564 13.264-15.519 0-9.024-5.333-15.519-13.264-15.519zm-.203 41.36c-15.52 0-25.432-11.143-25.432-25.841 0-14.767 10.391-25.91 25.91-25.91 15.45 0 25.432 11.143 25.432 25.91 0 14.698-10.459 25.841-25.91 25.841zM401.272 53l-30.216-27.141v26.183h-11.623V1.247l1.573-.272 29.807 26.936V1.931h11.623v50.862l-1.164.207M409.971 27.087a7.613 7.613 0 117.612 7.612 7.612 7.612 0 01-7.612-7.612M409.971 9.544a7.612 7.612 0 017.612-7.611 7.613 7.613 0 017.614 7.611 7.616 7.616 0 01-7.614 7.616 7.615 7.615 0 01-7.612-7.616M409.971 44.627a7.613 7.613 0 1115.227.001 7.613 7.613 0 01-15.227-.001"/></g></symbol>
<symbol id="conversation" viewBox="0 0 236 236"><path fill="currentColor" d="M214.848 90.856c11.682 0 21.152 9.47 21.152 21.152v91.667a7.05 7.05 0 01-11.6 5.387l-27.04-22.834H89.152c-11.682 0-21.152-9.47-21.152-21.151v-53.07c0-11.681 9.47-21.151 21.152-21.151zm-74-39.856c.923 0 1.833.06 2.725.174a21.182 21.182 0 012.162-.167l.546-.007h3.738c6.515 0 11.816 5.2 11.977 11.676l.004.305v24.874H86.152c-11.565 0-20.962 9.282-21.15 20.803l-.002.35V142H37l.108-.099-.308.001-25.199 21.294a7.05 7.05 0 01-11.597-5.148L0 157.811v-85.66C0 60.588 9.281 51.19 20.802 51.004l.35-.003z" fill-rule="evenodd"/></symbol>
<symbol id="download" viewBox="0 0 34 32"><path d="M17.468 21.758a1.568 1.568 0 01-.024 0 1.432 1.432 0 01-1.028-.426l-4.727-4.73a1.428 1.428 0 010-2.034 1.426 1.426 0 012.032 0l2.317 2.318V1.419c0-.804.614-1.419 1.418-1.419.803 0 1.418.615 1.418 1.419v15.467l2.316-2.318a1.426 1.426 0 012.033 0 1.428 1.428 0 010 2.034l-4.727 4.73a1.432 1.432 0 01-1.028.426zM28.469 2.994A16.446 16.446 0 0134 15.339c0 9.129-7.421 16.555-16.544 16.555C8.333 31.894.91 24.468.91 15.339c0-4.92 2.128-9.318 5.531-12.345.236-.237.614-.426.993-.426.803 0 1.418.615 1.418 1.419 0 .426-.19.851-.52 1.088a13.827 13.827 0 00-4.585 10.264c0 7.568 6.145 13.717 13.708 13.717 7.563 0 13.708-6.15 13.708-13.717 0-4.068-1.75-7.757-4.585-10.264-.331-.237-.52-.662-.52-1.088 0-.804.614-1.419 1.418-1.419.378 0 .756.142.992.426z" fill="currentColor" fill-rule="evenodd"/></symbol>
<symbol id="email" viewBox="0 0 100 100"><path d="M2 39.31l22.06 17.138-.047 24.121 17.59-11.655-6.216-5.912 24.416 17.567L99 19 2 39.31zm88.298-14.498L36.706 59.04l-8.74 14.85.136-18.865 62.196-30.213z" fill="currentColor" fill-rule="nonzero"/></symbol>
<symbol id="facebook" viewBox="0 0 100 100"><path d="M57.685 97V54.122h14.392l2.155-16.71H57.685V26.743c0-4.838 1.344-8.135 8.281-8.135l8.849-.004V3.66C73.285 3.455 68.032 3 61.921 3c-12.758 0-21.492 7.787-21.492 22.088v12.324H26v16.71h14.429V97h17.256z" fill-rule="nonzero" fill="currentColor"/></symbol>
<symbol id="fiec-themed" viewBox="0 0 409 71"><g fill="currentColor"><path d="M408.83 31.404L398.557 17.26l-8.076 5.862 6.02 8.282-6.02 8.28 8.077 5.863m-1.765-30.707L386.523.696l-16.627 5.4 3.08 9.492 9.736-3.16 6.01 8.274m8.071 27.265l-8.07-5.862-6.01 8.276-9.736-3.16-3.08 9.49 16.625 5.4m-16.395-45.599l-3.08-9.486-16.626 5.4v17.48h9.98V19.674m9.726 26.622l-9.728-3.162V32.9h-9.98v17.48l16.625 5.4"/><path d="M408.83 31.404L398.557 17.26l-8.076 5.862 6.02 8.282M386.522.696l-16.626 5.4 3.08 9.493 9.736-3.164m14.081 35.542l-8.07-5.862-6.01 8.276 3.81 11.73M350.42 12.427v17.48h9.98V19.673m9.727 26.623l-9.728-3.162-9.98 7.247 16.625 5.4M259.638 2.386c-4.157 0-7.49 1.17-10.01 3.514-2.52 2.345-4.21 5.98-5.095 10.934l-.15.537h-5.51a18.031 18.031 0 00-.984 3.636c-.18 1.15-.27 2.32-.27 3.515h5.512l-4.856 27.054c1.592.265 3.067.417 4.44.417 1.502 0 3.115-.15 4.796-.416l4.826-27.053h7.24c.485-1.326.805-2.52.982-3.604.177-1.084.268-2.263.268-3.545h-7.21l.12-.595c.265-1.373.577-2.513.953-3.398.377-.884.833-1.57 1.34-2.055a4.308 4.308 0 011.73-1.013c.642-.2 1.35-.3 2.146-.3.664 0 1.302.04 1.877.15.575.11 1.123.27 1.698.447.62-1.15 1.153-2.306 1.55-3.456.398-1.15.73-2.442 1.043-3.902-1.018-.31-2.014-.553-3.01-.686-.994-.132-2.142-.178-3.426-.178v.002zm9.92 9.21a21.837 21.837 0 01.3-4.41c.242-1.394.63-2.865 1.16-4.413a17.672 17.672 0 012.522-.364c.885-.067 1.68-.1 2.388-.1.707 0 1.492.033 2.355.1.862.065 1.67.186 2.42.363 0 1.548-.13 3.03-.396 4.446a29.725 29.725 0 01-1.194 4.377c-.796.133-1.626.222-2.488.266-.863.045-1.648.067-2.355.067a46.4 46.4 0 01-2.324-.067 17.958 17.958 0 01-2.388-.265v-.002zm-1.923 12.94h-4.18c0-.133-.012-.266-.034-.4a3.136 3.136 0 01-.03-.463c0-1.15.11-2.223.33-3.22.22-.994.553-2.022.996-3.084h13.402l-6.038 34.3a30.64 30.64 0 01-4.777.4c-1.372 0-2.854-.134-4.447-.4l4.78-27.135zm24.463 7.363c1.68-.266 3.052-.608 4.114-1.03 1.06-.42 1.902-.884 2.52-1.393.62-.508 1.04-1.027 1.26-1.558.222-.53.333-1.06.333-1.59 0-.843-.276-1.53-.83-2.06-.552-.53-1.293-.795-2.22-.795-1.15 0-2.202.254-3.153.762a8.431 8.431 0 00-2.488 2.023 13.066 13.066 0 00-1.825 2.886 17.011 17.011 0 00-1.163 3.283l3.45-.53zm-3.782 6.765c.265 2.123.972 3.704 2.122 4.743 1.15 1.04 2.83 1.56 5.044 1.56 1.77 0 3.328-.188 4.677-.564a39.01 39.01 0 004.28-1.493c.705.885 1.18 1.958 1.424 3.22.243 1.26.364 2.597.364 4.012-.753.353-1.626.674-2.62.96-.996.29-2.024.532-3.085.73a39.26 39.26 0 01-3.186.466 28.01 28.01 0 01-2.854.166c-2.7 0-5.01-.332-6.933-.995-1.923-.664-3.516-1.604-4.776-2.82-1.26-1.217-2.19-2.698-2.787-4.446-.598-1.747-.896-3.683-.896-5.806 0-2.697.465-5.35 1.394-7.96.928-2.61 2.244-4.943 3.948-7 1.703-2.056 3.783-3.715 6.237-4.975 2.454-1.262 5.207-1.892 8.26-1.892 1.46 0 2.82.177 4.08.53 1.26.355 2.354.896 3.283 1.626.93.73 1.66 1.625 2.19 2.687.53 1.06.797 2.3.797 3.716 0 1.99-.465 3.713-1.395 5.173-.93 1.46-2.167 2.7-3.715 3.716s-3.306 1.845-5.275 2.487a36.979 36.979 0 01-6.137 1.427l-4.444.73h.002zm44.627 4.846c.486.796.884 1.746 1.194 2.853.31 1.106.465 2.565.465 4.378a18.966 18.966 0 01-4.512 1.328c-1.593.265-3.34.398-5.24.398-5.043 0-8.736-1.227-11.08-3.682-2.345-2.455-3.518-5.827-3.518-10.12 0-2.608.432-5.228 1.294-7.86.863-2.63 2.134-4.997 3.815-7.098 1.68-2.1 3.75-3.815 6.206-5.142 2.455-1.327 5.297-1.99 8.526-1.99 1.504 0 2.964.11 4.38.33 1.414.222 2.763.575 4.045 1.063-.043 1.15-.242 2.378-.596 3.683a13.757 13.757 0 01-1.66 3.748 19.138 19.138 0 00-2.885-.928c-.95-.22-2.002-.332-3.152-.332-1.725 0-3.23.387-4.51 1.16a10.334 10.334 0 00-3.218 3.054c-.863 1.26-1.504 2.71-1.925 4.346-.42 1.636-.63 3.34-.63 5.107 0 2.434.618 4.225 1.856 5.376 1.24 1.15 2.81 1.726 4.71 1.726.974 0 1.936-.09 2.887-.266.95-.176 2.134-.552 3.55-1.127v-.002zM49.358 64.444h-.894c0-.148.012-.29.033-.425.023-.136.063-.285.122-.447h.88c.037-.19.07-.385.1-.583.03-.198.043-.404.043-.617v-.177c.148-.073.324-.128.53-.165.206-.036.382-.054.53-.054a4.4 4.4 0 01.016.198c.002.067.005.136.005.21 0 .228-.03.51-.09.85l-.065.34h1.424c0 .163-.01.312-.033.448-.02.136-.057.277-.11.425h-1.41l-.43 2.392c-.037.17-.07.343-.1.524-.03.18-.044.344-.044.49 0 .22.057.374.17.46.115.084.267.126.46.126.124 0 .238-.01.34-.03.104-.017.207-.04.31-.07a1.85 1.85 0 01.076.529v.16c0 .055-.004.11-.012.17-.095.03-.22.058-.374.084a3.696 3.696 0 01-1.144-.013 1.28 1.28 0 01-.502-.186.903.903 0 01-.324-.374c-.077-.16-.116-.367-.116-.624 0-.14.014-.288.04-.447.025-.16.053-.322.082-.49l.486-2.703zm3.89-1.027c.072-.41.13-.766.175-1.064.044-.298.066-.564.066-.8 0-.088-.004-.157-.007-.21l-.017-.197c.08-.016.18-.027.298-.034.118-.007.217-.01.297-.01a2.57 2.57 0 01.498.044 2.684 2.684 0 01.016.7c-.012.113-.024.233-.04.357a7.282 7.282 0 01-.054.386 17.41 17.41 0 01-.066.375c-.052.25-.1.5-.144.746l-.132.744c.206-.272.47-.507.794-.705.324-.2.69-.298 1.103-.298.45 0 .8.118 1.053.353.254.235.38.6.38 1.092 0 .11-.007.23-.02.362a7.778 7.778 0 01-.057.398l-.627 3.573a1.96 1.96 0 01-.28.028 7.755 7.755 0 01-.283.006c-.08 0-.17-.003-.27-.006s-.185-.012-.26-.027c.104-.574.203-1.14.3-1.698.094-.56.194-1.126.296-1.7l.045-.33a2.19 2.19 0 00.023-.288c0-.28-.076-.485-.226-.617a.862.862 0 00-.58-.198c-.17 0-.342.037-.52.11-.175.074-.343.2-.5.38-.16.18-.304.424-.436.73-.132.304-.24.688-.32 1.152-.08.42-.155.83-.225 1.234l-.215 1.223c-.103.015-.21.024-.32.028-.11.004-.217.006-.32.006l-.198-.004a1.522 1.522 0 01-.254-.027l1.027-5.813h.002zm7.072 2.637c.376-.067.687-.142.933-.226.246-.084.443-.176.59-.275.147-.1.25-.204.31-.314a.763.763 0 00.087-.363c0-.17-.06-.308-.177-.414-.117-.106-.286-.16-.507-.16-.235 0-.452.054-.65.16-.2.107-.377.247-.536.42-.158.173-.292.37-.402.596-.11.224-.195.453-.254.69l.607-.11v-.003zm-.694.926c.022.492.147.863.375 1.113.23.25.583.375 1.06.375.295 0 .574-.035.84-.105.264-.07.503-.145.716-.226.066.11.114.244.143.398.03.155.043.31.043.463-.11.053-.244.1-.402.145a6.03 6.03 0 01-1.019.192c-.176.02-.337.028-.485.028-.433 0-.8-.057-1.097-.17a1.916 1.916 0 01-.728-.475 1.795 1.795 0 01-.41-.717 3.053 3.053 0 01-.126-.897c0-.45.076-.892.226-1.33.15-.437.368-.83.65-1.174a3.419 3.419 0 011.016-.84 2.73 2.73 0 011.317-.32c.486 0 .87.12 1.153.36.283.24.425.557.425.954 0 .324-.077.605-.235.844a2.018 2.018 0 01-.657.61c-.28.17-.608.31-.987.42-.377.11-.79.2-1.24.265l-.573.088zm8.007-5.68h4.346c0 .03 0 .06.003.087a.68.68 0 01.006.09c0 .19-.023.386-.067.584-.044.2-.107.4-.188.608H69l-.32 1.865h2.174c0 .235-.02.463-.06.683-.04.22-.102.453-.182.695H68.44l-.586 3.32a4.826 4.826 0 01-1.61 0l1.39-7.93zm5.6 0h4.347a.8.8 0 00.005.087.68.68 0 01.006.09c0 .19-.02.386-.064.584-.044.2-.107.4-.188.608h-2.735l-.298 1.72h2.173c0 .442-.08.902-.243 1.38h-2.172l-.375 2.095H76.5c0 .03 0 .057.005.083a.712.712 0 01.005.083c0 .2-.024.395-.07.59-.05.195-.106.4-.172.612h-4.423l1.39-7.93V61.3zm5.84 0c.28-.05.55-.078.815-.078.257 0 .515.026.772.077l-1.147 6.54h2.603a3 3 0 01-.022.36l-.044.323a4.858 4.858 0 01-.078.347c-.03.114-.062.234-.1.36h-4.19l1.39-7.93zm5.384 0c.28-.05.552-.078.816-.078.258 0 .515.026.772.077l-1.147 6.54H87.5c0 .124-.007.244-.02.36l-.045.323a5.47 5.47 0 01-.077.347c-.03.114-.063.234-.1.36h-4.19l1.39-7.93zm7.106 6.716c.287 0 .542-.064.767-.193.224-.13.42-.298.584-.507.166-.21.307-.453.425-.728.115-.276.21-.56.28-.85a7.45 7.45 0 00.204-1.649c0-1.03-.398-1.544-1.192-1.544-.287 0-.542.064-.767.192-.224.13-.42.298-.59.508-.17.21-.312.452-.43.728-.117.276-.21.56-.28.85a7.183 7.183 0 00-.206 1.658c0 1.022.4 1.533 1.202 1.533zm-.145 1.345c-.934 0-1.623-.26-2.068-.782-.445-.522-.667-1.246-.667-2.173 0-.397.034-.804.104-1.22.07-.415.177-.817.325-1.207.147-.39.33-.755.55-1.097.222-.34.484-.64.79-.893.305-.253.65-.454 1.036-.6.387-.148.816-.22 1.286-.22.463 0 .868.07 1.213.208.345.14.63.34.854.596.225.258.393.573.503.944.11.37.165.79.165 1.262 0 .397-.034.803-.103 1.22-.07.414-.178.813-.326 1.195-.147.383-.33.743-.557 1.08-.224.34-.487.634-.788.884-.302.25-.645.447-1.032.59a3.65 3.65 0 01-1.285.215zm5.41-8.06c.264-.045.55-.067.86-.067.147 0 .286.002.42.006.13.002.264.022.396.06l.022 5.767 2.283-5.767c.152-.03.29-.048.412-.055a5.793 5.793 0 01.722 0c.117.008.24.026.364.055l.264 5.912 2.084-5.912c.132-.03.267-.048.403-.055a6.595 6.595 0 01.788.006c.14.01.268.028.385.05l-3.198 7.93a5.817 5.817 0 01-.85.066c-.27 0-.565-.023-.882-.067l-.286-5.108-2.14 5.107-.387.032c-.19.022-.375.033-.552.033-.212 0-.45-.023-.716-.067l-.397-7.93h.002zm9.105 6.308c.28.103.565.19.855.264.29.074.572.11.844.11.228 0 .44-.025.634-.077.195-.052.364-.13.507-.232.144-.103.256-.228.337-.375.08-.147.12-.32.12-.518a.736.736 0 00-.098-.386 1.2 1.2 0 00-.254-.3 2.16 2.16 0 00-.364-.247c-.14-.078-.28-.16-.42-.25-.47-.278-.843-.567-1.118-.864-.276-.3-.414-.65-.414-1.054 0-.4.07-.754.21-1.066.14-.31.338-.574.595-.787.257-.214.568-.378.932-.49a4.057 4.057 0 011.23-.172c.402 0 .752.03 1.046.09.294.058.603.15.926.275-.03.198-.08.408-.154.63-.075.22-.178.436-.31.65a4.27 4.27 0 00-.657-.255c-.223-.066-.515-.1-.875-.1-.133 0-.274.012-.425.034-.15.02-.287.063-.408.126a.882.882 0 00-.303.26.715.715 0 00-.12.43c0 .25.09.456.27.618.18.162.41.323.69.485.25.14.48.28.693.42.213.14.4.29.562.45.162.163.29.345.38.546.093.203.14.436.14.7 0 .376-.07.736-.205 1.082a2.383 2.383 0 01-.628.904 3.148 3.148 0 01-1.075.618c-.434.154-.95.23-1.544.23-.69 0-1.372-.127-2.04-.385.028-.22.082-.444.16-.668.076-.224.17-.458.28-.7zm7.26-6.298a4.446 4.446 0 011.206-.06c.136.01.274.03.413.06l-.54 3.1h2.393l.54-3.1c.148-.03.29-.05.425-.06a4.513 4.513 0 01.79 0c.14.01.277.03.41.06l-1.39 7.92a5.593 5.593 0 01-.828.065c-.264 0-.53-.023-.794-.067l.596-3.43h-2.394l-.595 3.43a5.769 5.769 0 01-.827.066c-.265 0-.53-.023-.794-.067l1.39-7.92v.003zm7.347 0a4.397 4.397 0 011.205-.06c.138.01.275.03.415.06l-1.39 7.92c-.3.043-.577.065-.827.065-.265 0-.53-.023-.794-.067l1.39-7.92v.002zm4.242 4.026c.096.022.26.033.496.033.177 0 .357-.03.54-.09.185-.058.354-.157.508-.297.155-.14.28-.324.38-.552.1-.227.15-.513.15-.86 0-.212-.035-.39-.105-.53a.828.828 0 00-.274-.324c-.114-.077-.24-.13-.38-.16s-.276-.044-.41-.044h-.164c-.05 0-.132.008-.242.022l-.496 2.802h-.002zm-.893-4.06c.16-.014.31-.028.45-.043a7.957 7.957 0 01.822-.06c.136-.004.284-.006.446-.006.315 0 .646.03.992.09.345.058.662.17.948.335.287.165.524.4.712.7.187.302.28.692.28 1.17 0 .463-.078.893-.236 1.29-.158.397-.388.74-.69 1.03-.3.292-.67.518-1.102.68-.434.16-.927.242-1.478.242a3.938 3.938 0 01-.497-.023l-.442 2.548a4.416 4.416 0 01-.42.044c-.13.008-.26.01-.385.01a5.342 5.342 0 01-.805-.054l1.4-7.952.004-.002zm9.584 7.214c.345 0 .64-.094.887-.28.25-.19.45-.426.603-.713a3.47 3.47 0 00.342-.93c.074-.335.11-.65.11-.943 0-.42-.093-.74-.28-.96-.188-.22-.454-.33-.8-.33-.346 0-.64.095-.882.286-.243.19-.44.43-.596.717a3.45 3.45 0 00-.336.932 4.54 4.54 0 00-.104.93c0 .42.09.74.27.96.18.22.443.33.79.33h-.002zm-.11.87c-.683 0-1.198-.187-1.544-.566-.346-.378-.52-.913-.52-1.604 0-.405.063-.83.188-1.274.125-.446.318-.85.58-1.214.26-.364.588-.666.98-.905.394-.238.86-.357 1.396-.357.69 0 1.21.19 1.555.573.344.383.517.92.517 1.61 0 .412-.063.84-.188 1.28-.126.44-.317.844-.574 1.208a3.165 3.165 0 01-.982.9c-.397.235-.867.352-1.412.352h.002zm5.046-4.917h-.915c0-.148.01-.29.028-.425.018-.136.057-.285.116-.447h.913l.055-.32c.124-.74.37-1.297.733-1.664.365-.368.878-.552 1.54-.552.192 0 .357.013.497.04.14.025.268.056.386.093-.045.192-.09.352-.138.48a3.67 3.67 0 01-.182.403 2.355 2.355 0 00-.254-.077 1.292 1.292 0 00-.31-.033c-.154 0-.294.02-.42.06a.824.824 0 00-.335.21c-.1.1-.186.235-.26.408a2.993 2.993 0 00-.176.657 1 1 0 00-.034.15 1.286 1.286 0 01-.033.148h1.357c0 .155-.008.298-.027.43-.018.133-.057.28-.116.442h-1.356l-.85 4.82a6.873 6.873 0 01-.323 1.246c-.13.338-.29.613-.48.82-.19.21-.413.36-.667.454-.255.092-.55.138-.89.138a2.76 2.76 0 01-.462-.038 1.9 1.9 0 01-.386-.105c.03-.17.066-.32.11-.458.044-.136.103-.27.177-.402.07.03.154.054.246.072a1.499 1.499 0 00.74-.038.756.756 0 00.357-.265c.103-.134.197-.32.282-.56.084-.24.16-.55.226-.93l.85-4.754v-.003zm6.32-3.133a4.397 4.397 0 011.206-.06c.137.01.275.03.415.06l-1.387 7.92a5.919 5.919 0 01-.828.065c-.265 0-.53-.023-.794-.067l1.39-7.92v.002zm3.338-.01c.125-.03.245-.05.36-.056.113-.008.22-.01.324-.01.22 0 .44.02.662.065l1.952 5.04.872-5.04a4.65 4.65 0 011.125-.057c.11.01.22.027.33.056l-1.4 7.93a4.162 4.162 0 01-.673.065c-.206 0-.423-.023-.65-.067l-1.964-5.03-.87 5.03c-.126.022-.253.04-.382.05-.13.01-.255.016-.38.016-.236 0-.467-.023-.695-.067l1.387-7.93v.002zm7.798 6.65c.133.022.317.033.552.033.42 0 .8-.085 1.14-.254.343-.17.64-.405.89-.707.25-.3.442-.662.578-1.08.136-.42.204-.883.204-1.39 0-.34-.046-.634-.138-.888a1.699 1.699 0 00-.375-.624 1.526 1.526 0 00-.568-.363 2.06 2.06 0 00-.707-.122 9.52 9.52 0 00-.353.006c-.08.004-.172.014-.275.03l-.95 5.36zm-.452-6.64c.294-.037.596-.07.905-.1.307-.028.634-.043.98-.043.565 0 1.074.074 1.527.22.452.148.836.36 1.152.635.315.276.56.614.727 1.015.17.4.254.855.254 1.362 0 .794-.124 1.5-.374 2.117-.25.618-.6 1.136-1.048 1.555-.45.42-.984.74-1.606.96-.62.22-1.3.33-2.035.33-.42 0-.765-.013-1.037-.038a26.016 26.016 0 01-.84-.094l1.39-7.92h.004zm7.56-.01h4.347c0 .03.004.06.007.087.003.03.006.06.006.09 0 .19-.022.386-.066.584-.044.2-.107.4-.188.608h-2.736l-.298 1.72h2.173c0 .442-.08.902-.244 1.38h-2.173l-.375 2.095h2.813c0 .03.003.057.006.083a.54.54 0 01.006.083c0 .2-.023.395-.07.59-.048.195-.105.4-.172.612h-4.422l1.39-7.93-.003-.003zm6.743 4.036c.096.022.26.033.497.033.176 0 .356-.03.54-.09.184-.058.353-.157.507-.297.157-.14.283-.324.383-.552.1-.227.15-.513.15-.86 0-.212-.036-.39-.106-.53s-.162-.246-.276-.324c-.113-.077-.24-.13-.38-.16s-.275-.044-.41-.044h-.163c-.052 0-.132.008-.242.022l-.497 2.802zm-.893-4.06c.16-.014.312-.028.452-.043a7.957 7.957 0 01.822-.06c.136-.004.284-.006.446-.006.316 0 .647.03.993.09.345.058.662.17.948.335.287.165.524.4.712.7.187.302.28.692.28 1.17 0 .463-.078.893-.236 1.29-.156.397-.386.74-.69 1.03a3.12 3.12 0 01-1.1.68c-.434.16-.927.242-1.48.242-.116 0-.212-.002-.285-.005a4.127 4.127 0 01-.21-.018l-.44 2.548a4.484 4.484 0 01-.42.044 6.338 6.338 0 01-.756 0 5.365 5.365 0 01-.436-.044l1.4-7.952v-.002zm6.386.023h4.346a.8.8 0 00.005.087c.006.03.008.06.008.09 0 .19-.022.386-.066.584-.043.2-.106.4-.187.608h-2.735l-.298 1.72h2.173c0 .442-.08.902-.243 1.38h-2.172l-.375 2.095h2.812c0 .03.002.057.006.083a.54.54 0 01.006.083c0 .2-.024.395-.07.59-.05.195-.107.4-.173.612h-4.423l1.39-7.93-.004-.003zm5.838 0c.125-.03.245-.05.36-.056.112-.008.22-.01.324-.01.22 0 .44.02.662.065l1.952 5.04.87-5.04a4.69 4.69 0 011.126-.057c.11.01.22.027.33.056l-1.4 7.93a4.14 4.14 0 01-.672.065c-.206 0-.423-.023-.65-.067l-1.964-5.03-.872 5.03c-.125.022-.25.04-.38.05-.13.01-.256.016-.38.016-.236 0-.468-.023-.695-.067l1.387-7.93v.002zm7.798 6.65c.132.022.316.033.55.033.42 0 .8-.085 1.143-.254.34-.17.636-.405.886-.707.25-.3.443-.662.58-1.08.135-.42.203-.883.203-1.39 0-.34-.047-.634-.14-.888a1.67 1.67 0 00-.374-.624 1.526 1.526 0 00-.568-.363 2.068 2.068 0 00-.707-.122c-.153 0-.27.003-.352.006a2.74 2.74 0 00-.276.03l-.948 5.36h.002zm-.452-6.64c.294-.037.595-.07.904-.1.31-.028.636-.043.982-.043.566 0 1.075.074 1.527.22.452.148.836.36 1.153.635.316.276.56.614.728 1.015.17.4.254.855.254 1.362 0 .794-.125 1.5-.375 2.117-.25.618-.6 1.136-1.048 1.555-.45.42-.986.74-1.607.96-.62.22-1.3.33-2.035.33-.42 0-.766-.013-1.038-.038-.272-.026-.55-.057-.838-.094l1.39-7.92h.002zm7.56-.01h4.346c0 .03.002.06.006.087.003.03.005.06.005.09 0 .19-.02.386-.064.584-.044.2-.106.4-.187.608h-2.736l-.298 1.72h2.172c0 .442-.08.902-.242 1.38h-2.173l-.375 2.095h2.812c0 .03.002.057.005.083a.703.703 0 01.006.083c0 .2-.022.395-.07.59-.05.195-.105.4-.17.612h-4.424l1.39-7.93V61.3zm5.838 0c.125-.03.245-.05.36-.056.113-.008.22-.01.324-.01.22 0 .44.02.662.065l1.952 5.04.87-5.04a4.69 4.69 0 011.126-.057c.11.01.22.027.33.056l-1.4 7.93a4.14 4.14 0 01-.672.065c-.206 0-.423-.023-.65-.067l-1.964-5.03-.87 5.03c-.126.022-.253.04-.382.05-.13.01-.255.016-.38.016-.236 0-.467-.023-.695-.067l1.39-7.93v.002zm8.428 1.366h-1.876c0-.227.02-.453.06-.678a4.77 4.77 0 01.182-.69h5.372c0 .23-.02.453-.06.674-.04.22-.102.452-.183.695h-1.875l-1.147 6.563c-.3.044-.577.066-.827.066-.265 0-.53-.023-.794-.067l1.147-6.563zm7.276-1.367h4.345c0 .03.005.06.008.087.003.03.006.06.006.09 0 .19-.022.386-.066.584-.045.2-.107.4-.188.608h-2.736l-.298 1.72h2.173c0 .442-.084.902-.245 1.38h-2.173l-.375 2.095h2.813c0 .03.003.057.006.083a.54.54 0 01.006.083c0 .2-.024.395-.072.59-.047.195-.104.4-.17.612h-4.423l1.39-7.93V61.3zm5.044 0c.294-.045.592-.067.893-.067.257 0 .526.022.805.066l.508 6.23 2.724-6.23a5.473 5.473 0 011.688-.001l-3.762 7.93c-.33.043-.654.065-.97.065a5.46 5.46 0 01-.43-.017c-.14-.012-.295-.028-.464-.05l-.992-7.93zm10.237 5.006l-.287-3.176-1.412 3.176h1.7zm-.916-5.007c.15-.023.306-.04.47-.05a6.26 6.26 0 011.374.049l.97 7.93c-.28.043-.547.065-.804.065-.26 0-.534-.023-.83-.067l-.142-1.6h-2.415l-.706 1.6a5.04 5.04 0 01-1.624-.001l3.706-7.93v.002zm5.26 0c.125-.03.245-.05.358-.056.114-.008.223-.01.326-.01.22 0 .44.02.662.065l1.952 5.04.87-5.04a4.69 4.69 0 011.126-.057c.11.01.22.027.33.056l-1.4 7.93a4.14 4.14 0 01-.672.065c-.206 0-.423-.023-.65-.067l-1.964-5.03-.872 5.03c-.125.022-.25.04-.38.05-.13.01-.256.016-.38.016-.236 0-.468-.023-.696-.067l1.39-7.93v.002zm10.787 3.826a4.209 4.209 0 01.805-.077c.125 0 .255.005.39.015.137.01.272.03.404.06l-.695 3.927c-.32.11-.685.19-1.09.236a9.663 9.663 0 01-1.136.072c-.536 0-1.007-.077-1.412-.23a2.915 2.915 0 01-1.013-.64 2.626 2.626 0 01-.613-.966 3.497 3.497 0 01-.204-1.21c0-.712.107-1.38.32-2.006.214-.625.513-1.17.9-1.638a4.19 4.19 0 011.395-1.103 4.033 4.033 0 011.808-.402c.346 0 .655.023.927.067.272.044.547.13.827.254-.044.23-.1.442-.17.64-.07.2-.168.416-.293.65a2.708 2.708 0 00-.63-.186 3.606 3.606 0 00-.562-.045c-.492 0-.913.106-1.262.32a2.67 2.67 0 00-.86.832c-.225.342-.39.73-.497 1.164-.107.434-.16.87-.16 1.313 0 .64.156 1.095.47 1.367.31.272.725.41 1.24.41a3.906 3.906 0 00.628-.058l.487-2.767h-.003zm3.818-3.827h4.345c0 .03.003.06.006.087a.68.68 0 01.006.09c0 .19-.022.386-.067.584-.044.2-.106.4-.187.608h-2.735l-.298 1.72h2.172c0 .442-.08.902-.242 1.38h-2.173l-.375 2.095h2.813c0 .03.002.057.005.083a.54.54 0 01.006.083c0 .2-.022.395-.07.59-.047.195-.104.4-.17.612h-4.423l1.39-7.93-.002-.003zm5.837 0c.28-.05.552-.078.817-.078.255 0 .512.026.77.077l-1.147 6.54h2.602c0 .124-.007.244-.02.36l-.045.323a5.47 5.47 0 01-.077.347c-.03.114-.062.234-.1.36h-4.19l1.39-7.93zm5.386.01a4.628 4.628 0 011.208-.06c.136.01.274.03.413.06l-1.39 7.92a5.935 5.935 0 01-.83.065c-.263 0-.53-.023-.792-.067l1.388-7.92.002.002zm7.034 6.42c.08.19.145.404.193.64.047.234.08.466.094.693-.164.067-.337.12-.52.16a5.552 5.552 0 01-1.021.127 7.1 7.1 0 01-.36.012c-.536 0-1.005-.074-1.406-.22a2.74 2.74 0 01-1.003-.624 2.52 2.52 0 01-.6-.96c-.133-.37-.2-.785-.2-1.24 0-.714.108-1.383.32-2.008.214-.625.514-1.17.9-1.638.386-.466.85-.834 1.395-1.102a4.013 4.013 0 011.81-.403c.344 0 .65.02.92.062.268.04.546.125.832.26-.044.226-.1.44-.17.637-.07.2-.168.416-.293.65a3.42 3.42 0 00-.656-.186 3.416 3.416 0 00-.536-.043c-.493 0-.915.106-1.268.32a2.66 2.66 0 00-.866.832c-.225.34-.39.73-.496 1.163-.107.433-.16.87-.16 1.312 0 .603.156 1.05.468 1.346.313.295.76.44 1.34.44.11 0 .213 0 .31-.01.095-.007.19-.02.286-.032.096-.014.198-.038.31-.07l.374-.117h.002zm5.252-1.424l-.286-3.176-1.412 3.176h1.698zm-.915-5.007c.145-.023.3-.04.467-.05a6.266 6.266 0 011.373.049l.97 7.93a5.263 5.263 0 01-.804.065c-.257 0-.533-.023-.827-.067l-.145-1.6h-2.416l-.706 1.6a5.04 5.04 0 01-1.622-.001l3.706-7.93v.002zm5.258 0c.28-.05.55-.078.816-.078.257 0 .515.026.772.077l-1.147 6.54h2.6c0 .124-.007.244-.02.36l-.045.323a5.472 5.472 0 01-.078.347c-.03.114-.062.234-.1.36h-4.19l1.39-7.93zm11.385 6.43c.08.19.145.404.193.64.048.234.08.466.094.693-.162.067-.335.12-.52.16a5.365 5.365 0 01-1.019.127c-.15.008-.27.012-.356.012-.537 0-1.006-.074-1.406-.22a2.744 2.744 0 01-1.004-.624c-.268-.27-.47-.59-.6-.96-.134-.37-.2-.785-.2-1.24 0-.714.107-1.383.32-2.008.213-.625.513-1.17.9-1.638.385-.466.85-.834 1.394-1.102a4.013 4.013 0 011.81-.403c.344 0 .65.02.92.062.268.04.546.125.833.26-.044.226-.1.44-.17.637-.07.2-.17.416-.293.65a3.381 3.381 0 00-.656-.186 3.364 3.364 0 00-.534-.043c-.493 0-.915.106-1.268.32a2.66 2.66 0 00-.866.832c-.223.34-.39.73-.495 1.163-.107.433-.16.87-.16 1.312 0 .603.156 1.05.468 1.346.313.295.76.44 1.34.44.11 0 .214 0 .31-.01.095-.007.19-.02.286-.032.096-.014.198-.038.31-.07l.374-.117zm2.617-6.42a4.397 4.397 0 011.206-.06c.137.01.275.03.415.06l-.54 3.1h2.395l.54-3.1a4.413 4.413 0 011.213-.06c.14.01.275.03.408.06l-1.39 7.92a5.59 5.59 0 01-.827.065 4.85 4.85 0 01-.796-.067l.595-3.43h-2.394l-.596 3.43c-.3.044-.576.066-.826.066-.265 0-.53-.023-.794-.067l1.39-7.92v.003zm7.29-.01c.147-.03.29-.05.425-.056a6.826 6.826 0 01.782 0c.13.008.264.026.403.055l-.716 4.113c-.052.3-.092.57-.122.805a5.1 5.1 0 00-.044.64c0 .382.07.663.21.843.14.18.385.27.74.27.27 0 .5-.05.683-.147.185-.1.34-.254.47-.463.13-.21.235-.475.32-.794.085-.32.167-.705.248-1.153l.717-4.114c.162-.03.307-.05.436-.056.13-.008.256-.01.38-.01.134 0 .266.002.398.01.133.008.27.026.408.055l-.783 4.455c-.103.587-.23 1.105-.386 1.554a3.34 3.34 0 01-.628 1.124c-.266.3-.6.53-1 .688-.4.158-.89.237-1.47.237-.803 0-1.4-.185-1.79-.55-.39-.37-.583-.97-.583-1.8 0-.368.04-.787.12-1.257l.784-4.457v.003zm7.422.01c.31-.06.594-.097.855-.116.26-.018.528-.027.8-.027.375 0 .74.032 1.092.095.35.062.667.172.946.33.28.158.504.375.673.65.17.277.252.624.252 1.043 0 .338-.05.643-.15.916a3.162 3.162 0 01-.373.734c-.15.217-.316.4-.49.552-.18.15-.348.273-.51.368l-.13.077 1.18 3.3c-.31.043-.608.065-.895.065a4.64 4.64 0 01-.805-.067l-1.223-3.684.187-.11c.11-.067.254-.146.43-.238.177-.092.35-.213.52-.364.168-.15.313-.333.434-.546.122-.213.182-.47.182-.772 0-.19-.033-.35-.1-.48a.831.831 0 00-.27-.314 1.065 1.065 0 00-.39-.17c-.148-.034-.3-.05-.453-.05-.155 0-.28.01-.375.032l-1.18 6.695-.413.04a5 5 0 01-.383.015 4.987 4.987 0 01-.806-.055l1.39-7.92.002.003zm10.2 6.42c.08.19.146.404.193.64.048.234.08.466.094.693a3.09 3.09 0 01-.52.16 5.384 5.384 0 01-1.02.127c-.15.008-.27.012-.358.012-.536 0-1.005-.074-1.406-.22a2.74 2.74 0 01-1.003-.624 2.52 2.52 0 01-.6-.96c-.134-.37-.2-.785-.2-1.24 0-.714.107-1.383.32-2.008.213-.625.513-1.17.9-1.638.385-.466.85-.834 1.394-1.102a4.01 4.01 0 011.808-.403c.346 0 .653.02.922.062.268.04.545.125.832.26-.046.226-.103.44-.173.637-.07.2-.167.416-.292.65a3.42 3.42 0 00-.656-.186 3.416 3.416 0 00-.536-.043c-.493 0-.915.106-1.268.32a2.66 2.66 0 00-.866.832c-.224.34-.39.73-.495 1.163-.107.433-.16.87-.16 1.312 0 .603.156 1.05.468 1.346.313.295.76.44 1.34.44.11 0 .213 0 .31-.01.095-.007.19-.02.286-.032.093-.014.196-.038.307-.07l.375-.117zm2.618-6.42a4.397 4.397 0 011.206-.06c.137.01.275.03.415.06l-.54 3.1h2.394l.54-3.1a4.397 4.397 0 011.213-.06c.14.01.276.03.408.06l-1.39 7.92a5.567 5.567 0 01-.826.065c-.267 0-.53-.023-.797-.067l.596-3.43h-2.394l-.596 3.43c-.3.044-.576.066-.826.066-.265 0-.53-.023-.794-.067l1.39-7.92v.003zm7.345-.01h4.345c0 .03.003.06.006.087.003.03.006.06.006.09 0 .19-.022.386-.067.584-.044.2-.106.4-.187.608h-2.735l-.298 1.72h2.173c0 .442-.08.902-.243 1.38h-2.173l-.375 2.095h2.813c0 .03.002.057.005.083a.54.54 0 01.006.083c0 .2-.022.395-.07.59-.047.195-.104.4-.17.612h-4.423l1.39-7.93-.002-.003zm4.437 6.308c.28.103.564.19.855.264.29.074.57.11.843.11.228 0 .44-.025.635-.077s.364-.13.507-.232c.144-.103.256-.228.337-.375.08-.147.12-.32.12-.518a.737.737 0 00-.1-.386 1.22 1.22 0 00-.254-.3 2.202 2.202 0 00-.364-.247c-.14-.078-.28-.16-.42-.25-.47-.278-.843-.567-1.12-.864-.274-.3-.412-.65-.412-1.054 0-.4.07-.754.21-1.066.14-.31.338-.574.596-.787.257-.214.568-.378.932-.49a4.076 4.076 0 011.23-.172c.404 0 .753.03 1.047.09.294.058.603.15.927.275-.03.198-.08.408-.155.63-.073.22-.176.436-.31.65a4.209 4.209 0 00-.655-.255 3.177 3.177 0 00-.876-.1c-.133 0-.275.012-.425.034-.15.02-.285.063-.406.126a.867.867 0 00-.304.26.716.716 0 00-.122.43c0 .25.09.456.27.618.18.162.41.323.69.485.25.14.48.28.695.42.213.14.4.29.562.45.162.163.288.345.38.546.092.203.138.436.138.7 0 .376-.068.736-.204 1.082a2.422 2.422 0 01-.63.904c-.283.258-.64.463-1.076.618-.434.154-.948.23-1.544.23-.69 0-1.37-.127-2.04-.385.03-.22.084-.444.16-.668.078-.224.172-.458.282-.7zM17.675 30.646c-.823-.212-1.876-.318-3.157-.32a9.581 9.581 0 00-4.37 1.03 10.994 10.994 0 00-3.545 2.86c-1.007 1.22-1.8 2.655-2.38 4.302-.58 1.647-.87 3.43-.87 5.352 0 1.74.32 3.104.962 4.096.64.99 1.57 1.487 2.79 1.487 1.13 0 2.204-.366 3.226-1.098 1.024-.734 1.947-1.71 2.77-2.93.824-1.22 1.533-2.624 2.128-4.21a31.185 31.185 0 001.396-4.94l1.052-5.63zm1.007 11.12c-.306 1.738-.573 3.21-.8 4.415a18.448 18.448 0 00-.321 4.486c.017.26.055.556.116.89a6.35 6.35 0 01-.754.07c-.32.015-.587.023-.8.023-.183 0-.435-.01-.755-.024a4.932 4.932 0 01-.71-.07 19.45 19.45 0 01-.137-2.286c0-.214.015-.474.046-.78.03-.303.076-.63.137-.982.062-.35.13-.694.207-1.03.077-.336.145-.64.205-.915-.274.64-.678 1.335-1.212 2.082a12.716 12.716 0 01-1.944 2.127 10.802 10.802 0 01-2.564 1.67c-.946.442-1.983.663-3.11.663-2.014 0-3.54-.68-4.576-2.036C.672 48.71.154 46.812.154 44.37c0-2.074.33-4.11.985-6.108a16.525 16.525 0 012.904-5.354c1.282-1.57 2.876-2.837 4.782-3.798 1.907-.96 4.11-1.44 6.612-1.44.945 0 1.95.083 3.018.25 1.068.17 1.922.375 2.563.62L18.68 41.766zm10.934-10.982h-3.798c0-.426.023-.845.07-1.257.044-.41.16-.846.342-1.304h3.798l.366-2.058c.518-2.868 1.448-5.018 2.79-6.452 1.342-1.434 3.294-2.15 5.857-2.15.673 0 1.268.045 1.787.136.518.09.945.213 1.28.366-.152.61-.304 1.08-.457 1.417-.153.336-.32.717-.504 1.144a8.997 8.997 0 00-.983-.32 5.12 5.12 0 00-1.26-.137c-.73 0-1.387.092-1.967.275-.58.183-1.09.503-1.532.96-.442.458-.83 1.083-1.167 1.876-.335.794-.61 1.8-.824 3.02l-.366 1.923h6.085c0 .427-.023.847-.068 1.26-.046.41-.16.845-.342 1.302h-6.087L28.563 54.12c-.518 3.05-1.45 5.247-2.79 6.59-1.343 1.34-3.295 2.012-5.857 2.012-.67 0-1.266-.046-1.785-.137-.516-.09-.943-.213-1.28-.366.153-.61.298-1.083.435-1.42.138-.335.298-.716.48-1.143.306.122.64.22 1.008.297a6.28 6.28 0 001.28.115 8.05 8.05 0 001.992-.23 3.431 3.431 0 001.555-.87c.44-.426.823-1.044 1.143-1.852.32-.808.587-1.852.8-3.133l4.073-23.2zm14.566 0h-3.797c0-.426.022-.845.068-1.257.046-.41.16-.846.343-1.304h3.798l.366-2.058c.52-2.868 1.45-5.018 2.79-6.452 1.343-1.434 3.295-2.15 5.858-2.15.67 0 1.266.045 1.784.136.52.09.945.213 1.28.366-.15.61-.303 1.08-.456 1.417-.153.336-.32.717-.504 1.144a8.858 8.858 0 00-.983-.32 5.143 5.143 0 00-1.26-.137c-.733 0-1.39.092-1.968.275-.58.183-1.09.503-1.533.96-.443.458-.83 1.083-1.167 1.876-.336.794-.61 1.8-.825 3.02l-.367 1.923h6.086c0 .427-.023.847-.068 1.26-.046.41-.16.845-.342 1.302H47.2L43.13 54.12c-.52 3.05-1.45 5.247-2.792 6.59-1.342 1.34-3.294 2.012-5.856 2.012-.67 0-1.266-.046-1.784-.137-.52-.09-.946-.213-1.282-.366.152-.61.297-1.083.435-1.42.14-.335.3-.716.483-1.143.304.122.64.22 1.006.297.365.077.792.115 1.28.115.733 0 1.396-.078 1.99-.23a3.433 3.433 0 001.557-.87c.442-.426.823-1.044 1.143-1.852.32-.808.586-1.852.8-3.133l4.072-23.2zm14.428-8.282c.03-.274.07-.61.115-1.006.046-.397.1-.732.16-1.006.062-.245.13-.55.207-.916.076-.365.144-.67.206-.914.274-.03.61-.054 1.007-.07.396-.014.73-.022 1.006-.022.246 0 .55.008.917.023.366.016.67.04.914.07-.03.244-.06.55-.09.914a6 6 0 01-.136.916c-.062.274-.138.61-.23 1.006s-.168.732-.228 1.006c-.244.03-.55.054-.916.07-.367.015-.672.023-.916.023-.275 0-.61-.01-1.007-.024-.396-.015-.732-.04-1.006-.07v.002zm.093 8.282h-2.838c0-.426.04-.853.115-1.28.076-.428.175-.855.297-1.282h5.858l-4.073 23.334a6.484 6.484 0 01-.777.07c-.336.016-.61.023-.825.023-.182 0-.426-.01-.73-.024a4.762 4.762 0 01-.688-.07l3.66-20.772zm11.695-3.065c.306-1.74.565-3.234.78-4.485.212-1.252.32-2.426.32-3.525v-.96c0-.213-.016-.488-.047-.823.186-.03.45-.054.803-.07.35-.014.633-.022.847-.022h.73c.306 0 .534.016.686.046.03.336.046.634.046.893v.754c0 .367-.03.825-.09 1.374-.062.55-.13 1.13-.207 1.74a41.06 41.06 0 01-.275 1.852c-.106.625-.205 1.182-.296 1.67l-3.57 19.995a6.32 6.32 0 00-.138 1.19c0 .488.07.87.207 1.144a1.513 1.513 0 001.21.87c.244.03.488.046.732.046.367 0 .74-.03 1.122-.09.38-.06.677-.123.89-.184.122.336.206.725.252 1.167.047.44.054.845.023 1.21-.458.154-.99.268-1.6.345-.61.075-1.145.113-1.603.113-.55 0-1.083-.053-1.6-.16a3.885 3.885 0 01-1.397-.572c-.412-.273-.74-.655-.984-1.143s-.365-1.098-.365-1.83c0-.396.045-.87.136-1.418l3.387-19.127zM83.454 22.5c.03-.274.07-.61.115-1.006.043-.397.097-.732.16-1.006.06-.245.13-.55.204-.916.076-.365.145-.67.206-.914.276-.03.61-.054 1.008-.07.396-.014.732-.022 1.007-.022.243 0 .548.008.914.023.364.016.67.04.913.07-.03.244-.06.55-.09.914a6.1 6.1 0 01-.138.916c-.06.274-.138.61-.23 1.006-.09.396-.168.732-.228 1.006-.244.03-.55.054-.915.07-.367.015-.672.023-.916.023-.274 0-.61-.01-1.006-.024-.396-.015-.73-.04-1.006-.07v.002zm.092 8.282H80.71c0-.426.037-.853.113-1.28.077-.428.176-.855.298-1.282h5.86l-4.075 23.334c-.182.032-.44.055-.777.07-.335.016-.61.023-.824.023-.183 0-.427-.01-.732-.024a4.795 4.795 0 01-.687-.07l3.66-20.772zm25.102-.138c-.823-.212-1.876-.318-3.157-.32a9.572 9.572 0 00-4.367 1.03 11.008 11.008 0 00-3.546 2.86c-1.007 1.22-1.8 2.655-2.38 4.302-.58 1.647-.87 3.43-.87 5.352 0 1.74.32 3.104.962 4.096.64.99 1.57 1.487 2.79 1.487 1.13 0 2.203-.366 3.226-1.098 1.022-.734 1.944-1.71 2.768-2.93.823-1.22 1.532-2.624 2.127-4.21a31.296 31.296 0 001.398-4.94l1.05-5.63zm1.007 11.12c-.306 1.738-.573 3.21-.8 4.415a18.448 18.448 0 00-.319 4.486c.015.26.053.556.114.89a6.392 6.392 0 01-.755.07c-.32.015-.587.023-.802.023-.182 0-.434-.01-.754-.024a4.932 4.932 0 01-.71-.07c-.09-.76-.138-1.524-.138-2.286 0-.214.016-.474.047-.78.03-.303.076-.63.136-.982.06-.35.13-.694.206-1.03.077-.336.145-.64.206-.915-.275.64-.68 1.335-1.213 2.082a12.716 12.716 0 01-1.944 2.127 10.776 10.776 0 01-2.563 1.67c-.945.442-1.983.663-3.11.663-2.014 0-3.54-.68-4.576-2.036-1.037-1.358-1.555-3.257-1.555-5.698 0-2.074.328-4.11.984-6.108a16.508 16.508 0 012.905-5.354c1.28-1.57 2.875-2.837 4.78-3.798 1.908-.96 4.11-1.44 6.613-1.44.945 0 1.95.083 3.02.25 1.066.17 1.92.375 2.56.62l-2.332 13.222v.002zm10.568-10.982h-3.798c0-.426.023-.845.07-1.257.044-.41.16-.846.342-1.304h3.797c.152-.793.282-1.64.39-2.54.106-.9.16-1.928.16-3.087v-.505c.488-.15 1.02-.273 1.6-.365.58-.092 1.038-.138 1.374-.138.03.335.045.632.045.892v.755c0 .58-.06 1.333-.183 2.264-.122.93-.26 1.837-.412 2.72h6.04c0 .428-.023.848-.07 1.26-.045.41-.16.846-.34 1.303h-5.996l-2.7 15.19c-.06.215-.09.42-.09.62v.526c0 1.005.274 1.64.823 1.897.55.26 1.16.39 1.83.39a8.625 8.625 0 002.838-.46c.06.397.098.802.113 1.213.016.412.008.878-.023 1.396-1.158.336-2.47.504-3.934.504-1.436 0-2.587-.336-3.457-1.006-.87-.67-1.304-1.785-1.304-3.34 0-.458.045-.99.136-1.6l2.746-15.33zm17.075 8.008c3.08-.49 5.482-1.175 7.205-2.06 1.724-.884 2.586-2.12 2.586-3.705 0-.823-.29-1.487-.87-1.99-.58-.503-1.435-.755-2.565-.755a6.42 6.42 0 00-3.064.755 10.045 10.045 0 00-2.585 1.99 12.724 12.724 0 00-2.013 2.86 14.718 14.718 0 00-1.258 3.318l2.563-.412zm-2.975 3.614c0 2.197.534 3.92 1.6 5.17 1.068 1.252 2.76 1.877 5.08 1.877.58 0 1.19-.046 1.83-.138.64-.092 1.25-.207 1.83-.344.58-.136 1.13-.28 1.648-.434.52-.152.96-.29 1.328-.41.153.335.267.74.344 1.212.077.473.115.893.115 1.258-.427.183-.953.366-1.578.55-.626.183-1.29.343-1.99.48-.704.138-1.42.252-2.153.343-.732.09-1.418.136-2.06.136-1.737 0-3.193-.244-4.368-.732-1.175-.487-2.12-1.15-2.838-1.99a7.499 7.499 0 01-1.533-2.93 13.35 13.35 0 01-.458-3.544c0-1.86.32-3.7.96-5.514a16.6 16.6 0 012.678-4.873 13.98 13.98 0 014.117-3.5c1.6-.9 3.363-1.35 5.285-1.35 2.014 0 3.532.496 4.553 1.487 1.022.992 1.533 2.19 1.533 3.592 0 1.31-.32 2.44-.96 3.386-.642.945-1.526 1.746-2.655 2.402-1.127.656-2.462 1.197-4.003 1.625-1.54.426-3.195.776-4.964 1.05l-3.34.55v.64h-.003zm36.615-11.76c-.824-.212-1.877-.318-3.157-.32a9.593 9.593 0 00-4.37 1.03 10.99 10.99 0 00-3.544 2.86c-1.006 1.22-1.8 2.655-2.38 4.302-.58 1.647-.87 3.43-.87 5.352 0 1.74.32 3.104.962 4.096.64.99 1.57 1.487 2.79 1.487 1.13 0 2.205-.366 3.227-1.098 1.02-.734 1.944-1.71 2.768-2.93.824-1.22 1.533-2.624 2.128-4.21a31.08 31.08 0 001.396-4.94l1.053-5.63h-.002zm.96 11.12c-.305 1.738-.572 3.21-.8 4.415a18.443 18.443 0 00-.321 4.486c.015.26.053.556.115.89a6.39 6.39 0 01-.756.07c-.32.015-.587.023-.8.023-.183 0-.435-.01-.755-.024a4.88 4.88 0 01-.707-.07c-.06-.243-.1-.487-.114-.73a15.57 15.57 0 01-.024-1.007c0-.215.015-.498.046-.848.03-.35.077-.724.138-1.12.06-.397.13-.794.206-1.19.075-.397.16-.763.25-1.1-.273.642-.677 1.336-1.21 2.083a12.766 12.766 0 01-1.945 2.127 10.776 10.776 0 01-2.563 1.67c-.946.442-1.983.663-3.11.663-2.014 0-3.54-.68-4.577-2.036-1.038-1.358-1.556-3.257-1.556-5.698 0-2.074.328-4.11.984-6.108a16.546 16.546 0 012.905-5.354c1.28-1.57 2.874-2.837 4.78-3.798 1.907-.96 4.11-1.44 6.612-1.44.397 0 .84.022 1.327.067.49.045.916.1 1.282.16.305-1.74.572-3.264.8-4.576.23-1.31.343-2.516.343-3.615v-.96c0-.214-.015-.49-.046-.824.185-.03.453-.054.804-.07.35-.014.633-.022.846-.022h.73c.306 0 .535.015.687.046.03.335.046.632.046.892v.754c0 .367-.022.825-.068 1.374a25.47 25.47 0 01-.207 1.715l-.274 1.81a48.59 48.59 0 01-.274 1.646L171.9 41.76zm21.068-10.982h-3.798c0-.426.023-.845.07-1.257.044-.41.16-.846.342-1.304h3.796c.153-.793.283-1.64.39-2.54.107-.9.16-1.928.16-3.087v-.505c.49-.15 1.022-.273 1.602-.365.58-.092 1.037-.138 1.373-.138.03.335.047.632.047.892v.755c0 .58-.062 1.333-.183 2.264-.122.93-.26 1.837-.412 2.72h6.04c0 .428-.022.848-.068 1.26-.046.41-.16.846-.343 1.303h-5.994l-2.7 15.19c-.06.215-.09.42-.09.62v.526c0 1.005.273 1.64.822 1.897.55.26 1.16.39 1.83.39a8.625 8.625 0 002.838-.46c.06.397.1.802.114 1.213.014.412.007.878-.024 1.396-1.16.336-2.47.504-3.935.504-1.43 0-2.583-.336-3.452-1.006-.87-.67-1.304-1.785-1.304-3.34 0-.458.045-.99.137-1.6l2.747-15.33zM212.1 52.106c-2.594 0-4.6-.755-6.018-2.265-1.42-1.51-2.128-3.713-2.128-6.61 0-1.587.252-3.287.755-5.1.502-1.817 1.28-3.5 2.332-5.057a13.374 13.374 0 014.027-3.867c1.63-1.022 3.56-1.533 5.786-1.533 2.593 0 4.598.755 6.017 2.265 1.42 1.51 2.128 3.714 2.128 6.61 0 1.588-.25 3.288-.754 5.103a17.174 17.174 0 01-2.334 5.057 13.339 13.339 0 01-4.027 3.867c-1.632 1.022-3.56 1.533-5.787 1.533h.002zm.318-2.652c1.646 0 3.057-.412 4.23-1.236a10.293 10.293 0 002.907-3.11c.763-1.25 1.327-2.64 1.693-4.164.366-1.526.55-2.974.55-4.346 0-2.014-.466-3.562-1.397-4.645-.93-1.082-2.22-1.624-3.865-1.624-1.647 0-3.058.412-4.233 1.236a10.311 10.311 0 00-2.905 3.11c-.763 1.25-1.327 2.64-1.694 4.164-.366 1.527-.55 2.975-.55 4.347 0 2.014.466 3.562 1.396 4.645.93 1.083 2.22 1.625 3.867 1.625v-.003z"/></g></symbol>
<symbol id="instagram" viewBox="0 0 100 100"><path d="M49.984.032c-13.575 0-15.277.057-20.608.3-5.32.243-8.954 1.088-12.133 2.324-3.287 1.277-6.075 2.986-8.854 5.765-2.778 2.779-4.488 5.566-5.765 8.853-1.236 3.18-2.08 6.813-2.323 12.133C.058 34.74 0 36.441 0 50.016 0 63.59.058 65.293.3 70.624c.243 5.32 1.088 8.954 2.324 12.133 1.277 3.287 2.987 6.075 5.765 8.854 2.78 2.778 5.567 4.488 8.854 5.765 3.179 1.236 6.813 2.08 12.133 2.323 5.331.243 7.033.301 20.608.301s15.277-.058 20.609-.3c5.32-.243 8.953-1.088 12.133-2.324 3.287-1.277 6.074-2.987 8.853-5.765 2.779-2.78 4.488-5.567 5.765-8.854 1.236-3.179 2.081-6.813 2.324-12.133.243-5.331.3-7.033.3-20.608s-.057-15.277-.3-20.609c-.243-5.32-1.088-8.953-2.324-12.133-1.277-3.287-2.986-6.074-5.765-8.853-2.779-2.779-5.566-4.488-8.853-5.765C79.546 1.42 75.913.575 70.593.332c-5.332-.243-7.034-.3-20.609-.3zm0 9.006c13.347 0 14.928.05 20.198.291 4.874.222 7.52 1.037 9.281 1.721 2.334.907 3.999 1.99 5.748 3.74 1.749 1.748 2.832 3.413 3.739 5.747.684 1.76 1.499 4.407 1.72 9.28.241 5.271.292 6.852.292 20.199 0 13.346-.05 14.927-.291 20.198-.222 4.873-1.037 7.52-1.721 9.281-.907 2.333-1.99 3.998-3.74 5.747-1.748 1.75-3.413 2.833-5.747 3.74-1.76.684-4.407 1.498-9.28 1.72-5.27.24-6.851.292-20.199.292-13.347 0-14.928-.051-20.198-.292-4.873-.222-7.52-1.036-9.281-1.72-2.333-.907-3.998-1.99-5.747-3.74-1.75-1.749-2.833-3.414-3.74-5.747-.684-1.761-1.498-4.408-1.72-9.281-.24-5.27-.292-6.852-.292-20.198 0-13.347.051-14.928.292-20.198.222-4.874 1.036-7.52 1.72-9.281.907-2.334 1.99-3.999 3.74-5.748 1.749-1.749 3.414-2.832 5.747-3.739 1.761-.684 4.408-1.499 9.281-1.72 5.27-.241 6.852-.292 20.198-.292zm.002 56.305c-8.466 0-15.329-6.863-15.329-15.328 0-8.466 6.863-15.329 15.329-15.329 8.465 0 15.328 6.863 15.328 15.329 0 8.465-6.863 15.328-15.328 15.328zm0-38.943c-13.042 0-23.615 10.573-23.615 23.615 0 13.041 10.573 23.614 23.615 23.614 13.041 0 23.614-10.573 23.614-23.614C73.6 36.973 63.027 26.4 49.986 26.4zm30.065-.933a5.518 5.518 0 10-11.037 0 5.518 5.518 0 0011.037 0z" fill-rule="nonzero" fill="currentColor"/></symbol>
<symbol id="listen" viewBox="0 0 33 34"><path d="M29.409 27.96a16.446 16.446 0 01-12.345 5.531C7.934 33.491.509 26.07.509 16.947.509 7.824 7.935.403 17.064.403c4.919 0 9.318 2.127 12.345 5.53.237.237.426.615.426.993 0 .803-.615 1.418-1.42 1.418-.425 0-.85-.19-1.087-.52a13.827 13.827 0 00-10.264-4.585c-7.568 0-13.717 6.145-13.717 13.708 0 7.563 6.149 13.708 13.717 13.708 4.068 0 7.757-1.749 10.264-4.585.236-.331.662-.52 1.088-.52.804 0 1.419.614 1.419 1.418 0 .378-.142.756-.426.993zM33 16.5L21 24V9l12 7.5z" fill="currentColor" fill-rule="evenodd"/></symbol>
<symbol id="map" viewBox="0 0 30 32"><g fill="none" fill-rule="evenodd"><path d="M24.502 5.946L2.348 25.183A14.856 14.856 0 010 17.193c0-2.234.492-4.393 1.401-6.286.303.492.644.984 1.023 1.552 1.439 2.083 2.84 3.75 2.916 3.825l.946 1.136.947-1.136c.076-.076 1.477-1.742 2.916-3.825 2.045-2.992 3.068-5.188 3.068-6.779a6.76 6.76 0 00-.758-3.143 16.88 16.88 0 012.386-.19 14.75 14.75 0 019.657 3.599zm.34 22.153c2.954-2.726 4.81-6.589 4.81-10.906 0-3.37-1.098-6.438-2.992-8.937L15.072 18.329l9.77 9.77zm-20.525-.454A14.821 14.821 0 0014.845 32c2.727 0 5.264-.72 7.46-2.007l-9.619-9.581-8.369 7.233z" fill="currentColor"/><path d="M.606 5.68c0-.87.19-1.704.568-2.461.19-.417.454-.795.72-1.136a7.15 7.15 0 01.757-.758c.151-.113.303-.227.416-.34.152-.114.303-.19.455-.265.379-.19.72-.341 1.06-.455C5.112.114 5.68 0 6.25 0a5.7 5.7 0 014.014 1.666l.19.19c.378.416.68.87.908 1.363.34.757.568 1.59.568 2.461 0 3.144-5.643 9.77-5.643 9.77S.606 8.787.606 5.68zm3.446-.53c0 .417.114.796.303 1.136.076.152.19.303.34.417l.077.076c.378.34.908.568 1.477.568.265 0 .53-.038.757-.152.038 0 .076-.038.114-.038.151-.075.302-.151.454-.265.53-.416.871-1.06.871-1.78 0-.113 0-.227-.038-.34 0-.076-.038-.152-.038-.228a2.727 2.727 0 00-.568-1.022 2.145 2.145 0 00-1.552-.644c-.796 0-1.515.417-1.894 1.06-.114.19-.19.38-.265.606 0 .076-.038.152-.038.228v.378z" fill="#C16443"/></g></symbol>
<symbol id="one21" viewBox="0 0 245 245"><g fill="none" fill-rule="evenodd"><path d="M124 26c46.72 0 85.725 33.03 94.938 77.012l.296-2.364.307-2.379.302-2.284.311-2.285c1-7.229 2.132-14.368 3.367-20.446l.082-.386c1.258-5.646 6.445-18.641 18.142-19.937l-9.165 82.33-2.968 4.939a6.068 6.068 0 013.827 6.069l-3.91 55.917c-.232 3.321-3.113 5.851-6.402 5.621l-5.976-.418c-3.289-.23-5.716-3.13-5.395-6.444l4.69-48.486C203.976 191.627 167.3 220 124 220c-40.052 0-74.434-24.275-89.237-58.914l1.924 13.322c.377 1.676.66 3.46.825 5.318l.063.803.027.405c.652 10.783-2.882 19.742-7.978 20.098-5.156.36-9.96-8.234-10.726-19.197l-.064-1.013c-.995-17.338.522-73.583-.01-81.2l-.05-.685c-.162-2.086-.477-4.384-2.051-5.071l-.18-.07-5.126.358a2.66 2.66 0 01-2.814-2.288l-.017-.165-3.302-47.226c-.101-1.45.756-2.704 1.901-2.785 1.098-.076 2.082.952 2.251 2.314l.017.18 2.11 30.175c.102 1.452.95 2.585 1.887 2.52.894-.063 1.557-1.2 1.525-2.57l-.01-.188-2.11-30.176c-.1-1.45.753-2.704 1.896-2.784 1.098-.076 2.079.952 2.248 2.314l.017.18 2.11 30.175c.102 1.452.95 2.585 1.885 2.52.894-.063 1.559-1.2 1.526-2.57l-.009-.188-2.11-30.175c-.101-1.45.75-2.704 1.894-2.784 1.098-.077 2.079.951 2.25 2.313l.017.18 2.11 30.175c.101 1.452.952 2.585 1.885 2.52.896-.063 1.56-1.2 1.528-2.57l-.01-.188-2.11-30.175c-.1-1.45.75-2.704 1.89-2.784 1.092-.076 2.072.952 2.24 2.314l.017.18 2.912 41.671C49.994 49.974 84.197 26 124 26zm.472 19.541c-43.04 0-77.93 34.89-77.93 77.931 0 43.04 34.89 77.931 77.93 77.931 43.04 0 77.931-34.89 77.931-77.931 0-43.04-34.89-77.93-77.931-77.93zm95.837 89.082l-.126 1.022a96.777 96.777 0 01-.848 5.342 6.174 6.174 0 012.351-1.258c-.028-1.012-.26-2.876-1.377-5.106zM31.817 92.727l-8.28.583 4.24-.287c-1.781.843-1.648 3.573-1.49 5.857l.036.486.064.704c.205 2.055.692 5.93 1.353 10.91a96.23 96.23 0 014.077-18.253z" fill="currentColor" fill-rule="nonzero"/><path d="M132.938 85C149.01 85 158 95.155 158 107.207c0 7.254-3.147 11.83-7.53 18.079-3.087 4.349-7.689 10.2-12.162 15.81l-7.168 8.963h24.275c1.075 0 2.047.92 2.13 1.976l.005.145v7.7c0 1.067-.925 2.032-1.989 2.114l-.146.006h-44.28a2.126 2.126 0 01-2.13-1.975l-.005-.145v-2.567l1.248-1.513c7.668-9.351 20.733-26.248 27.86-35.648 3.484-4.24 5.731-8.593 5.731-12.387 0-5.022-3.82-10.155-11.912-10.155-5.395 0-10.003 3.794-12.588 6.584-.856.85-2.018.89-2.903.122l-.131-.122-5.394-5.356c-.643-.638-.877-1.883-.218-2.771l.27-.327c1.259-1.474 9.665-10.74 21.975-10.74zm43.899 7.402l6.483.91c.877.124 1.482.98 1.432 1.864l-.015.148-8.437 60.03c-.124.888-.906 1.597-1.778 1.555l-.138-.013-7.965-1.12c-.968-.136-1.578-.996-1.524-1.883l.014-.14 6.294-44.79-8.4.632c-.814.066-1.617-.55-1.678-1.342l-.003-.134.088-4.66c.012-.692.23-1.197.588-1.525l.112-.093 14.927-9.44zM66.663 116c5.326 0 9.663 4.571 9.663 9.952 0 5.477-4.337 10.048-9.663 10.048-5.327 0-9.663-4.571-9.663-10.048 0-5.38 4.336-9.952 9.663-9.952zm46.523 0c4.855 0 8.814 3.714 8.814 8.857 0 .333-.047.953-.094 1.286a.915.915 0 01-.896.81h-12.067c.142 1.952 1.792 4.142 4.525 4.142 1.462 0 2.829-.571 3.677-1.19.471-.286.896-.381 1.226 0l1.932 2.238c.306.31.41.783.045 1.154l-.092.084c-1.555 1.476-3.96 2.619-7.023 2.619-5.656 0-9.663-4.524-9.663-10 0-5.381 4.007-10 9.616-10zm-21.871 0c5.883 0 8.306 4.37 8.388 9.22l.002.256v9.143c0 .44-.362.839-.788.897l-.108.008h-3.865a.897.897 0 01-.889-.796l-.006-.109v-9.429c0-2.476-1.273-4.047-3.536-4.047-2.363 0-3.85 1.594-4.376 2.86l-.054.14v10.476c0 .625-.249.873-1.018.902l-.16.003h-3.489c-.435 0-.83-.365-.888-.796l-.007-.109v-17.238a.9.9 0 01.787-.898l.108-.007h1.791c.377 0 .606.188.75.464l.052.108.66 1.762.15-.158A9.265 9.265 0 0191.316 116zm-24.652 5.143c-2.546 0-4.525 2.143-4.525 4.81 0 2.714 1.98 4.904 4.525 4.904 2.498 0 4.525-2.19 4.525-4.905 0-2.666-2.027-4.81-4.525-4.81zm46.381-.762c-1.885 0-3.44 1.429-3.676 3.238h7.117c-.141-1.762-1.65-3.238-3.44-3.238z" fill="#D06348"/></g></symbol>
<symbol id="person" viewBox="0 0 100 100"><path d="M54.329 87.84a25.807 25.807 0 0121.63-11.71c2.294 0 4.55.3 6.723.885a53.944 53.944 0 007.605-7.07c-3.778-10.502-13.094-19.049-25.182-22.96l-4.353-1.408 3.027-3.431a17.463 17.463 0 004.384-11.603C68.163 20.854 60.31 13 50.62 13s-17.543 7.854-17.543 17.543c0 4.291 1.542 8.336 4.3 11.507l3.003 3.453-4.366 1.376C23.623 50.785 14.095 59.548 10.37 70.314 20.454 81.482 34.776 88 50.163 88c1.396 0 2.785-.053 4.166-.16z" stroke="currentColor" stroke-width="6" fill="none" fill-rule="evenodd"/></symbol>
<symbol id="subscribe" viewBox="0 0 34 35"><path d="M20.696 17.26a4.44 4.44 0 00-4.435-4.434 4.44 4.44 0 00-4.435 4.435 4.44 4.44 0 004.435 4.435 4.44 4.44 0 004.435-4.435zm-5.913 0a1.48 1.48 0 011.478-1.477 1.48 1.48 0 011.478 1.478 1.48 1.48 0 01-1.478 1.478 1.48 1.48 0 01-1.478-1.478zm1.478-9.977c5.503 0 9.978 4.476 9.978 9.978a9.92 9.92 0 01-3.892 7.91 1.112 1.112 0 01-1.557-.201 1.11 1.11 0 01.203-1.555 7.719 7.719 0 003.029-6.154c0-4.28-3.482-7.761-7.761-7.761-4.28 0-7.761 3.481-7.761 7.76a7.716 7.716 0 003.03 6.155 1.11 1.11 0 01.201 1.555 1.107 1.107 0 01-1.555.201 9.92 9.92 0 01-3.893-7.91c0-5.502 4.476-9.978 9.978-9.978zm11.297 21.9c-.236.284-.614.425-.993.425a1.393 1.393 0 01-1.418-1.419c0-.425.19-.85.52-1.087 2.836-2.507 4.585-6.197 4.585-10.264 0-7.568-6.145-13.717-13.708-13.717-7.563 0-13.708 6.149-13.708 13.717 0 4.067 1.796 7.757 4.585 10.264.331.236.52.662.52 1.087 0 .805-.614 1.42-1.418 1.42-.378 0-.756-.19-.992-.426A16.446 16.446 0 010 16.838C0 7.708 7.421.283 16.544.283c9.123 0 16.545 7.426 16.545 16.555 0 4.919-2.128 9.318-5.531 12.345zm-9.819-4.53l2.957 8.869c.323.715-.661 1.478-1.479 1.478h-5.913c-.816 0-1.824-.693-1.478-1.478l2.957-8.87c.221-.78.662-1.478 1.478-1.478s1.144.585 1.478 1.478z" fill="currentColor" fill-rule="evenodd"/></symbol>
<symbol id="tgc-logo-long-no-ring-themed" viewBox="0 0 1880 110"><g fill="none" fill-rule="evenodd"><path d="M26.876 15.732H2.808C1.183 15.732 0 14.398 0 12.927V4.65c0-1.486 1.183-2.814 2.808-2.814h63.499c1.62 0 2.8 1.328 2.8 2.814v8.277c0 1.47-1.18 2.805-2.8 2.805H42.234V102.5c0 1.486-1.328 2.812-2.803 2.812h-9.747c-1.475 0-2.808-1.326-2.808-2.812V15.732M114.61 4.65c0-1.486 1.333-2.814 2.808-2.814h9.747c1.62 0 2.803 1.328 2.803 2.814v41.24h54.044V4.65c0-1.486 1.183-2.814 2.812-2.814h9.744c1.478 0 2.802 1.328 2.802 2.814v97.85c0 1.485-1.324 2.81-2.802 2.81h-9.744c-1.63 0-2.812-1.325-2.812-2.81V59.784h-54.044v42.714c0 1.486-1.183 2.812-2.803 2.812h-9.747c-1.475 0-2.808-1.326-2.808-2.812V4.65M257.58 4.65c0-1.486 1.179-2.814 2.802-2.814h59.064c1.63 0 2.812 1.328 2.812 2.814v8.277c0 1.47-1.183 2.805-2.812 2.805h-46.662v30.159h39.431c1.478 0 2.803 1.331 2.803 2.802v8.28a2.803 2.803 0 01-2.803 2.812h-39.431v31.782h46.662c1.63 0 2.812 1.33 2.812 2.806v8.126c0 1.486-1.183 2.812-2.812 2.812h-59.064c-1.623 0-2.803-1.326-2.803-2.812V4.65M481.765.359c14.175 0 25.838 5.17 35.878 13.749 1.182 1.183 1.333 2.956.15 4.14-2.217 2.364-4.428 4.578-6.648 6.942-1.18 1.335-2.362 1.184-3.838-.15-6.938-6.055-16.094-10.05-25.105-10.05-20.966 0-37.06 17.738-37.06 38.435 0 20.55 16.094 38.287 37.06 38.287 12.26 0 20.674-4.435 22.152-5.024V70.13h-14.471c-1.623 0-2.803-1.18-2.803-2.66v-8.573c0-1.622 1.18-2.806 2.803-2.806h26.876c1.475 0 2.657 1.329 2.657 2.806 0 11.825.151 23.946.151 35.772 0 .737-.591 1.918-1.182 2.364 0 0-15.213 9.757-36.62 9.757-29.389 0-53.16-23.5-53.16-53.063 0-29.567 23.771-53.368 53.16-53.368M575.11 1.836h9.747c1.475 0 2.808 1.328 2.808 2.814v86.917h40.014c1.629 0 2.808 1.33 2.808 2.806v8.126c0 1.486-1.18 2.812-2.808 2.812h-52.57c-1.62 0-2.802-1.326-2.802-2.812V4.65c0-1.485 1.183-2.813 2.803-2.813z" fill="currentColor"/><path d="M716.118 73.464c16.645 0 30.272-13.52 30.272-30.182 0-16.56-13.627-30.425-30.272-30.425-16.535 0-30.16 13.865-30.16 30.425 0 16.662 13.625 30.182 30.16 30.182zm0-72.26c23.285 0 41.915 18.764 41.915 42.078 0 23.309-18.63 41.839-41.915 41.839-23.288 0-41.802-18.53-41.802-41.839 0-23.314 18.514-42.079 41.802-42.079z" fill="#D06348"/><path d="M858.823 46.775c9.449 0 15.213-6.954 15.213-15.823 0-9.011-5.764-15.22-15.213-15.22H838.89v31.043h19.934zm2.362 44.937c9.011 0 15.947-6.95 15.947-16.107 0-9.02-8.565-15.525-18.158-15.525h-20.236v31.632h22.447zM823.83 4.65c0-1.486 1.18-2.814 2.803-2.814h33.075c17.871 0 30.716 11.825 30.716 27.344 0 11.384-8.414 19.513-15.358 23.508 7.831 3.252 18.462 10.5 18.462 24.098 0 16.557-13.587 28.525-32.191 28.525h-34.704c-1.623 0-2.803-1.326-2.803-2.812V4.65zM945.23 4.65c0-1.486 1.182-2.814 2.811-2.814h59.064c1.623 0 2.803 1.328 2.803 2.814v8.277c0 1.47-1.18 2.805-2.803 2.805h-46.662v30.159h39.425c1.476 0 2.809 1.331 2.809 2.802v8.28c0 1.628-1.333 2.812-2.809 2.812h-39.425v31.782h46.662c1.623 0 2.803 1.33 2.803 2.806v8.126c0 1.486-1.18 2.812-2.803 2.812h-59.064c-1.629 0-2.811-1.326-2.811-2.812V4.65M1169.569.359c14.909 0 25.693 5.025 35.733 13.749 1.327 1.183 1.327 2.956.145 4.14l-6.498 6.65c-1.03 1.325-2.362 1.325-3.687 0-6.944-6.058-16.396-9.908-25.551-9.908-21.111 0-37.06 17.738-37.06 38.435 0 20.694 16.09 38.287 37.21 38.287 10.78 0 18.312-4.282 25.401-9.756 1.325-1.03 2.658-.885 3.545-.151l6.79 6.655c1.183 1.033.887 2.957-.15 3.987-10.043 9.765-22.74 14.343-35.878 14.343-29.534 0-53.311-23.5-53.311-53.063 0-29.567 23.777-53.368 53.31-53.368M1256.437 4.515c0-1.486 1.328-2.814 2.803-2.814h9.753c1.623 0 2.802 1.328 2.802 2.814v41.24h54.047V4.516c0-1.486 1.18-2.814 2.809-2.814h9.738c1.484 0 2.811 1.328 2.811 2.814v97.85c0 1.485-1.327 2.81-2.81 2.81h-9.74c-1.628 0-2.808-1.325-2.808-2.81V59.65h-54.047v42.714c0 1.486-1.18 2.812-2.803 2.812h-9.752c-1.475 0-2.803-1.326-2.803-2.812V4.514M1397.762 4.65c0-1.486 1.334-2.814 2.803-2.814h9.898c1.629 0 2.808 1.328 2.808 2.814v61.047c0 14.782 9.452 26.311 24.508 26.311 15.213 0 24.807-11.384 24.807-26.015V4.65c0-1.486 1.182-2.814 2.808-2.814h9.898c1.47 0 2.802 1.328 2.802 2.814v62.086c0 22.467-16.978 40.054-40.315 40.054-23.18 0-40.017-17.587-40.017-40.054V4.65M1576.758 52.096c9.593 0 18.013-8.132 18.013-18.33 0-9.606-8.42-17.596-18.013-17.596h-26.285v35.926h26.285zM1534.964 4.65c0-1.486 1.18-2.814 2.809-2.814h40.164c17.72 0 32.192 14.047 32.192 31.634 0 13.601-9.011 24.835-21.856 30.005l20.236 37.553c1.028 1.918 0 4.283-2.513 4.283h-11.521c-1.18 0-2.066-.734-2.362-1.326l-19.636-39.176h-22.3v37.69c0 1.486-1.327 2.812-2.81 2.812h-9.594c-1.629 0-2.809-1.326-2.809-2.812V4.65zM1708.496.359c14.918 0 25.7 5.025 35.742 13.749 1.325 1.183 1.325 2.956.145 4.14l-6.498 6.65c-1.037 1.325-2.362 1.325-3.69 0-6.944-6.058-16.392-9.908-25.548-9.908-21.114 0-37.06 17.738-37.06 38.435 0 20.694 16.091 38.287 37.21 38.287 10.777 0 18.312-4.282 25.399-9.756 1.327-1.03 2.652-.885 3.544-.151l6.785 6.655c1.183 1.033.893 2.957-.142 3.987-10.042 9.765-22.743 14.343-35.887 14.343-29.533 0-53.305-23.5-53.305-53.063 0-29.567 23.772-53.368 53.305-53.368M1795.06 4.515c0-1.486 1.327-2.814 2.803-2.814h9.752c1.623 0 2.803 1.328 2.803 2.814v41.24h54.047V4.516c0-1.486 1.18-2.814 2.809-2.814h9.738c1.484 0 2.811 1.328 2.811 2.814v97.85c0 1.485-1.327 2.81-2.811 2.81h-9.738c-1.63 0-2.809-1.325-2.809-2.81V59.65h-54.047v42.714c0 1.486-1.18 2.812-2.803 2.812h-9.752c-1.476 0-2.803-1.326-2.803-2.812V4.514" fill="currentColor"/><rect fill="#D06348" x="685.843" y="100.204" width="62.874" height="10.627" rx="1.75"/></g></symbol>
<symbol id="tgc-logo-long-no-ring" viewBox="0 0 1880 110"><g fill="none" fill-rule="evenodd"><path d="M26.876 15.732H2.808C1.183 15.732 0 14.398 0 12.927V4.65c0-1.486 1.183-2.814 2.808-2.814h63.499c1.62 0 2.8 1.328 2.8 2.814v8.277c0 1.47-1.18 2.805-2.8 2.805H42.234V102.5c0 1.486-1.328 2.812-2.803 2.812h-9.747c-1.475 0-2.808-1.326-2.808-2.812V15.732M114.61 4.65c0-1.486 1.333-2.814 2.808-2.814h9.747c1.62 0 2.803 1.328 2.803 2.814v41.24h54.044V4.65c0-1.486 1.183-2.814 2.812-2.814h9.744c1.478 0 2.802 1.328 2.802 2.814v97.85c0 1.485-1.324 2.81-2.802 2.81h-9.744c-1.63 0-2.812-1.325-2.812-2.81V59.784h-54.044v42.714c0 1.486-1.183 2.812-2.803 2.812h-9.747c-1.475 0-2.808-1.326-2.808-2.812V4.65M257.58 4.65c0-1.486 1.179-2.814 2.802-2.814h59.064c1.63 0 2.812 1.328 2.812 2.814v8.277c0 1.47-1.183 2.805-2.812 2.805h-46.662v30.159h39.431c1.478 0 2.803 1.331 2.803 2.802v8.28a2.803 2.803 0 01-2.803 2.812h-39.431v31.782h46.662c1.63 0 2.812 1.33 2.812 2.806v8.126c0 1.486-1.183 2.812-2.812 2.812h-59.064c-1.623 0-2.803-1.326-2.803-2.812V4.65" fill="#282938"/><path d="M481.765.359c14.175 0 25.838 5.17 35.878 13.749 1.182 1.183 1.333 2.956.15 4.14-2.217 2.364-4.428 4.578-6.648 6.942-1.18 1.335-2.362 1.184-3.838-.15-6.938-6.055-16.094-10.05-25.105-10.05-20.966 0-37.06 17.738-37.06 38.435 0 20.55 16.094 38.287 37.06 38.287 12.26 0 20.674-4.435 22.152-5.024V70.13h-14.471c-1.623 0-2.803-1.18-2.803-2.66v-8.573c0-1.622 1.18-2.806 2.803-2.806h26.876c1.475 0 2.657 1.329 2.657 2.806 0 11.825.151 23.946.151 35.772 0 .737-.591 1.918-1.182 2.364 0 0-15.213 9.757-36.62 9.757-29.389 0-53.16-23.5-53.16-53.063 0-29.567 23.771-53.368 53.16-53.368M575.11 1.836h9.747c1.475 0 2.808 1.328 2.808 2.814v86.917h40.014c1.629 0 2.808 1.33 2.808 2.806v8.126c0 1.486-1.18 2.812-2.808 2.812h-52.57c-1.62 0-2.802-1.326-2.802-2.812V4.65c0-1.485 1.183-2.813 2.803-2.813z" fill="#292A38"/><path d="M716.118 73.464c16.645 0 30.272-13.52 30.272-30.182 0-16.56-13.627-30.425-30.272-30.425-16.535 0-30.16 13.865-30.16 30.425 0 16.662 13.625 30.182 30.16 30.182zm0-72.26c23.285 0 41.915 18.764 41.915 42.078 0 23.309-18.63 41.839-41.915 41.839-23.288 0-41.802-18.53-41.802-41.839 0-23.314 18.514-42.079 41.802-42.079z" fill="#D06348"/><path d="M858.823 46.775c9.449 0 15.213-6.954 15.213-15.823 0-9.011-5.764-15.22-15.213-15.22H838.89v31.043h19.934zm2.362 44.937c9.011 0 15.947-6.95 15.947-16.107 0-9.02-8.565-15.525-18.158-15.525h-20.236v31.632h22.447zM823.83 4.65c0-1.486 1.18-2.814 2.803-2.814h33.075c17.871 0 30.716 11.825 30.716 27.344 0 11.384-8.414 19.513-15.358 23.508 7.831 3.252 18.462 10.5 18.462 24.098 0 16.557-13.587 28.525-32.191 28.525h-34.704c-1.623 0-2.803-1.326-2.803-2.812V4.65zM945.23 4.65c0-1.486 1.182-2.814 2.811-2.814h59.064c1.623 0 2.803 1.328 2.803 2.814v8.277c0 1.47-1.18 2.805-2.803 2.805h-46.662v30.159h39.425c1.476 0 2.809 1.331 2.809 2.802v8.28c0 1.628-1.333 2.812-2.809 2.812h-39.425v31.782h46.662c1.623 0 2.803 1.33 2.803 2.806v8.126c0 1.486-1.18 2.812-2.803 2.812h-59.064c-1.629 0-2.811-1.326-2.811-2.812V4.65" fill="#292A38"/><path d="M1169.569.359c14.909 0 25.693 5.025 35.733 13.749 1.327 1.183 1.327 2.956.145 4.14l-6.498 6.65c-1.03 1.325-2.362 1.325-3.687 0-6.944-6.058-16.396-9.908-25.551-9.908-21.111 0-37.06 17.738-37.06 38.435 0 20.694 16.09 38.287 37.21 38.287 10.78 0 18.312-4.282 25.401-9.756 1.325-1.03 2.658-.885 3.545-.151l6.79 6.655c1.183 1.033.887 2.957-.15 3.987-10.043 9.765-22.74 14.343-35.878 14.343-29.534 0-53.311-23.5-53.311-53.063 0-29.567 23.777-53.368 53.31-53.368M1256.437 4.515c0-1.486 1.328-2.814 2.803-2.814h9.753c1.623 0 2.802 1.328 2.802 2.814v41.24h54.047V4.516c0-1.486 1.18-2.814 2.809-2.814h9.738c1.484 0 2.811 1.328 2.811 2.814v97.85c0 1.485-1.327 2.81-2.81 2.81h-9.74c-1.628 0-2.808-1.325-2.808-2.81V59.65h-54.047v42.714c0 1.486-1.18 2.812-2.803 2.812h-9.752c-1.475 0-2.803-1.326-2.803-2.812V4.514M1397.762 4.65c0-1.486 1.334-2.814 2.803-2.814h9.898c1.629 0 2.808 1.328 2.808 2.814v61.047c0 14.782 9.452 26.311 24.508 26.311 15.213 0 24.807-11.384 24.807-26.015V4.65c0-1.486 1.182-2.814 2.808-2.814h9.898c1.47 0 2.802 1.328 2.802 2.814v62.086c0 22.467-16.978 40.054-40.315 40.054-23.18 0-40.017-17.587-40.017-40.054V4.65M1576.758 52.096c9.593 0 18.013-8.132 18.013-18.33 0-9.606-8.42-17.596-18.013-17.596h-26.285v35.926h26.285zM1534.964 4.65c0-1.486 1.18-2.814 2.809-2.814h40.164c17.72 0 32.192 14.047 32.192 31.634 0 13.601-9.011 24.835-21.856 30.005l20.236 37.553c1.028 1.918 0 4.283-2.513 4.283h-11.521c-1.18 0-2.066-.734-2.362-1.326l-19.636-39.176h-22.3v37.69c0 1.486-1.327 2.812-2.81 2.812h-9.594c-1.629 0-2.809-1.326-2.809-2.812V4.65zM1708.496.359c14.918 0 25.7 5.025 35.742 13.749 1.325 1.183 1.325 2.956.145 4.14l-6.498 6.65c-1.037 1.325-2.362 1.325-3.69 0-6.944-6.058-16.392-9.908-25.548-9.908-21.114 0-37.06 17.738-37.06 38.435 0 20.694 16.091 38.287 37.21 38.287 10.777 0 18.312-4.282 25.399-9.756 1.327-1.03 2.652-.885 3.544-.151l6.785 6.655c1.183 1.033.893 2.957-.142 3.987-10.042 9.765-22.743 14.343-35.887 14.343-29.533 0-53.305-23.5-53.305-53.063 0-29.567 23.772-53.368 53.305-53.368M1795.06 4.515c0-1.486 1.327-2.814 2.803-2.814h9.752c1.623 0 2.803 1.328 2.803 2.814v41.24h54.047V4.516c0-1.486 1.18-2.814 2.809-2.814h9.738c1.484 0 2.811 1.328 2.811 2.814v97.85c0 1.485-1.327 2.81-2.811 2.81h-9.738c-1.63 0-2.809-1.325-2.809-2.81V59.65h-54.047v42.714c0 1.486-1.18 2.812-2.803 2.812h-9.752c-1.476 0-2.803-1.326-2.803-2.812V4.514" fill="#282938"/><rect fill="#D06348" x="685.843" y="100.204" width="62.874" height="10.627" rx="1.75"/></g></symbol>
<symbol id="tgc-logo-long-outline-themed" viewBox="0 0 1880 700"><g fill="none" fill-rule="evenodd"><path d="M1065.868 349.996c0 193.302-156.7 350.004-350 350.004-193.297 0-350-156.702-350-350.004C365.868 156.702 522.571 0 715.868 0c193.3 0 350 156.702 350 349.996z" stroke="#D06348"/><path d="M26.876 313.732H2.808c-1.625 0-2.808-1.334-2.808-2.805v-8.277c0-1.486 1.183-2.814 2.808-2.814h63.499c1.62 0 2.8 1.328 2.8 2.814v8.277c0 1.47-1.18 2.805-2.8 2.805H42.234V400.5c0 1.486-1.328 2.812-2.803 2.812h-9.747c-1.475 0-2.808-1.326-2.808-2.812v-86.767M114.61 302.65c0-1.486 1.333-2.814 2.808-2.814h9.747c1.62 0 2.803 1.328 2.803 2.814v41.24h54.044v-41.24c0-1.486 1.183-2.814 2.812-2.814h9.744c1.478 0 2.802 1.328 2.802 2.814v97.85c0 1.485-1.324 2.81-2.802 2.81h-9.744c-1.63 0-2.812-1.325-2.812-2.81v-42.715h-54.044v42.714c0 1.486-1.183 2.812-2.803 2.812h-9.747c-1.475 0-2.808-1.326-2.808-2.812v-97.85M257.58 302.65c0-1.486 1.179-2.814 2.802-2.814h59.064c1.63 0 2.812 1.328 2.812 2.814v8.277c0 1.47-1.183 2.805-2.812 2.805h-46.662v30.159h39.431c1.478 0 2.803 1.331 2.803 2.802v8.28a2.803 2.803 0 01-2.803 2.812h-39.431v31.782h46.662c1.63 0 2.812 1.33 2.812 2.806v8.126c0 1.486-1.183 2.812-2.812 2.812h-59.064c-1.623 0-2.803-1.326-2.803-2.812v-97.85M481.765 298.359c14.175 0 25.838 5.17 35.878 13.749 1.182 1.183 1.333 2.956.15 4.14-2.217 2.364-4.428 4.578-6.648 6.942-1.18 1.335-2.362 1.184-3.838-.15-6.938-6.055-16.094-10.05-25.105-10.05-20.966 0-37.06 17.738-37.06 38.435 0 20.55 16.094 38.287 37.06 38.287 12.26 0 20.674-4.435 22.152-5.024V368.13h-14.471c-1.623 0-2.803-1.18-2.803-2.66v-8.573c0-1.622 1.18-2.806 2.803-2.806h26.876c1.475 0 2.657 1.329 2.657 2.806 0 11.825.151 23.946.151 35.772 0 .737-.591 1.918-1.182 2.364 0 0-15.213 9.757-36.62 9.757-29.389 0-53.16-23.5-53.16-53.063 0-29.567 23.771-53.368 53.16-53.368M575.11 299.836h9.747c1.475 0 2.808 1.328 2.808 2.814v86.917h40.014c1.629 0 2.808 1.33 2.808 2.806v8.126c0 1.486-1.18 2.812-2.808 2.812h-52.57c-1.62 0-2.802-1.326-2.802-2.812v-97.85c0-1.485 1.183-2.813 2.803-2.813z" fill="currentColor"/><path d="M716.118 371.464c16.645 0 30.272-13.52 30.272-30.182 0-16.56-13.627-30.425-30.272-30.425-16.535 0-30.16 13.865-30.16 30.425 0 16.662 13.625 30.182 30.16 30.182zm0-72.26c23.285 0 41.915 18.764 41.915 42.078 0 23.309-18.63 41.839-41.915 41.839-23.288 0-41.802-18.53-41.802-41.839 0-23.314 18.514-42.079 41.802-42.079z" fill="#D06348"/><path d="M858.823 344.775c9.449 0 15.213-6.954 15.213-15.823 0-9.011-5.764-15.22-15.213-15.22H838.89v31.043h19.934zm2.362 44.937c9.011 0 15.947-6.95 15.947-16.107 0-9.02-8.565-15.525-18.158-15.525h-20.236v31.632h22.447zM823.83 302.65c0-1.486 1.18-2.814 2.803-2.814h33.075c17.871 0 30.716 11.825 30.716 27.344 0 11.384-8.414 19.513-15.358 23.508 7.831 3.252 18.462 10.5 18.462 24.098 0 16.557-13.587 28.525-32.191 28.525h-34.704c-1.623 0-2.803-1.326-2.803-2.812v-97.85zM945.23 302.65c0-1.486 1.182-2.814 2.811-2.814h59.064c1.623 0 2.803 1.328 2.803 2.814v8.277c0 1.47-1.18 2.805-2.803 2.805h-46.662v30.159h39.425c1.476 0 2.809 1.331 2.809 2.802v8.28c0 1.628-1.333 2.812-2.809 2.812h-39.425v31.782h46.662c1.623 0 2.803 1.33 2.803 2.806v8.126c0 1.486-1.18 2.812-2.803 2.812h-59.064c-1.629 0-2.811-1.326-2.811-2.812v-97.85M1169.569 298.359c14.909 0 25.693 5.025 35.733 13.749 1.327 1.183 1.327 2.956.145 4.14l-6.498 6.65c-1.03 1.325-2.362 1.325-3.687 0-6.944-6.058-16.396-9.908-25.551-9.908-21.111 0-37.06 17.738-37.06 38.435 0 20.694 16.09 38.287 37.21 38.287 10.78 0 18.312-4.282 25.401-9.756 1.325-1.03 2.658-.885 3.545-.151l6.79 6.655c1.183 1.033.887 2.957-.15 3.987-10.043 9.765-22.74 14.343-35.878 14.343-29.534 0-53.311-23.5-53.311-53.063 0-29.567 23.777-53.368 53.31-53.368M1256.437 302.515c0-1.486 1.328-2.814 2.803-2.814h9.753c1.623 0 2.802 1.328 2.802 2.814v41.24h54.047v-41.24c0-1.486 1.18-2.814 2.809-2.814h9.738c1.484 0 2.811 1.328 2.811 2.814v97.85c0 1.485-1.327 2.81-2.81 2.81h-9.74c-1.628 0-2.808-1.325-2.808-2.81V357.65h-54.047v42.714c0 1.486-1.18 2.812-2.803 2.812h-9.752c-1.475 0-2.803-1.326-2.803-2.812v-97.85M1397.762 302.65c0-1.486 1.334-2.814 2.803-2.814h9.898c1.629 0 2.808 1.328 2.808 2.814v61.047c0 14.782 9.452 26.311 24.508 26.311 15.213 0 24.807-11.384 24.807-26.015V302.65c0-1.486 1.182-2.814 2.808-2.814h9.898c1.47 0 2.802 1.328 2.802 2.814v62.086c0 22.467-16.978 40.054-40.315 40.054-23.18 0-40.017-17.587-40.017-40.054V302.65M1576.758 350.096c9.593 0 18.013-8.132 18.013-18.33 0-9.606-8.42-17.596-18.013-17.596h-26.285v35.926h26.285zm-41.794-47.446c0-1.486 1.18-2.814 2.809-2.814h40.164c17.72 0 32.192 14.047 32.192 31.634 0 13.601-9.011 24.835-21.856 30.005l20.236 37.553c1.028 1.918 0 4.283-2.513 4.283h-11.521c-1.18 0-2.066-.734-2.362-1.326l-19.636-39.176h-22.3v37.69c0 1.486-1.327 2.812-2.81 2.812h-9.594c-1.629 0-2.809-1.326-2.809-2.812v-97.85zM1708.496 298.359c14.918 0 25.7 5.025 35.742 13.749 1.325 1.183 1.325 2.956.145 4.14l-6.498 6.65c-1.037 1.325-2.362 1.325-3.69 0-6.944-6.058-16.392-9.908-25.548-9.908-21.114 0-37.06 17.738-37.06 38.435 0 20.694 16.091 38.287 37.21 38.287 10.777 0 18.312-4.282 25.399-9.756 1.327-1.03 2.652-.885 3.544-.151l6.785 6.655c1.183 1.033.893 2.957-.142 3.987-10.042 9.765-22.743 14.343-35.887 14.343-29.533 0-53.305-23.5-53.305-53.063 0-29.567 23.772-53.368 53.305-53.368M1795.06 302.515c0-1.486 1.327-2.814 2.803-2.814h9.752c1.623 0 2.803 1.328 2.803 2.814v41.24h54.047v-41.24c0-1.486 1.18-2.814 2.809-2.814h9.738c1.484 0 2.811 1.328 2.811 2.814v97.85c0 1.485-1.327 2.81-2.811 2.81h-9.738c-1.63 0-2.809-1.325-2.809-2.81V357.65h-54.047v42.714c0 1.486-1.18 2.812-2.803 2.812h-9.752c-1.476 0-2.803-1.326-2.803-2.812v-97.85" fill="currentColor"/><rect fill="#D06348" x="685.843" y="398.204" width="62.874" height="10.627" rx="1.75"/></g></symbol>
<symbol id="tgc-logo-long-outline" viewBox="0 0 1880 700"><g fill="none" fill-rule="evenodd"><path d="M1065.868 349.996c0 193.302-156.7 350.004-350 350.004-193.297 0-350-156.702-350-350.004C365.868 156.702 522.571 0 715.868 0c193.3 0 350 156.702 350 349.996z" stroke="#D06348"/><path d="M26.876 313.732H2.808c-1.625 0-2.808-1.334-2.808-2.805v-8.277c0-1.486 1.183-2.814 2.808-2.814h63.499c1.62 0 2.8 1.328 2.8 2.814v8.277c0 1.47-1.18 2.805-2.8 2.805H42.234V400.5c0 1.486-1.328 2.812-2.803 2.812h-9.747c-1.475 0-2.808-1.326-2.808-2.812v-86.767M114.61 302.65c0-1.486 1.333-2.814 2.808-2.814h9.747c1.62 0 2.803 1.328 2.803 2.814v41.24h54.044v-41.24c0-1.486 1.183-2.814 2.812-2.814h9.744c1.478 0 2.802 1.328 2.802 2.814v97.85c0 1.485-1.324 2.81-2.802 2.81h-9.744c-1.63 0-2.812-1.325-2.812-2.81v-42.715h-54.044v42.714c0 1.486-1.183 2.812-2.803 2.812h-9.747c-1.475 0-2.808-1.326-2.808-2.812v-97.85M257.58 302.65c0-1.486 1.179-2.814 2.802-2.814h59.064c1.63 0 2.812 1.328 2.812 2.814v8.277c0 1.47-1.183 2.805-2.812 2.805h-46.662v30.159h39.431c1.478 0 2.803 1.331 2.803 2.802v8.28a2.803 2.803 0 01-2.803 2.812h-39.431v31.782h46.662c1.63 0 2.812 1.33 2.812 2.806v8.126c0 1.486-1.183 2.812-2.812 2.812h-59.064c-1.623 0-2.803-1.326-2.803-2.812v-97.85" fill="#282938"/><path d="M481.765 298.359c14.175 0 25.838 5.17 35.878 13.749 1.182 1.183 1.333 2.956.15 4.14-2.217 2.364-4.428 4.578-6.648 6.942-1.18 1.335-2.362 1.184-3.838-.15-6.938-6.055-16.094-10.05-25.105-10.05-20.966 0-37.06 17.738-37.06 38.435 0 20.55 16.094 38.287 37.06 38.287 12.26 0 20.674-4.435 22.152-5.024V368.13h-14.471c-1.623 0-2.803-1.18-2.803-2.66v-8.573c0-1.622 1.18-2.806 2.803-2.806h26.876c1.475 0 2.657 1.329 2.657 2.806 0 11.825.151 23.946.151 35.772 0 .737-.591 1.918-1.182 2.364 0 0-15.213 9.757-36.62 9.757-29.389 0-53.16-23.5-53.16-53.063 0-29.567 23.771-53.368 53.16-53.368M575.11 299.836h9.747c1.475 0 2.808 1.328 2.808 2.814v86.917h40.014c1.629 0 2.808 1.33 2.808 2.806v8.126c0 1.486-1.18 2.812-2.808 2.812h-52.57c-1.62 0-2.802-1.326-2.802-2.812v-97.85c0-1.485 1.183-2.813 2.803-2.813z" fill="#292A38"/><path d="M716.118 371.464c16.645 0 30.272-13.52 30.272-30.182 0-16.56-13.627-30.425-30.272-30.425-16.535 0-30.16 13.865-30.16 30.425 0 16.662 13.625 30.182 30.16 30.182zm0-72.26c23.285 0 41.915 18.764 41.915 42.078 0 23.309-18.63 41.839-41.915 41.839-23.288 0-41.802-18.53-41.802-41.839 0-23.314 18.514-42.079 41.802-42.079z" fill="#D06348"/><path d="M858.823 344.775c9.449 0 15.213-6.954 15.213-15.823 0-9.011-5.764-15.22-15.213-15.22H838.89v31.043h19.934zm2.362 44.937c9.011 0 15.947-6.95 15.947-16.107 0-9.02-8.565-15.525-18.158-15.525h-20.236v31.632h22.447zM823.83 302.65c0-1.486 1.18-2.814 2.803-2.814h33.075c17.871 0 30.716 11.825 30.716 27.344 0 11.384-8.414 19.513-15.358 23.508 7.831 3.252 18.462 10.5 18.462 24.098 0 16.557-13.587 28.525-32.191 28.525h-34.704c-1.623 0-2.803-1.326-2.803-2.812v-97.85zM945.23 302.65c0-1.486 1.182-2.814 2.811-2.814h59.064c1.623 0 2.803 1.328 2.803 2.814v8.277c0 1.47-1.18 2.805-2.803 2.805h-46.662v30.159h39.425c1.476 0 2.809 1.331 2.809 2.802v8.28c0 1.628-1.333 2.812-2.809 2.812h-39.425v31.782h46.662c1.623 0 2.803 1.33 2.803 2.806v8.126c0 1.486-1.18 2.812-2.803 2.812h-59.064c-1.629 0-2.811-1.326-2.811-2.812v-97.85" fill="#292A38"/><path d="M1169.569 298.359c14.909 0 25.693 5.025 35.733 13.749 1.327 1.183 1.327 2.956.145 4.14l-6.498 6.65c-1.03 1.325-2.362 1.325-3.687 0-6.944-6.058-16.396-9.908-25.551-9.908-21.111 0-37.06 17.738-37.06 38.435 0 20.694 16.09 38.287 37.21 38.287 10.78 0 18.312-4.282 25.401-9.756 1.325-1.03 2.658-.885 3.545-.151l6.79 6.655c1.183 1.033.887 2.957-.15 3.987-10.043 9.765-22.74 14.343-35.878 14.343-29.534 0-53.311-23.5-53.311-53.063 0-29.567 23.777-53.368 53.31-53.368M1256.437 302.515c0-1.486 1.328-2.814 2.803-2.814h9.753c1.623 0 2.802 1.328 2.802 2.814v41.24h54.047v-41.24c0-1.486 1.18-2.814 2.809-2.814h9.738c1.484 0 2.811 1.328 2.811 2.814v97.85c0 1.485-1.327 2.81-2.81 2.81h-9.74c-1.628 0-2.808-1.325-2.808-2.81V357.65h-54.047v42.714c0 1.486-1.18 2.812-2.803 2.812h-9.752c-1.475 0-2.803-1.326-2.803-2.812v-97.85M1397.762 302.65c0-1.486 1.334-2.814 2.803-2.814h9.898c1.629 0 2.808 1.328 2.808 2.814v61.047c0 14.782 9.452 26.311 24.508 26.311 15.213 0 24.807-11.384 24.807-26.015V302.65c0-1.486 1.182-2.814 2.808-2.814h9.898c1.47 0 2.802 1.328 2.802 2.814v62.086c0 22.467-16.978 40.054-40.315 40.054-23.18 0-40.017-17.587-40.017-40.054V302.65M1576.758 350.096c9.593 0 18.013-8.132 18.013-18.33 0-9.606-8.42-17.596-18.013-17.596h-26.285v35.926h26.285zm-41.794-47.446c0-1.486 1.18-2.814 2.809-2.814h40.164c17.72 0 32.192 14.047 32.192 31.634 0 13.601-9.011 24.835-21.856 30.005l20.236 37.553c1.028 1.918 0 4.283-2.513 4.283h-11.521c-1.18 0-2.066-.734-2.362-1.326l-19.636-39.176h-22.3v37.69c0 1.486-1.327 2.812-2.81 2.812h-9.594c-1.629 0-2.809-1.326-2.809-2.812v-97.85zM1708.496 298.359c14.918 0 25.7 5.025 35.742 13.749 1.325 1.183 1.325 2.956.145 4.14l-6.498 6.65c-1.037 1.325-2.362 1.325-3.69 0-6.944-6.058-16.392-9.908-25.548-9.908-21.114 0-37.06 17.738-37.06 38.435 0 20.694 16.091 38.287 37.21 38.287 10.777 0 18.312-4.282 25.399-9.756 1.327-1.03 2.652-.885 3.544-.151l6.785 6.655c1.183 1.033.893 2.957-.142 3.987-10.042 9.765-22.743 14.343-35.887 14.343-29.533 0-53.305-23.5-53.305-53.063 0-29.567 23.772-53.368 53.305-53.368M1795.06 302.515c0-1.486 1.327-2.814 2.803-2.814h9.752c1.623 0 2.803 1.328 2.803 2.814v41.24h54.047v-41.24c0-1.486 1.18-2.814 2.809-2.814h9.738c1.484 0 2.811 1.328 2.811 2.814v97.85c0 1.485-1.327 2.81-2.811 2.81h-9.738c-1.63 0-2.809-1.325-2.809-2.81V357.65h-54.047v42.714c0 1.486-1.18 2.812-2.803 2.812h-9.752c-1.476 0-2.803-1.326-2.803-2.812v-97.85" fill="#282938"/><rect fill="#D06348" x="685.843" y="398.204" width="62.874" height="10.627" rx="1.75"/></g></symbol>
<symbol id="tgc-logo-long-themed" viewBox="0 0 1880 700"><g fill="none" fill-rule="evenodd"><path d="M1065.868 349.996c0 193.302-156.7 350.004-350 350.004-193.297 0-350-156.702-350-350.004C365.868 156.702 522.571 0 715.868 0c193.3 0 350 156.702 350 349.996z" fill="#D06348"/><path d="M26.876 313.732H2.808c-1.625 0-2.808-1.334-2.808-2.805v-8.277c0-1.486 1.183-2.814 2.808-2.814h63.499c1.62 0 2.8 1.328 2.8 2.814v8.277c0 1.47-1.18 2.805-2.8 2.805H42.234V400.5c0 1.486-1.328 2.812-2.803 2.812h-9.747c-1.475 0-2.808-1.326-2.808-2.812v-86.767M114.61 302.65c0-1.486 1.333-2.814 2.808-2.814h9.747c1.62 0 2.803 1.328 2.803 2.814v41.24h54.044v-41.24c0-1.486 1.183-2.814 2.812-2.814h9.744c1.478 0 2.802 1.328 2.802 2.814v97.85c0 1.485-1.324 2.81-2.802 2.81h-9.744c-1.63 0-2.812-1.325-2.812-2.81v-42.715h-54.044v42.714c0 1.486-1.183 2.812-2.803 2.812h-9.747c-1.475 0-2.808-1.326-2.808-2.812v-97.85M257.58 302.65c0-1.486 1.179-2.814 2.802-2.814h59.064c1.63 0 2.812 1.328 2.812 2.814v8.277c0 1.47-1.183 2.805-2.812 2.805h-46.662v30.159h39.431c1.478 0 2.803 1.331 2.803 2.802v8.28a2.803 2.803 0 01-2.803 2.812h-39.431v31.782h46.662c1.63 0 2.812 1.33 2.812 2.806v8.126c0 1.486-1.183 2.812-2.812 2.812h-59.064c-1.623 0-2.803-1.326-2.803-2.812v-97.85M481.765 298.359c14.175 0 25.838 5.17 35.878 13.749 1.182 1.183 1.333 2.956.15 4.14-2.217 2.364-4.428 4.578-6.648 6.942-1.18 1.335-2.362 1.184-3.838-.15-6.938-6.055-16.094-10.05-25.105-10.05-20.966 0-37.06 17.738-37.06 38.435 0 20.55 16.094 38.287 37.06 38.287 12.26 0 20.674-4.435 22.152-5.024V368.13h-14.471c-1.623 0-2.803-1.18-2.803-2.66v-8.573c0-1.622 1.18-2.806 2.803-2.806h26.876c1.475 0 2.657 1.329 2.657 2.806 0 11.825.151 23.946.151 35.772 0 .737-.591 1.918-1.182 2.364 0 0-15.213 9.757-36.62 9.757-29.389 0-53.16-23.5-53.16-53.063 0-29.567 23.771-53.368 53.16-53.368M575.11 299.836h9.747c1.475 0 2.808 1.328 2.808 2.814v86.917h40.014c1.629 0 2.808 1.33 2.808 2.806v8.126c0 1.486-1.18 2.812-2.808 2.812h-52.57c-1.62 0-2.802-1.326-2.802-2.812v-97.85c0-1.485 1.183-2.813 2.803-2.813zM716.118 371.464c16.645 0 30.272-13.52 30.272-30.182 0-16.56-13.627-30.425-30.272-30.425-16.535 0-30.16 13.865-30.16 30.425 0 16.662 13.625 30.182 30.16 30.182zm0-72.26c23.285 0 41.915 18.764 41.915 42.078 0 23.309-18.63 41.839-41.915 41.839-23.288 0-41.802-18.53-41.802-41.839 0-23.314 18.514-42.079 41.802-42.079zM858.823 344.775c9.449 0 15.213-6.954 15.213-15.823 0-9.011-5.764-15.22-15.213-15.22H838.89v31.043h19.934zm2.362 44.937c9.011 0 15.947-6.95 15.947-16.107 0-9.02-8.565-15.525-18.158-15.525h-20.236v31.632h22.447zM823.83 302.65c0-1.486 1.18-2.814 2.803-2.814h33.075c17.871 0 30.716 11.825 30.716 27.344 0 11.384-8.414 19.513-15.358 23.508 7.831 3.252 18.462 10.5 18.462 24.098 0 16.557-13.587 28.525-32.191 28.525h-34.704c-1.623 0-2.803-1.326-2.803-2.812v-97.85zM945.23 302.65c0-1.486 1.182-2.814 2.811-2.814h59.064c1.623 0 2.803 1.328 2.803 2.814v8.277c0 1.47-1.18 2.805-2.803 2.805h-46.662v30.159h39.425c1.476 0 2.809 1.331 2.809 2.802v8.28c0 1.628-1.333 2.812-2.809 2.812h-39.425v31.782h46.662c1.623 0 2.803 1.33 2.803 2.806v8.126c0 1.486-1.18 2.812-2.803 2.812h-59.064c-1.629 0-2.811-1.326-2.811-2.812v-97.85M1169.569 298.359c14.909 0 25.693 5.025 35.733 13.749 1.327 1.183 1.327 2.956.145 4.14l-6.498 6.65c-1.03 1.325-2.362 1.325-3.687 0-6.944-6.058-16.396-9.908-25.551-9.908-21.111 0-37.06 17.738-37.06 38.435 0 20.694 16.09 38.287 37.21 38.287 10.78 0 18.312-4.282 25.401-9.756 1.325-1.03 2.658-.885 3.545-.151l6.79 6.655c1.183 1.033.887 2.957-.15 3.987-10.043 9.765-22.74 14.343-35.878 14.343-29.534 0-53.311-23.5-53.311-53.063 0-29.567 23.777-53.368 53.31-53.368M1256.437 302.515c0-1.486 1.328-2.814 2.803-2.814h9.753c1.623 0 2.802 1.328 2.802 2.814v41.24h54.047v-41.24c0-1.486 1.18-2.814 2.809-2.814h9.738c1.484 0 2.811 1.328 2.811 2.814v97.85c0 1.485-1.327 2.81-2.81 2.81h-9.74c-1.628 0-2.808-1.325-2.808-2.81V357.65h-54.047v42.714c0 1.486-1.18 2.812-2.803 2.812h-9.752c-1.475 0-2.803-1.326-2.803-2.812v-97.85M1397.762 302.65c0-1.486 1.334-2.814 2.803-2.814h9.898c1.629 0 2.808 1.328 2.808 2.814v61.047c0 14.782 9.452 26.311 24.508 26.311 15.213 0 24.807-11.384 24.807-26.015V302.65c0-1.486 1.182-2.814 2.808-2.814h9.898c1.47 0 2.802 1.328 2.802 2.814v62.086c0 22.467-16.978 40.054-40.315 40.054-23.18 0-40.017-17.587-40.017-40.054V302.65M1576.758 350.096c9.593 0 18.013-8.132 18.013-18.33 0-9.606-8.42-17.596-18.013-17.596h-26.285v35.926h26.285zm-41.794-47.446c0-1.486 1.18-2.814 2.809-2.814h40.164c17.72 0 32.192 14.047 32.192 31.634 0 13.601-9.011 24.835-21.856 30.005l20.236 37.553c1.028 1.918 0 4.283-2.513 4.283h-11.521c-1.18 0-2.066-.734-2.362-1.326l-19.636-39.176h-22.3v37.69c0 1.486-1.327 2.812-2.81 2.812h-9.594c-1.629 0-2.809-1.326-2.809-2.812v-97.85zM1708.496 298.359c14.918 0 25.7 5.025 35.742 13.749 1.325 1.183 1.325 2.956.145 4.14l-6.498 6.65c-1.037 1.325-2.362 1.325-3.69 0-6.944-6.058-16.392-9.908-25.548-9.908-21.114 0-37.06 17.738-37.06 38.435 0 20.694 16.091 38.287 37.21 38.287 10.777 0 18.312-4.282 25.399-9.756 1.327-1.03 2.652-.885 3.544-.151l6.785 6.655c1.183 1.033.893 2.957-.142 3.987-10.042 9.765-22.743 14.343-35.887 14.343-29.533 0-53.305-23.5-53.305-53.063 0-29.567 23.772-53.368 53.305-53.368M1795.06 302.515c0-1.486 1.327-2.814 2.803-2.814h9.752c1.623 0 2.803 1.328 2.803 2.814v41.24h54.047v-41.24c0-1.486 1.18-2.814 2.809-2.814h9.738c1.484 0 2.811 1.328 2.811 2.814v97.85c0 1.485-1.327 2.81-2.811 2.81h-9.738c-1.63 0-2.809-1.325-2.809-2.81V357.65h-54.047v42.714c0 1.486-1.18 2.812-2.803 2.812h-9.752c-1.476 0-2.803-1.326-2.803-2.812v-97.85" fill="currentColor"/><rect fill="currentColor" x="685.843" y="398.204" width="62.874" height="10.627" rx="1.75"/></g></symbol>
<symbol id="tgc-logo-long" viewBox="0 0 1880 700"><g fill="none" fill-rule="evenodd"><path d="M1065.868 349.996c0 193.302-156.7 350.004-350 350.004-193.297 0-350-156.702-350-350.004C365.868 156.702 522.571 0 715.868 0c193.3 0 350 156.702 350 349.996z" fill="#D06348"/><path d="M26.876 313.732H2.808c-1.625 0-2.808-1.334-2.808-2.805v-8.277c0-1.486 1.183-2.814 2.808-2.814h63.499c1.62 0 2.8 1.328 2.8 2.814v8.277c0 1.47-1.18 2.805-2.8 2.805H42.234V400.5c0 1.486-1.328 2.812-2.803 2.812h-9.747c-1.475 0-2.808-1.326-2.808-2.812v-86.767M114.61 302.65c0-1.486 1.333-2.814 2.808-2.814h9.747c1.62 0 2.803 1.328 2.803 2.814v41.24h54.044v-41.24c0-1.486 1.183-2.814 2.812-2.814h9.744c1.478 0 2.802 1.328 2.802 2.814v97.85c0 1.485-1.324 2.81-2.802 2.81h-9.744c-1.63 0-2.812-1.325-2.812-2.81v-42.715h-54.044v42.714c0 1.486-1.183 2.812-2.803 2.812h-9.747c-1.475 0-2.808-1.326-2.808-2.812v-97.85M257.58 302.65c0-1.486 1.179-2.814 2.802-2.814h59.064c1.63 0 2.812 1.328 2.812 2.814v8.277c0 1.47-1.183 2.805-2.812 2.805h-46.662v30.159h39.431c1.478 0 2.803 1.331 2.803 2.802v8.28a2.803 2.803 0 01-2.803 2.812h-39.431v31.782h46.662c1.63 0 2.812 1.33 2.812 2.806v8.126c0 1.486-1.183 2.812-2.812 2.812h-59.064c-1.623 0-2.803-1.326-2.803-2.812v-97.85" fill="#282938"/><path d="M481.765 298.359c14.175 0 25.838 5.17 35.878 13.749 1.182 1.183 1.333 2.956.15 4.14-2.217 2.364-4.428 4.578-6.648 6.942-1.18 1.335-2.362 1.184-3.838-.15-6.938-6.055-16.094-10.05-25.105-10.05-20.966 0-37.06 17.738-37.06 38.435 0 20.55 16.094 38.287 37.06 38.287 12.26 0 20.674-4.435 22.152-5.024V368.13h-14.471c-1.623 0-2.803-1.18-2.803-2.66v-8.573c0-1.622 1.18-2.806 2.803-2.806h26.876c1.475 0 2.657 1.329 2.657 2.806 0 11.825.151 23.946.151 35.772 0 .737-.591 1.918-1.182 2.364 0 0-15.213 9.757-36.62 9.757-29.389 0-53.16-23.5-53.16-53.063 0-29.567 23.771-53.368 53.16-53.368M575.11 299.836h9.747c1.475 0 2.808 1.328 2.808 2.814v86.917h40.014c1.629 0 2.808 1.33 2.808 2.806v8.126c0 1.486-1.18 2.812-2.808 2.812h-52.57c-1.62 0-2.802-1.326-2.802-2.812v-97.85c0-1.485 1.183-2.813 2.803-2.813zM716.118 371.464c16.645 0 30.272-13.52 30.272-30.182 0-16.56-13.627-30.425-30.272-30.425-16.535 0-30.16 13.865-30.16 30.425 0 16.662 13.625 30.182 30.16 30.182zm0-72.26c23.285 0 41.915 18.764 41.915 42.078 0 23.309-18.63 41.839-41.915 41.839-23.288 0-41.802-18.53-41.802-41.839 0-23.314 18.514-42.079 41.802-42.079zM858.823 344.775c9.449 0 15.213-6.954 15.213-15.823 0-9.011-5.764-15.22-15.213-15.22H838.89v31.043h19.934zm2.362 44.937c9.011 0 15.947-6.95 15.947-16.107 0-9.02-8.565-15.525-18.158-15.525h-20.236v31.632h22.447zM823.83 302.65c0-1.486 1.18-2.814 2.803-2.814h33.075c17.871 0 30.716 11.825 30.716 27.344 0 11.384-8.414 19.513-15.358 23.508 7.831 3.252 18.462 10.5 18.462 24.098 0 16.557-13.587 28.525-32.191 28.525h-34.704c-1.623 0-2.803-1.326-2.803-2.812v-97.85zM945.23 302.65c0-1.486 1.182-2.814 2.811-2.814h59.064c1.623 0 2.803 1.328 2.803 2.814v8.277c0 1.47-1.18 2.805-2.803 2.805h-46.662v30.159h39.425c1.476 0 2.809 1.331 2.809 2.802v8.28c0 1.628-1.333 2.812-2.809 2.812h-39.425v31.782h46.662c1.623 0 2.803 1.33 2.803 2.806v8.126c0 1.486-1.18 2.812-2.803 2.812h-59.064c-1.629 0-2.811-1.326-2.811-2.812v-97.85" fill="#FFF"/><path d="M1169.569 298.359c14.909 0 25.693 5.025 35.733 13.749 1.327 1.183 1.327 2.956.145 4.14l-6.498 6.65c-1.03 1.325-2.362 1.325-3.687 0-6.944-6.058-16.396-9.908-25.551-9.908-21.111 0-37.06 17.738-37.06 38.435 0 20.694 16.09 38.287 37.21 38.287 10.78 0 18.312-4.282 25.401-9.756 1.325-1.03 2.658-.885 3.545-.151l6.79 6.655c1.183 1.033.887 2.957-.15 3.987-10.043 9.765-22.74 14.343-35.878 14.343-29.534 0-53.311-23.5-53.311-53.063 0-29.567 23.777-53.368 53.31-53.368M1256.437 302.515c0-1.486 1.328-2.814 2.803-2.814h9.753c1.623 0 2.802 1.328 2.802 2.814v41.24h54.047v-41.24c0-1.486 1.18-2.814 2.809-2.814h9.738c1.484 0 2.811 1.328 2.811 2.814v97.85c0 1.485-1.327 2.81-2.81 2.81h-9.74c-1.628 0-2.808-1.325-2.808-2.81V357.65h-54.047v42.714c0 1.486-1.18 2.812-2.803 2.812h-9.752c-1.475 0-2.803-1.326-2.803-2.812v-97.85M1397.762 302.65c0-1.486 1.334-2.814 2.803-2.814h9.898c1.629 0 2.808 1.328 2.808 2.814v61.047c0 14.782 9.452 26.311 24.508 26.311 15.213 0 24.807-11.384 24.807-26.015V302.65c0-1.486 1.182-2.814 2.808-2.814h9.898c1.47 0 2.802 1.328 2.802 2.814v62.086c0 22.467-16.978 40.054-40.315 40.054-23.18 0-40.017-17.587-40.017-40.054V302.65M1576.758 350.096c9.593 0 18.013-8.132 18.013-18.33 0-9.606-8.42-17.596-18.013-17.596h-26.285v35.926h26.285zm-41.794-47.446c0-1.486 1.18-2.814 2.809-2.814h40.164c17.72 0 32.192 14.047 32.192 31.634 0 13.601-9.011 24.835-21.856 30.005l20.236 37.553c1.028 1.918 0 4.283-2.513 4.283h-11.521c-1.18 0-2.066-.734-2.362-1.326l-19.636-39.176h-22.3v37.69c0 1.486-1.327 2.812-2.81 2.812h-9.594c-1.629 0-2.809-1.326-2.809-2.812v-97.85zM1708.496 298.359c14.918 0 25.7 5.025 35.742 13.749 1.325 1.183 1.325 2.956.145 4.14l-6.498 6.65c-1.037 1.325-2.362 1.325-3.69 0-6.944-6.058-16.392-9.908-25.548-9.908-21.114 0-37.06 17.738-37.06 38.435 0 20.694 16.091 38.287 37.21 38.287 10.777 0 18.312-4.282 25.399-9.756 1.327-1.03 2.652-.885 3.544-.151l6.785 6.655c1.183 1.033.893 2.957-.142 3.987-10.042 9.765-22.743 14.343-35.887 14.343-29.533 0-53.305-23.5-53.305-53.063 0-29.567 23.772-53.368 53.305-53.368M1795.06 302.515c0-1.486 1.327-2.814 2.803-2.814h9.752c1.623 0 2.803 1.328 2.803 2.814v41.24h54.047v-41.24c0-1.486 1.18-2.814 2.809-2.814h9.738c1.484 0 2.811 1.328 2.811 2.814v97.85c0 1.485-1.327 2.81-2.811 2.81h-9.738c-1.63 0-2.809-1.325-2.809-2.81V357.65h-54.047v42.714c0 1.486-1.18 2.812-2.803 2.812h-9.752c-1.476 0-2.803-1.326-2.803-2.812v-97.85" fill="#282938"/><rect fill="#FFF" x="685.843" y="398.204" width="62.874" height="10.627" rx="1.75"/></g></symbol>
<symbol id="twitter" viewBox="0 0 100 100"><path d="M32.363 87.435c34.863 0 53.928-28.9 53.928-53.963 0-.82-.017-1.638-.054-2.451a38.559 38.559 0 009.455-9.821 37.775 37.775 0 01-10.885 2.986 19.032 19.032 0 008.335-10.49 37.997 37.997 0 01-12.036 4.603 18.926 18.926 0 00-13.835-5.992c-10.466 0-18.954 8.494-18.954 18.963 0 1.489.166 2.936.491 4.325-15.752-.793-29.72-8.34-39.069-19.816a18.925 18.925 0 00-2.566 9.533c0 6.58 3.346 12.389 8.434 15.787-3.11-.096-6.03-.95-8.584-2.372-.003.08-.003.157-.003.242 0 9.185 6.534 16.854 15.206 18.592a18.966 18.966 0 01-8.56.325c2.413 7.536 9.41 13.02 17.706 13.173a38.007 38.007 0 01-23.54 8.118 38.47 38.47 0 01-4.522-.262 53.625 53.625 0 0029.054 8.52" fill-rule="nonzero" fill="currentColor"/></symbol>
</svg>