<svg xmlns="http://www.w3.org/2000/svg" class="s-svg-icon">
    <symbol id="admin-close-menu" viewBox="0 0 100 100">
      <title>Close menu</title><g fill-rule="nonzero" fill="currentColor"><path d="M21.678 4l17.677 17.678-17.677 17.678L4 21.678zM77.678 5l17.677 17.678-17.677 17.678L60 22.678zM50.5 32.822L68.178 50.5 50.5 68.178 32.822 50.5zM22.678 60l17.677 17.678-17.677 17.678L5 77.678zM77.678 60l17.677 17.678-17.677 17.678L60 77.678z"/></g>
    </symbol>
    <symbol id="admin-menu" viewBox="0 0 100 100">
      <title>Menu</title><g fill-rule="nonzero" fill="currentColor"><path d="M0 0h25v25H0zM38 0h25v25H38zM75 0h25v25H75zM0 38h25v25H0zM38 38h25v25H38zM75 38h25v25H75zM0 75h25v25H0zM38 75h25v25H38zM75 75h25v25H75z"/></g>
    </symbol>
    <symbol id="bible" viewBox="0 0 14 17">
      <title>bible</title><path d="M12.587 2.157v13.475H2.545c-.633 0-1.25-.34-1.25-1.342h10.043V.815H6.324v10.79L4.442 9.581 2.56 11.604V.814h-.633C.045.815.045.815.045 2.838V14.29c0 2.022 1.566 2.701 3.132 2.701h10.66V3.516l-1.25-1.359z" fill="currentColor" fill-rule="evenodd"/>
    </symbol>
    <symbol id="comission-themed" viewBox="0 0 426 53">
      <title>Co:Mission</title><g fill="currentColor" fill-rule="evenodd"><path d="M27.414 52.862C11.074 52.862 0 41.857 0 27.021c0-14.904 11.074-25.91 27.414-25.91 5.811 0 11.144 1.707 15.655 4.376l-3.555 9.844c-3.692-2.051-7.862-3.349-11.964-3.349-9.365 0-15.176 5.743-15.176 15.039s5.811 15.043 15.176 15.043c4.102 0 8.751-1.371 12.512-3.695l3.486 9.847c-4.376 2.87-10.392 4.646-16.134 4.646M71.035 11.502c-7.931 0-13.263 6.495-13.263 15.519 0 8.955 5.332 15.519 13.263 15.519 7.929 0 13.262-6.564 13.262-15.519 0-9.024-5.333-15.519-13.262-15.519zm-.206 41.36c-15.519 0-25.431-11.143-25.431-25.841 0-14.767 10.391-25.91 25.91-25.91 15.45 0 25.431 11.143 25.431 25.91 0 14.698-10.46 25.841-25.91 25.841zM101.668 38.78h17.571v-7.178h-17.571zM166.617 52.042l-.616-24.609L152.123 45h-1.229l-14.016-17.567-.479 24.609h-11.211l2.324-50.453 1.573-.136 22.696 28.644 22.151-28.644 1.572.136 2.393 50.453h-11.28M186.451 52.042h11.622V1.931h-11.622zM220.43 52.862c-5.674 0-12.51-2.255-16.886-5.127l3.215-10.527c4.031 2.939 9.295 4.856 14.014 4.856 4.101 0 5.675-1.917 5.675-4.378 0-2.597-1.301-4.374-8.958-7.452-8.817-3.555-11.894-8.681-11.894-14.699 0-7.314 5.948-14.424 17.636-14.424 5.47 0 11.077 1.913 14.016 3.897l-2.939 10.391c-2.87-1.982-7.52-4.1-11.077-4.1-4.238 0-5.945 1.981-5.945 4.032 0 3.281 2.529 4.376 8.817 7.041 9.366 3.965 12.17 8.478 12.17 14.903 0 8-5.813 15.587-17.844 15.587M257.488 52.862c-5.674 0-12.51-2.255-16.886-5.127l3.215-10.527c4.032 2.939 9.295 4.856 14.014 4.856 4.1 0 5.673-1.917 5.673-4.378 0-2.597-1.299-4.374-8.956-7.452-8.817-3.555-11.894-8.681-11.894-14.699 0-7.314 5.947-14.424 17.636-14.424 5.47 0 11.079 1.913 14.014 3.897l-2.935 10.391c-2.873-1.982-7.523-4.1-11.079-4.1-4.237 0-5.946 1.981-5.946 4.032 0 3.281 2.53 4.376 8.818 7.041 9.368 3.965 12.171 8.478 12.171 14.903 0 8-5.812 15.587-17.845 15.587M281.762 52.042h11.621V1.931h-11.621zM326.542 11.502c-7.928 0-13.262 6.495-13.262 15.519 0 8.955 5.334 15.519 13.262 15.519 7.931 0 13.264-6.564 13.264-15.519 0-9.024-5.333-15.519-13.264-15.519zm-.203 41.36c-15.52 0-25.432-11.143-25.432-25.841 0-14.767 10.391-25.91 25.91-25.91 15.45 0 25.432 11.143 25.432 25.91 0 14.698-10.459 25.841-25.91 25.841zM401.272 53l-30.216-27.141v26.183h-11.623V1.247l1.573-.272 29.807 26.936V1.931h11.623v50.862l-1.164.207M409.971 27.087a7.613 7.613 0 1 1 7.612 7.612 7.612 7.612 0 0 1-7.612-7.612M409.971 9.544a7.612 7.612 0 0 1 7.612-7.611 7.613 7.613 0 0 1 7.614 7.611 7.616 7.616 0 0 1-7.614 7.616 7.615 7.615 0 0 1-7.612-7.616M409.971 44.627a7.613 7.613 0 1 1 15.227.001 7.613 7.613 0 0 1-15.227-.001"/></g>
    </symbol>
    <symbol id="download" viewBox="0 0 34 32">
      <title>download</title><path d="M17.468 21.758a1.568 1.568 0 0 1-.024 0 1.432 1.432 0 0 1-1.028-.426l-4.727-4.73a1.428 1.428 0 0 1 0-2.034 1.426 1.426 0 0 1 2.032 0l2.317 2.318V1.419c0-.804.614-1.419 1.418-1.419.803 0 1.418.615 1.418 1.419v15.467l2.316-2.318a1.426 1.426 0 0 1 2.033 0 1.428 1.428 0 0 1 0 2.034l-4.727 4.73a1.432 1.432 0 0 1-1.028.426zM28.469 2.994A16.446 16.446 0 0 1 34 15.339c0 9.129-7.421 16.555-16.544 16.555C8.333 31.894.91 24.468.91 15.339c0-4.92 2.128-9.318 5.531-12.345.236-.237.614-.426.993-.426.803 0 1.418.615 1.418 1.419 0 .426-.19.851-.52 1.088a13.827 13.827 0 0 0-4.585 10.264c0 7.568 6.145 13.717 13.708 13.717 7.563 0 13.708-6.15 13.708-13.717 0-4.068-1.75-7.757-4.585-10.264-.331-.237-.52-.662-.52-1.088 0-.804.614-1.419 1.418-1.419.378 0 .756.142.992.426z" fill="currentColor" fill-rule="evenodd"/>
    </symbol>
    <symbol id="facebook" viewBox="0 0 100 100">
      <title>Facebook</title><path d="M57.685 97V54.122h14.392l2.155-16.71H57.685V26.743c0-4.838 1.344-8.135 8.281-8.135l8.849-.004V3.66C73.285 3.455 68.032 3 61.921 3c-12.758 0-21.492 7.787-21.492 22.088v12.324H26v16.71h14.429V97h17.256z" fill-rule="nonzero" fill="currentColor"/>
    </symbol>
    <symbol id="fiec-themed" viewBox="0 0 413 75">
      <title>FIEC</title><g fill-rule="nonzero" fill="currentColor"><path d="M1.283 46.445c.882.294 1.732.54 2.553.735.82.196 1.806.294 2.958.294 2.473 0 4.323-.539 5.548-1.617 1.225-1.078 1.838-2.486 1.838-4.226 0-.514-.061-.998-.184-1.451a3.977 3.977 0 0 0-.643-1.305c-.307-.416-.724-.814-1.25-1.194a17.286 17.286 0 0 0-1.966-1.194 32.056 32.056 0 0 1-2.315-1.305 8.267 8.267 0 0 1-1.764-1.451 5.735 5.735 0 0 1-1.122-1.801c-.256-.661-.385-1.445-.385-2.352 0-1.029.215-1.971.643-2.83a6.587 6.587 0 0 1 1.82-2.222c.783-.625 1.727-1.114 2.829-1.47 1.102-.355 2.34-.533 3.711-.533 1.298 0 2.419.104 3.362.311.943.21 1.746.449 2.407.718-.073.392-.19.796-.35 1.212-.159.418-.336.773-.532 1.066-.564-.294-1.274-.55-2.131-.772-.858-.22-1.715-.33-2.572-.33-2.058 0-3.65.38-4.777 1.14-1.128.759-1.69 1.873-1.69 3.343 0 .54.067 1.03.202 1.47.134.441.36.858.68 1.25.317.391.728.765 1.23 1.12a15.37 15.37 0 0 0 1.82 1.084c.954.515 1.793 1.01 2.515 1.487.723.479 1.323.988 1.802 1.527a5.658 5.658 0 0 1 1.083 1.8c.245.661.368 1.408.368 2.241 0 1.397-.264 2.635-.79 3.712a7.847 7.847 0 0 1-2.169 2.72c-.918.734-2 1.285-3.25 1.652-1.25.368-2.586.552-4.006.552-1.544 0-2.824-.105-3.84-.312-1.018-.209-1.893-.447-2.628-.717.098-.368.232-.765.405-1.194.17-.429.367-.814.587-1.158h.003zm23.7-23.481c.171-.024.386-.043.644-.055.257-.011.497-.019.717-.019.244 0 .465.007.662.019.195.012.379.031.55.055l-2.792 15.948c-.123.735-.22 1.433-.294 2.094-.074.662-.11 1.262-.11 1.802 0 1.69.378 2.877 1.138 3.563.759.687 2.033 1.03 3.822 1.03 1.2 0 2.223-.19 3.068-.57a5.79 5.79 0 0 0 2.15-1.654c.588-.722 1.066-1.61 1.434-2.664.367-1.053.672-2.253.918-3.601l2.792-15.948c.171-.024.368-.043.588-.055a12.759 12.759 0 0 1 1.378 0c.233.012.435.031.607.055l-2.94 16.683c-.294 1.642-.704 3.092-1.23 4.355-.528 1.261-1.207 2.327-2.04 3.196a8.015 8.015 0 0 1-3.013 1.967c-1.176.44-2.561.661-4.153.661-4.777 0-7.166-2.352-7.166-7.055 0-.539.036-1.103.11-1.69.073-.588.17-1.2.294-1.838l2.867-16.28zM48.796 36.56c.465.073.882.116 1.25.129.367.012.783.018 1.249.018 2.547 0 4.525-.582 5.934-1.746 1.409-1.163 2.113-2.958 2.113-5.383 0-1.788-.49-3.037-1.47-3.748-.98-.71-2.535-1.065-4.666-1.065-.417 0-.852.018-1.305.054-.454.037-.815.08-1.084.13l-2.021 11.61zm-.184-13.597c.245-.024.582-.067 1.01-.128A20.8 20.8 0 0 1 51 22.689l1.452-.11c.478-.037.9-.056 1.268-.056 1.2 0 2.315.123 3.343.368 1.03.245 1.911.63 2.646 1.157a5.492 5.492 0 0 1 1.727 2.04c.416.833.625 1.85.625 3.05 0 1.74-.294 3.233-.882 4.482-.588 1.25-1.372 2.273-2.352 3.07a9.695 9.695 0 0 1-3.38 1.763c-1.275.38-2.61.57-4.006.57-.539 0-1.078-.012-1.617-.037a20.005 20.005 0 0 1-1.433-.11l-1.837 10.51a9.63 9.63 0 0 1-.607.054 13.41 13.41 0 0 1-1.433 0 4.034 4.034 0 0 1-.532-.055l4.63-26.42zm19.66 13.597c.465.073.882.116 1.249.129.367.012.784.018 1.25.018 2.547 0 4.525-.582 5.934-1.746 1.408-1.163 2.113-2.958 2.113-5.383 0-1.788-.49-3.037-1.47-3.748-.98-.71-2.536-1.065-4.667-1.065-.416 0-.851.018-1.304.054-.454.037-.814.08-1.084.13L68.27 36.56zm-.184-13.597c.245-.024.582-.067 1.01-.128.429-.062.888-.11 1.378-.147l1.453-.11c.477-.037.899-.056 1.266-.056 1.2 0 2.316.123 3.345.368 1.029.245 1.91.63 2.645 1.157a5.497 5.497 0 0 1 1.727 2.04c.417.833.625 1.85.625 3.05 0 1.74-.294 3.233-.882 4.482-.588 1.25-1.372 2.273-2.352 3.07a9.695 9.695 0 0 1-3.38 1.763c-1.275.38-2.61.57-4.005.57-.54 0-1.08-.012-1.618-.037a20.04 20.04 0 0 1-1.433-.11l-1.837 10.51a9.63 9.63 0 0 1-.607.054 13.403 13.403 0 0 1-1.433 0 4.034 4.034 0 0 1-.532-.055l4.63-26.42zm24.29 24.547a7.287 7.287 0 0 0 4.023-1.194c1.237-.796 2.315-1.875 3.234-3.234.919-1.36 1.635-2.958 2.15-4.795.515-1.838.771-3.81.771-5.916 0-1.103-.116-2.114-.349-3.032-.233-.919-.6-1.71-1.102-2.37a5.295 5.295 0 0 0-1.91-1.562c-.773-.38-1.71-.57-2.812-.57a7.59 7.59 0 0 0-4.115 1.176c-1.25.784-2.322 1.856-3.216 3.215-.894 1.36-1.586 2.959-2.076 4.796-.49 1.837-.735 3.822-.735 5.953 0 2.303.49 4.134 1.47 5.493.98 1.36 2.536 2.04 4.667 2.04zm-.404 2.315c-1.397 0-2.616-.239-3.657-.717a7.15 7.15 0 0 1-2.608-2.003c-.698-.856-1.226-1.873-1.58-3.05-.355-1.175-.533-2.449-.533-3.82 0-2.426.318-4.717.955-6.872.637-2.156 1.531-4.037 2.683-5.641 1.152-1.605 2.536-2.872 4.152-3.803 1.617-.931 3.418-1.397 5.403-1.397 1.42 0 2.657.251 3.71.753a7.405 7.405 0 0 1 2.628 2.058c.698.87 1.218 1.887 1.562 3.05.342 1.165.514 2.407.514 3.73 0 2.5-.319 4.832-.955 7-.638 2.168-1.538 4.042-2.7 5.622-1.166 1.58-2.56 2.824-4.19 3.73-1.628.907-3.423 1.36-5.383 1.36h-.001zm20.577-26.972a40.37 40.37 0 0 1 4.998-.33c1.003 0 1.984.11 2.94.33.955.22 1.8.582 2.534 1.084a5.63 5.63 0 0 1 1.764 1.947c.441.798.662 1.783.662 2.959 0 1.298-.215 2.43-.643 3.399a9.094 9.094 0 0 1-1.654 2.535 10.647 10.647 0 0 1-2.241 1.837c-.822.502-1.623.938-2.407 1.305l5.475 11.465c-.27.049-.528.073-.771.073h-1.489c-.233 0-.446-.024-.643-.073l-5.916-12.347 1.47-.625c.563-.244 1.2-.544 1.91-.899a8.954 8.954 0 0 0 1.985-1.36 7.197 7.197 0 0 0 1.543-2.004c.416-.783.625-1.726.625-2.829 0-3.087-1.74-4.63-5.218-4.63-.49 0-.925.013-1.304.037-.381.025-.852.073-1.416.147l-4.298 24.51a9.297 9.297 0 0 1-.662.055c-.246.012-.478.019-.698.019-.246 0-.472-.006-.68-.019a5.234 5.234 0 0 1-.533-.055l4.667-26.53zm22.305 2.389h-6.762c0-.76.134-1.52.405-2.279h16.057c0 .76-.134 1.52-.403 2.279h-6.762l-4.225 24.142a7.296 7.296 0 0 1-.607.056 14.1 14.1 0 0 1-1.396 0 4.147 4.147 0 0 1-.534-.056l4.227-24.142zm13.633-2.28h13.596c0 .786-.134 1.557-.404 2.316h-11.024l-1.58 8.93h8.856c0 .367-.031.753-.092 1.157-.062.404-.166.79-.313 1.157h-8.855l-1.838 10.547h11.355c-.024.465-.068.87-.128 1.212a6.373 6.373 0 0 1-.312 1.103h-13.89l4.629-26.421zM164.95 47.18c.172.025.416.05.735.073.318.025.662.05 1.03.074.367.025.74.043 1.12.055.379.013.716.019 1.01.019 1.936 0 3.65-.343 5.145-1.029 1.494-.686 2.744-1.636 3.748-2.848 1.004-1.213 1.77-2.646 2.297-4.3.526-1.653.79-3.435.79-5.346 0-1.42-.142-2.689-.422-3.803-.283-1.115-.767-2.058-1.452-2.83-.686-.772-1.605-1.366-2.756-1.782-1.152-.416-2.586-.625-4.3-.625-.465 0-.986.025-1.562.073-.576.05-1.072.111-1.488.185L164.95 47.18zm1.69-24.216a34.3 34.3 0 0 1 1.231-.147 52.23 52.23 0 0 1 1.47-.128c.502-.037.986-.068 1.452-.092.465-.024.857-.037 1.176-.037 2.205 0 4.042.27 5.512.808 1.47.54 2.651 1.293 3.546 2.26a8.233 8.233 0 0 1 1.892 3.436c.368 1.323.552 2.756.552 4.3 0 2.057-.27 4.073-.809 6.044-.54 1.972-1.41 3.73-2.609 5.273-1.2 1.543-2.75 2.787-4.648 3.73-1.9.944-4.208 1.415-6.928 1.415-.612 0-1.243-.013-1.891-.037a72.245 72.245 0 0 1-1.838-.092 25.111 25.111 0 0 1-1.58-.147 35.263 35.263 0 0 1-1.157-.165l4.63-26.421zm35.754 11.245c2.034 0 3.59-.509 4.667-1.525 1.078-1.016 1.617-2.37 1.617-4.06 0-1.3-.367-2.279-1.102-2.94-.735-.662-1.997-.993-3.785-.993-.563 0-1.127.025-1.69.074-.564.05-.992.098-1.286.147l-1.654 9.297h3.233zM196.846 47.4c.294.05.704.091 1.23.129.527.036 1.085.055 1.672.055.98 0 1.96-.093 2.941-.276a7.796 7.796 0 0 0 2.646-.992 5.614 5.614 0 0 0 1.91-1.947c.49-.821.736-1.869.736-3.143 0-.881-.147-1.616-.441-2.204a3.851 3.851 0 0 0-1.214-1.434c-.514-.367-1.12-.624-1.819-.772a10.96 10.96 0 0 0-2.26-.22h-3.49L196.846 47.4zm1.726-24.437c.246-.024.588-.06 1.03-.11.44-.049.912-.098 1.414-.147.502-.049 1.012-.086 1.525-.11.515-.024.98-.037 1.397-.037 2.426 0 4.281.46 5.567 1.378 1.287.919 1.93 2.284 1.93 4.097 0 .956-.148 1.832-.442 2.628a7.506 7.506 0 0 1-1.176 2.113 6.845 6.845 0 0 1-1.69 1.525 8.576 8.576 0 0 1-1.984.937 5.87 5.87 0 0 1 1.747.57 5.094 5.094 0 0 1 2.479 2.793c.245.65.367 1.39.367 2.223 0 1.617-.306 2.995-.918 4.135a7.966 7.966 0 0 1-2.462 2.792c-1.03.722-2.21 1.25-3.545 1.58-1.336.33-2.726.496-4.172.496-1.004 0-2.045-.043-3.122-.129-1.08-.086-1.936-.189-2.573-.312l4.628-26.422zM219.63 39.61l-5.182-16.647c.147-.023.357-.043.625-.054.27-.012.528-.02.773-.02.22 0 .465.008.735.02.268.01.489.03.661.054l4.042 13.89 8.156-13.89c.197-.023.417-.043.662-.054a16.682 16.682 0 0 1 1.526 0c.256.01.458.03.605.054L222.09 39.758l-1.653 9.627a10.065 10.065 0 0 1-1.286.074c-.269 0-.515-.006-.735-.018a4.025 4.025 0 0 1-.513-.056l1.726-9.774zm193.015-8.604L402.53 17.083l-7.95 5.772 5.924 8.152-5.924 8.155 7.95 5.772 10.114-13.927zM400.793 14.7L390.68.775l-16.37 5.317 3.033 9.346 9.586-3.115 5.919 8.148zM400.793 47.316l-7.945-5.772-5.919 8.149-9.585-3.114-3.034 9.347 16.37 5.316zM374.539 16.345l-3.034-9.339-16.369 5.318v17.211h9.824V19.46zM374.539 45.671l-9.579-3.114V32.481h-9.825v17.21l16.369 5.32z"/><path d="M412.644 31.007L402.53 17.083l-7.95 5.772 5.924 8.152zM390.682.775L374.31 6.092l3.033 9.346 9.585-3.115zM400.793 47.316l-7.945-5.772-5.919 8.149 3.752 11.55zM355.136 12.323v17.212h9.824V19.459zM374.539 45.671l-9.579-3.114-9.824 7.135 16.368 5.318zM265.754.85c-4.093 0-7.374 1.152-9.856 3.46-2.48 2.309-4.144 5.889-5.016 10.765l-.147.529h-5.427a17.654 17.654 0 0 0-.966 3.578 22.587 22.587 0 0 0-.266 3.461h5.427l-4.78 26.636c1.567.261 3.019.41 4.37.41 1.481 0 3.068-.149 4.724-.41l4.752-26.636h7.126c.479-1.306.795-2.482.969-3.55.174-1.066.263-2.227.263-3.49h-7.097l.117-.585c.262-1.352.568-2.475.938-3.345.371-.87.82-1.544 1.32-2.024.5-.48 1.07-.802 1.702-.997.632-.196 1.329-.294 2.113-.294.653 0 1.28.038 1.847.147.565.107 1.106.266 1.672.44.61-1.133 1.134-2.27 1.526-3.402.392-1.133.72-2.406 1.026-3.845-1.002-.302-1.984-.542-2.962-.672-.98-.132-2.11-.177-3.374-.178v.001zm9.767 9.068a21.707 21.707 0 0 1 .294-4.344c.241-1.37.622-2.818 1.144-4.343a17.297 17.297 0 0 1 2.483-.36 31.56 31.56 0 0 1 2.352-.096c.695 0 1.468.031 2.318.097.85.065 1.644.184 2.383.358 0 1.525-.13 2.983-.39 4.377a29.139 29.139 0 0 1-1.176 4.31c-.784.13-1.6.218-2.45.261-.849.046-1.622.066-2.317.066-.655 0-1.418-.021-2.289-.066a17.55 17.55 0 0 1-2.352-.26zm-1.894 12.738h-4.115c0-.13-.01-.26-.032-.391a2.749 2.749 0 0 1-.032-.458 14.6 14.6 0 0 1 .325-3.169c.218-.98.544-1.992.98-3.036h13.195l-5.944 33.77a30.016 30.016 0 0 1-4.703.394c-1.35 0-2.81-.13-4.378-.393l4.704-26.717zm24.088 7.251c1.654-.26 3.003-.597 4.048-1.01 1.046-.415 1.875-.871 2.483-1.374.61-.501 1.022-1.011 1.242-1.535.217-.52.325-1.043.325-1.565 0-.828-.27-1.504-.815-2.026-.545-.522-1.273-.785-2.188-.785-1.132 0-2.167.251-3.104.751a8.322 8.322 0 0 0-2.45 1.99 12.893 12.893 0 0 0-1.797 2.843 16.82 16.82 0 0 0-1.143 3.235l3.399-.524zm-3.724 6.663c.26 2.09.955 3.646 2.088 4.671 1.132 1.022 2.788 1.534 4.966 1.534 1.743 0 3.278-.184 4.605-.555a37.802 37.802 0 0 0 4.214-1.467c.697.868 1.165 1.925 1.404 3.167.24 1.24.358 2.558.358 3.951-.739.348-1.6.663-2.58.947-.977.282-1.992.522-3.035.718-1.046.195-2.09.349-3.137.457a27.525 27.525 0 0 1-2.81.164c-2.655 0-4.931-.327-6.826-.98-1.894-.654-3.46-1.579-4.701-2.776-1.241-1.198-2.156-2.657-2.745-4.375-.588-1.722-.882-3.627-.882-5.718 0-2.655.457-5.269 1.372-7.837.914-2.57 2.21-4.868 3.887-6.892 1.677-2.026 3.724-3.657 6.14-4.9 2.417-1.24 5.129-1.86 8.133-1.86 1.436 0 2.776.174 4.017.52 1.241.35 2.318.883 3.234 1.6a7.749 7.749 0 0 1 2.156 2.646c.521 1.046.784 2.265.784 3.66 0 1.958-.458 3.657-1.374 5.094-.915 1.437-2.134 2.657-3.658 3.658-1.524 1.002-3.255 1.818-5.192 2.45-1.94.633-3.954 1.1-6.045 1.404l-4.373.719zm43.938 4.77c.48.783.87 1.72 1.175 2.809.304 1.088.458 2.525.458 4.31a18.674 18.674 0 0 1-4.443 1.306c-1.569.262-3.288.392-5.16.392-4.965 0-8.601-1.21-10.91-3.626-2.308-2.415-3.462-5.737-3.462-9.96 0-2.57.424-5.15 1.274-7.741.848-2.592 2.1-4.92 3.755-6.989 1.655-2.069 3.69-3.757 6.109-5.062 2.417-1.306 5.215-1.96 8.393-1.96 1.48 0 2.918.11 4.312.327 1.393.216 2.72.565 3.983 1.046-.042 1.132-.237 2.34-.588 3.623a13.551 13.551 0 0 1-1.632 3.692 18.865 18.865 0 0 0-2.842-.916c-.936-.217-1.97-.326-3.102-.326-1.7 0-3.18.382-4.443 1.142a10.188 10.188 0 0 0-3.166 3.006c-.85 1.241-1.482 2.668-1.896 4.279a20.127 20.127 0 0 0-.62 5.03c0 2.396.609 4.16 1.828 5.292 1.22 1.132 2.765 1.697 4.638 1.697.959 0 1.906-.086 2.842-.26.936-.175 2.102-.544 3.496-1.111zM6.77 66.447H5.722c0-.171.013-.338.038-.497.026-.16.075-.334.143-.524H6.94c.043-.226.082-.452.116-.687.035-.233.052-.474.052-.723v-.21c.172-.084.38-.15.622-.192.243-.045.45-.066.622-.066a4.222 4.222 0 0 1 .026.48c0 .268-.034.599-.104.998l-.078.401h1.671c0 .19-.014.364-.038.523-.027.16-.07.327-.13.498h-1.66l-.504 2.811c-.043.198-.082.403-.116.615-.035.213-.051.404-.051.576 0 .258.065.438.2.539.133.097.312.147.537.147.147 0 .28-.012.401-.033a3.77 3.77 0 0 0 .364-.083 2.19 2.19 0 0 1 .09.622v.186c0 .065-.005.134-.015.202a3.301 3.301 0 0 1-.44.099 4.469 4.469 0 0 1-1.34-.014 1.492 1.492 0 0 1-.589-.22 1.076 1.076 0 0 1-.381-.441c-.092-.184-.136-.428-.136-.73 0-.166.014-.339.044-.526l.098-.575.57-3.176zm4.567-1.203c.084-.484.155-.9.207-1.25.051-.348.078-.661.078-.938 0-.103-.003-.186-.007-.248l-.02-.231a5.052 5.052 0 0 1 .701-.053c.085 0 .183.003.29.014.108.009.205.02.292.04a3.025 3.025 0 0 1 .019.822c-.013.133-.028.275-.045.419-.017.15-.04.3-.065.455-.027.155-.052.3-.079.44-.06.294-.116.586-.168.872-.05.289-.104.583-.155.877.242-.32.552-.598.932-.829.38-.234.812-.351 1.295-.351.526 0 .94.139 1.238.415.296.277.446.704.446 1.282 0 .13-.01.27-.027.428a8.68 8.68 0 0 1-.065.465l-.738 4.196a2.307 2.307 0 0 1-.33.032c-.125.004-.235.007-.33.007-.095 0-.2-.004-.317-.007a1.911 1.911 0 0 1-.304-.033c.12-.673.237-1.339.35-1.995.112-.658.228-1.32.349-1.994l.052-.387c.018-.132.026-.243.026-.338 0-.329-.089-.57-.266-.725-.177-.157-.403-.234-.678-.234-.2 0-.403.043-.61.13a1.615 1.615 0 0 0-.589.448c-.186.21-.356.494-.511.852-.156.359-.281.81-.377 1.354-.094.493-.183.974-.265 1.451-.081.474-.166.953-.252 1.436-.12.017-.246.028-.376.032-.129.004-.254.007-.374.007-.044 0-.121-.004-.234-.007a1.864 1.864 0 0 1-.297-.033l1.204-6.821zm8.304 3.095a7.367 7.367 0 0 0 1.094-.266c.29-.1.52-.209.694-.324.172-.114.292-.239.362-.369a.909.909 0 0 0 .102-.426c0-.2-.068-.362-.206-.486-.138-.125-.337-.188-.596-.188-.276 0-.532.064-.764.189a2.322 2.322 0 0 0-.628.492 2.887 2.887 0 0 0-.473.7 4 4 0 0 0-.298.808l.713-.13zm-.814 1.087c.025.578.172 1.015.438 1.308.268.294.683.441 1.244.441.345 0 .673-.042.984-.123.31-.083.591-.172.842-.267.077.13.134.287.168.468.034.18.05.363.05.542-.128.06-.285.116-.472.17a7.29 7.29 0 0 1-1.197.226c-.207.022-.396.03-.57.03-.508 0-.938-.065-1.287-.196a2.273 2.273 0 0 1-.856-.558 2.177 2.177 0 0 1-.478-.84 3.54 3.54 0 0 1-.149-1.058c0-.526.088-1.046.266-1.559a4.41 4.41 0 0 1 .763-1.379c.332-.407.73-.735 1.191-.984.462-.25.978-.376 1.547-.376.57 0 1.02.141 1.353.422.333.282.498.654.498 1.12 0 .38-.093.71-.277.99-.187.281-.442.52-.77.718a4.901 4.901 0 0 1-1.16.494c-.444.128-.93.23-1.457.311l-.67.1zm9.4-6.666h5.101a.88.88 0 0 0 .007.101.903.903 0 0 1 .007.105c0 .222-.026.451-.078.686a4.711 4.711 0 0 1-.221.712h-3.21l-.375 2.187h2.55c0 .277-.025.544-.072.805-.048.259-.12.529-.214.814h-2.55l-.687 3.899c-.354.053-.672.08-.958.08-.311 0-.621-.027-.932-.08l1.631-9.31zm6.575 0h5.103c0 .034.003.068.005.101a.637.637 0 0 1 .008.105c0 .222-.026.451-.078.686-.051.232-.125.471-.221.712h-3.21l-.35 2.02h2.55a5.06 5.06 0 0 1-.285 1.62h-2.55l-.44 2.458h3.302c0 .035.003.066.006.096a.91.91 0 0 1 .006.098c0 .233-.026.464-.082.694a14.61 14.61 0 0 1-.203.718h-5.192l1.631-9.308zm6.854 0c.328-.06.648-.092.958-.092.301 0 .604.031.905.092l-1.345 7.677h3.056c0 .145-.009.287-.025.42l-.051.382c-.027.139-.057.274-.092.41-.035.132-.073.272-.117.419h-4.92l1.63-9.308zm6.323 0c.328-.06.647-.092.958-.092.302 0 .605.031.906.092l-1.347 7.677h3.057c0 .145-.009.287-.026.42l-.05.382a7.716 7.716 0 0 1-.209.829h-4.92l1.631-9.308zm8.342 7.885c.336 0 .636-.078.9-.226a2.4 2.4 0 0 0 .687-.6c.193-.244.36-.527.497-.852a6.13 6.13 0 0 0 .33-.997 8.687 8.687 0 0 0 .24-1.935c0-1.208-.466-1.813-1.399-1.813a1.77 1.77 0 0 0-.899.226c-.263.15-.494.35-.694.596-.198.247-.366.529-.505.854a6.524 6.524 0 0 0-.33.998 8.754 8.754 0 0 0-.24 1.947c0 1.202.47 1.802 1.412 1.802h.001zm-.171 1.577c-1.095 0-1.904-.307-2.425-.916-.524-.615-.784-1.466-.784-2.553 0-.466.04-.942.122-1.43.08-.49.21-.96.381-1.419a6.81 6.81 0 0 1 .648-1.287c.26-.404.568-.753.927-1.052a4.287 4.287 0 0 1 1.217-.705 4.25 4.25 0 0 1 1.51-.259c.542 0 1.016.083 1.422.247.406.165.74.397 1.004.7.263.3.46.67.588 1.108.13.435.195.927.195 1.481 0 .466-.041.944-.121 1.43-.083.49-.21.956-.384 1.408-.173.447-.39.869-.653 1.266-.264.4-.571.745-.926 1.039a4.23 4.23 0 0 1-1.212.692 4.316 4.316 0 0 1-1.509.25zm6.353-9.462c.309-.053.646-.078 1.01-.078.172 0 .336.002.491.005.156.004.31.029.466.073l.026 6.77 2.68-6.77a3.9 3.9 0 0 1 .486-.066 7.514 7.514 0 0 1 .849 0c.138.01.28.03.426.066l.311 6.939 2.448-6.94c.154-.035.312-.056.472-.065.16-.009.312-.012.458-.012a4.745 4.745 0 0 1 .92.077l-3.755 9.31a7.028 7.028 0 0 1-.505.059 7.62 7.62 0 0 1-.492.019 7.3 7.3 0 0 1-1.034-.08l-.338-5.994-2.512 5.995-.454.04a6.03 6.03 0 0 1-.648.04c-.249 0-.53-.026-.841-.08l-.464-9.308zm10.69 7.404c.328.123.663.225 1.003.313.34.084.67.127.99.127.267 0 .517-.028.745-.09.229-.06.427-.15.594-.272a1.224 1.224 0 0 0 .54-1.048.852.852 0 0 0-.119-.454 1.426 1.426 0 0 0-.296-.35 2.916 2.916 0 0 0-.429-.29 10.19 10.19 0 0 1-.491-.292c-.553-.328-.99-.668-1.314-1.017a1.756 1.756 0 0 1-.486-1.236c0-.467.082-.882.247-1.247.162-.37.396-.677.698-.928.302-.25.667-.443 1.094-.577.428-.13.91-.2 1.444-.2.476 0 .886.035 1.23.105.346.068.71.175 1.089.323a4.568 4.568 0 0 1-.181.738 3.563 3.563 0 0 1-.364.762 5.225 5.225 0 0 0-.77-.298c-.263-.076-.605-.115-1.03-.115-.155 0-.32.011-.497.039a1.464 1.464 0 0 0-.48.15.99.99 0 0 0-.356.302.835.835 0 0 0-.142.505c0 .295.104.537.316.725.213.19.48.379.81.57.294.163.565.328.816.492.25.165.471.341.662.531.188.192.337.405.446.64.108.24.162.513.162.822 0 .443-.081.864-.24 1.27a2.83 2.83 0 0 1-.738 1.063c-.331.301-.754.544-1.262.724-.509.181-1.114.27-1.814.27-.81 0-1.61-.15-2.394-.45a3.94 3.94 0 0 1 .186-.783c.09-.266.202-.539.331-.824zm8.523-7.392a5.275 5.275 0 0 1 1.418-.072c.159.014.321.037.485.072l-.634 3.639h2.81l.634-3.64c.173-.033.339-.056.498-.071.16-.012.312-.019.46-.019.146 0 .302.007.466.019.164.014.325.037.48.072L86.7 72.067c-.335.051-.659.078-.97.078-.31 0-.62-.026-.932-.078l.7-4.026h-2.81l-.7 4.026a6.89 6.89 0 0 1-.97.078 5.69 5.69 0 0 1-.933-.078l1.63-9.296zm8.623 0a5.281 5.281 0 0 1 1.419-.072c.158.014.32.037.484.072l-1.63 9.296a6.9 6.9 0 0 1-.973.078c-.31 0-.62-.026-.933-.078l1.633-9.296zm4.983 4.726c.113.026.307.038.582.038.207 0 .418-.036.633-.103.218-.07.416-.187.598-.35.18-.164.33-.38.446-.648.117-.268.176-.603.176-1.008 0-.251-.043-.458-.124-.624a.98.98 0 0 0-.324-.38 1.233 1.233 0 0 0-.447-.19 2.29 2.29 0 0 0-.48-.05h-.194c-.058 0-.155.008-.285.024l-.581 3.29zm-1.049-4.766c.19-.017.368-.033.53-.05.164-.018.327-.034.487-.046.159-.014.319-.023.48-.027.158-.004.334-.006.522-.006.371 0 .76.035 1.165.104.407.067.777.2 1.117.395.335.194.613.468.833.82.22.356.33.813.33 1.375 0 .543-.093 1.048-.28 1.514-.185.466-.454.87-.808 1.212a3.658 3.658 0 0 1-1.294.794c-.511.191-1.09.286-1.736.286a5.75 5.75 0 0 1-.583-.026l-.52 2.99a4.782 4.782 0 0 1-.492.052 7.714 7.714 0 0 1-.884 0 6.195 6.195 0 0 1-.513-.05l1.646-9.337zm11.254 8.47c.404 0 .751-.11 1.04-.333a2.53 2.53 0 0 0 .706-.834c.181-.336.316-.7.403-1.093.085-.393.128-.762.128-1.108 0-.49-.11-.865-.329-1.125-.22-.262-.533-.39-.94-.39-.405 0-.751.111-1.034.336a2.64 2.64 0 0 0-.7.843c-.182.336-.313.7-.394 1.094a5.388 5.388 0 0 0-.124 1.095c0 .49.106.865.318 1.125.212.26.52.39.926.39zm-.13 1.02c-.802 0-1.407-.22-1.814-.667-.404-.443-.607-1.072-.607-1.881 0-.477.073-.973.22-1.497.147-.521.372-.997.68-1.424.306-.426.69-.78 1.153-1.06.461-.281 1.006-.423 1.638-.423.809 0 1.42.225 1.824.673.407.449.609 1.081.609 1.891 0 .484-.072.984-.22 1.504-.145.516-.37.99-.674 1.417a3.736 3.736 0 0 1-1.151 1.055c-.467.275-1.02.412-1.657.412zm5.925-5.775h-1.076c0-.171.01-.338.033-.497.022-.16.068-.334.137-.524h1.074l.065-.374c.147-.875.435-1.525.861-1.958.427-.43 1.03-.646 1.807-.646.224 0 .418.014.582.044.164.03.315.066.453.11a4.68 4.68 0 0 1-.16.564 4.447 4.447 0 0 1-.214.475 2.371 2.371 0 0 0-.3-.093 1.494 1.494 0 0 0-.362-.038c-.18 0-.345.022-.491.07a1 1 0 0 0-.394.247 1.5 1.5 0 0 0-.306.482c-.086.2-.156.456-.207.769a1.404 1.404 0 0 0-.037.173 1.6 1.6 0 0 1-.04.175h1.595c0 .183-.012.35-.033.505-.023.156-.07.328-.137.517h-1.595l-.996 5.66a8.174 8.174 0 0 1-.382 1.46c-.15.399-.34.722-.561.966a1.936 1.936 0 0 1-.785.531c-.3.108-.646.162-1.042.162-.19 0-.372-.015-.545-.044a2.294 2.294 0 0 1-.452-.124c.035-.2.077-.379.129-.538.053-.158.122-.317.209-.472.084.035.183.063.29.085.107.02.219.03.33.03.2 0 .376-.025.537-.076a.878.878 0 0 0 .421-.311c.12-.155.23-.373.33-.654a7.05 7.05 0 0 0 .266-1.094l.996-5.582zm7.42-3.675a5.269 5.269 0 0 1 1.415-.072c.161.014.322.037.487.072l-1.63 9.296c-.355.051-.678.078-.972.078-.311 0-.622-.026-.933-.078l1.633-9.296zm3.92-.012c.145-.036.286-.057.419-.066.134-.009.262-.013.382-.013.26 0 .52.026.777.078l2.292 5.917 1.022-5.918a5.555 5.555 0 0 1 1.32-.065c.132.01.26.03.39.066l-1.643 9.309c-.303.05-.567.077-.792.077-.24 0-.495-.026-.764-.077l-2.304-5.904-1.023 5.904a5.676 5.676 0 0 1-.445.06c-.154.01-.301.018-.449.018-.277 0-.547-.026-.815-.079l1.632-9.307zm9.153 7.805c.157.026.371.04.648.04.493 0 .938-.1 1.34-.298a3.182 3.182 0 0 0 1.042-.828c.295-.354.522-.777.68-1.27.161-.49.24-1.036.24-1.632 0-.395-.053-.744-.16-1.042a2.06 2.06 0 0 0-.441-.731 1.778 1.778 0 0 0-.668-.426 2.379 2.379 0 0 0-.828-.144c-.18 0-.32.003-.414.006a2.68 2.68 0 0 0-.323.035l-1.116 6.29zm-.53-7.793c.346-.043.7-.082 1.063-.116.363-.035.746-.053 1.15-.053.664 0 1.265.087 1.795.258.53.174.983.421 1.353.746.371.324.656.721.855 1.192.199.47.298 1.004.298 1.599 0 .932-.147 1.76-.441 2.486a5.048 5.048 0 0 1-1.23 1.826 5.36 5.36 0 0 1-1.883 1.127 7.131 7.131 0 0 1-2.392.386c-.492 0-.897-.014-1.216-.043a29.63 29.63 0 0 1-.983-.11l1.63-9.298zm8.875-.012h5.104c0 .034.002.068.007.101.003.034.006.07.006.105 0 .222-.026.451-.08.686-.05.232-.124.471-.218.712h-3.213l-.348 2.02h2.551c0 .516-.095 1.057-.285 1.62h-2.55l-.441 2.458h3.302c0 .035.002.066.007.096a.553.553 0 0 1 .007.098c0 .233-.028.464-.085.694-.056.227-.123.467-.2.718h-5.194l1.63-9.308zm7.917 4.738c.111.026.305.038.583.038.208 0 .419-.036.633-.103.215-.07.415-.187.598-.35.179-.164.328-.38.445-.648.115-.268.173-.603.173-1.008 0-.251-.04-.458-.122-.624a.974.974 0 0 0-.322-.38 1.258 1.258 0 0 0-.447-.19 2.31 2.31 0 0 0-.48-.05h-.195c-.059 0-.155.008-.283.024l-.583 3.29zm-1.05-4.766c.191-.017.367-.033.532-.05.163-.018.328-.034.486-.046.16-.014.319-.023.479-.027.16-.004.335-.006.524-.006.371 0 .76.035 1.166.104.406.067.775.2 1.113.395.338.194.615.468.833.82.222.356.33.813.33 1.375 0 .543-.091 1.048-.276 1.514-.185.466-.456.87-.81 1.212a3.648 3.648 0 0 1-1.295.794c-.507.191-1.087.286-1.735.286a5.738 5.738 0 0 1-.582-.026l-.517 2.99a4.914 4.914 0 0 1-.492.052 7.799 7.799 0 0 1-.886 0 6.17 6.17 0 0 1-.512-.05l1.643-9.337zm7.499.028h5.102c0 .034.003.068.008.101.003.034.005.07.005.105 0 .222-.026.451-.078.686-.05.232-.126.471-.22.712h-3.211l-.35 2.02h2.551c0 .516-.095 1.057-.285 1.62h-2.55l-.441 2.458h3.302c0 .035.001.066.007.096a.784.784 0 0 1 .006.098c0 .233-.029.464-.084.694-.056.227-.122.467-.2.718h-5.192l1.63-9.308zm6.853 0a2.6 2.6 0 0 1 .421-.066c.134-.009.26-.013.383-.013.258 0 .518.026.776.078l2.293 5.917 1.023-5.918a5.555 5.555 0 0 1 1.32-.065c.13.01.258.03.389.066l-1.645 9.309c-.302.05-.567.077-.79.077-.243 0-.498-.026-.764-.077l-2.307-5.904-1.022 5.904a5.634 5.634 0 0 1-.445.06c-.15.01-.3.018-.446.018a4.18 4.18 0 0 1-.817-.079l1.631-9.307zm9.156 7.805c.155.026.372.04.648.04.49 0 .937-.1 1.34-.298.401-.199.749-.474 1.042-.828a3.8 3.8 0 0 0 .68-1.27c.158-.49.24-1.036.24-1.632 0-.395-.057-.744-.163-1.042a2.048 2.048 0 0 0-.438-.731 1.82 1.82 0 0 0-.667-.426 2.404 2.404 0 0 0-.831-.144c-.181 0-.32.003-.415.006a2.675 2.675 0 0 0-.322.035l-1.114 6.29zm-.531-7.793c.345-.043.699-.082 1.06-.116.363-.035.75-.053 1.154-.053.665 0 1.264.087 1.792.258.533.174.982.421 1.354.746.371.324.656.721.856 1.192a4.11 4.11 0 0 1 .298 1.599c0 .932-.15 1.76-.443 2.486a5.026 5.026 0 0 1-1.23 1.826 5.355 5.355 0 0 1-1.883 1.127 7.111 7.111 0 0 1-2.389.386c-.493 0-.899-.014-1.218-.043a29.8 29.8 0 0 1-.984-.11l1.633-9.298zm8.878-.012h5.1c0 .034.003.068.007.101.003.034.006.07.006.105 0 .222-.025.451-.077.686-.051.232-.125.471-.222.712h-3.21l-.347 2.02h2.547a5.06 5.06 0 0 1-.284 1.62h-2.55l-.44 2.458h3.301a1 1 0 0 0 .006.096.685.685 0 0 1 .008.098c0 .233-.029.464-.084.694-.057.227-.123.467-.2.718h-5.193l1.632-9.308zm6.85 0c.147-.036.289-.057.424-.066.132-.009.26-.013.383-.013.258 0 .516.026.775.078l2.291 5.917 1.023-5.918a5.555 5.555 0 0 1 1.32-.065c.13.01.26.03.39.066l-1.645 9.309a4.87 4.87 0 0 1-.79.077c-.243 0-.497-.026-.764-.077l-2.304-5.904-1.023 5.904a5.814 5.814 0 0 1-.448.06c-.15.01-.3.018-.446.018-.277 0-.55-.026-.817-.079l1.631-9.307zm9.895 1.605h-2.201c0-.27.023-.535.07-.797.05-.263.119-.534.213-.809h6.308c0 .267-.025.533-.072.79a6.18 6.18 0 0 1-.212.815h-2.203l-1.345 7.704c-.356.05-.679.077-.971.077-.311 0-.623-.026-.933-.077l1.346-7.703zm8.544-1.605h5.101c0 .034.004.068.006.101a.637.637 0 0 1 .007.105c0 .222-.025.451-.076.686a4.656 4.656 0 0 1-.223.712h-3.208l-.35 2.02h2.55c0 .516-.096 1.057-.286 1.62h-2.548l-.442 2.458h3.303a.52.52 0 0 0 .007.096c.002.032.005.065.005.098a2.9 2.9 0 0 1-.083.694c-.056.227-.124.467-.2.718h-5.193l1.63-9.308zm5.921 0a6.882 6.882 0 0 1 1.048-.078c.304 0 .619.025.947.078l.594 7.315 3.199-7.315a6.29 6.29 0 0 1 1.98 0l-4.414 9.308a8.77 8.77 0 0 1-1.14.078c-.172 0-.34-.006-.504-.018a13.514 13.514 0 0 1-.544-.06l-1.166-9.308zm12.018 5.877l-.335-3.731-1.657 3.73h1.992zm-1.074-5.877c.172-.026.356-.046.55-.06.194-.012.376-.017.551-.017.352-.001.707.024 1.062.076l1.137 9.309c-.328.05-.64.077-.943.077a6.62 6.62 0 0 1-.972-.077l-.17-1.879h-2.834l-.83 1.879c-.31.05-.635.077-.972.077-.328 0-.637-.026-.931-.077l4.352-9.308zm6.175 0c.147-.036.287-.057.418-.066.136-.009.264-.013.385-.013.259 0 .516.026.776.078l2.293 5.917 1.023-5.918a5.543 5.543 0 0 1 1.32-.065c.13.01.26.03.39.066l-1.646 9.309a4.85 4.85 0 0 1-.789.077c-.243 0-.497-.026-.765-.077l-2.305-5.904-1.023 5.904a5.801 5.801 0 0 1-.445.06c-.15.01-.301.018-.447.018-.278 0-.548-.026-.818-.079l1.633-9.307zm12.663 4.489a4.776 4.776 0 0 1 .944-.088c.15 0 .301.005.46.018.16.013.318.037.473.07l-.814 4.61a6.08 6.08 0 0 1-1.282.28c-.478.056-.92.082-1.335.082-.63 0-1.184-.089-1.657-.27a3.333 3.333 0 0 1-1.19-.75c-.32-.32-.56-.698-.72-1.133a4.113 4.113 0 0 1-.24-1.417c0-.838.125-1.624.375-2.357a6.095 6.095 0 0 1 1.056-1.923c.455-.548.998-.98 1.639-1.296a4.747 4.747 0 0 1 2.122-.472c.407 0 .769.028 1.088.08.32.052.644.15.972.297a5.072 5.072 0 0 1-.546 1.514 3.122 3.122 0 0 0-.736-.22 4.425 4.425 0 0 0-.66-.052c-.579 0-1.073.126-1.482.375-.41.25-.748.577-1.01.976a4.38 4.38 0 0 0-.584 1.37 6.364 6.364 0 0 0-.188 1.537c0 .752.184 1.29.55 1.608.367.318.854.477 1.457.477.123 0 .255-.006.403-.019.145-.012.257-.028.337-.046l.568-3.251zm4.483-4.49h5.1c0 .035.005.069.008.102.005.034.005.07.005.105 0 .222-.025.451-.076.686-.05.232-.126.471-.22.712h-3.21l-.35 2.02h2.55c0 .516-.095 1.057-.286 1.62h-2.548l-.443 2.458h3.301a1.352 1.352 0 0 1 .013.194c0 .233-.028.464-.082.694a12.47 12.47 0 0 1-.202.718h-5.192l1.632-9.308zm6.853 0c.327-.06.646-.09.957-.09.303 0 .605.03.907.09l-1.345 7.678h3.055c0 .145-.01.287-.027.42-.017.136-.032.262-.05.382-.027.139-.055.274-.09.41-.037.132-.073.272-.117.419h-4.921l1.631-9.308zm6.322.013a5.258 5.258 0 0 1 1.418-.072c.16.014.323.037.485.072l-1.631 9.296c-.354.051-.676.078-.97.078a5.68 5.68 0 0 1-.933-.078l1.631-9.296zm8.257 7.535c.096.223.173.475.228.752.058.277.094.55.11.815a3.548 3.548 0 0 1-.608.188 5.56 5.56 0 0 1-.628.102 9.11 9.11 0 0 1-.99.058c-.63 0-1.18-.085-1.651-.256a3.209 3.209 0 0 1-1.179-.735 2.963 2.963 0 0 1-.706-1.125 4.31 4.31 0 0 1-.232-1.456c0-.837.126-1.624.374-2.356a6.065 6.065 0 0 1 1.055-1.923c.454-.548 1-.98 1.638-1.295a4.725 4.725 0 0 1 2.126-.475c.404 0 .765.025 1.08.073.315.049.64.148.977.305-.05.266-.117.517-.2.75a5.451 5.451 0 0 1-.345.765 3.76 3.76 0 0 0-1.398-.273c-.579 0-1.073.126-1.488.375a3.141 3.141 0 0 0-1.015.977 4.44 4.44 0 0 0-.584 1.37 6.46 6.46 0 0 0-.188 1.539c0 .708.183 1.235.552 1.58.365.344.89.517 1.573.517a5.257 5.257 0 0 0 .698-.05c.113-.02.234-.046.364-.085.128-.038.275-.085.437-.136v-.001zm6.168-1.67l-.336-3.731-1.658 3.73h1.994zm-1.074-5.877c.172-.026.356-.046.551-.06.193-.012.375-.017.55-.017.353-.001.706.024 1.062.076l1.138 9.309c-.328.05-.642.077-.943.077-.304 0-.628-.026-.973-.077l-.17-1.879h-2.833l-.83 1.879c-.311.05-.636.077-.972.077-.328 0-.64-.026-.933-.077l4.353-9.308zm6.173 0c.328-.06.649-.092.957-.092.304 0 .607.031.91.092l-1.347 7.677h3.056c0 .145-.009.287-.026.42-.017.136-.034.262-.051.382a11.142 11.142 0 0 1-.209.83l-4.92-.001 1.63-9.308zm13.366 7.547c.097.223.173.475.228.752.056.277.09.55.11.815a3.646 3.646 0 0 1-.608.188 5.644 5.644 0 0 1-.628.102 9.077 9.077 0 0 1-.99.058c-.63 0-1.182-.085-1.652-.256a3.214 3.214 0 0 1-1.178-.735 2.99 2.99 0 0 1-.707-1.125 4.324 4.324 0 0 1-.234-1.456c0-.837.127-1.624.38-2.356a6.01 6.01 0 0 1 1.053-1.923c.453-.548 1-.98 1.638-1.295.637-.316 1.346-.475 2.124-.475.404 0 .765.025 1.08.073.315.049.641.148.977.305-.051.266-.118.517-.2.75a5.56 5.56 0 0 1-.343.765 3.72 3.72 0 0 0-1.399-.273c-.577 0-1.074.126-1.489.375a3.136 3.136 0 0 0-1.015.977c-.264.405-.459.86-.583 1.37a6.46 6.46 0 0 0-.19 1.539c0 .708.185 1.235.551 1.58.368.344.894.517 1.576.517a5.249 5.249 0 0 0 .696-.05 2.84 2.84 0 0 0 .362-.085c.13-.038.279-.085.441-.136v-.001zm3.075-7.535a5.232 5.232 0 0 1 1.417-.072c.159.014.322.037.484.072l-.633 3.639h2.81l.635-3.64c.172-.033.34-.056.498-.071a6.55 6.55 0 0 1 .46-.019c.146 0 .302.007.465.019.164.014.325.037.478.072l-1.63 9.296c-.335.051-.66.078-.969.078-.31 0-.622-.026-.934-.078l.7-4.026h-2.81l-.7 4.026c-.353.051-.677.078-.972.078-.309 0-.619-.026-.93-.078l1.631-9.296zm8.558-.012c.174-.036.34-.057.498-.066a8.885 8.885 0 0 1 .92 0c.15.01.307.03.473.066l-.843 4.828c-.06.355-.108.67-.142.944a6.28 6.28 0 0 0-.05.754c0 .448.08.778.245.99.162.21.453.316.867.316.32 0 .586-.058.804-.175a1.46 1.46 0 0 0 .548-.543c.153-.246.277-.556.377-.932.1-.376.195-.827.292-1.355l.84-4.828c.19-.035.36-.056.51-.065a8.076 8.076 0 0 1 .915 0c.157.01.315.03.48.066l-.92 5.23c-.122.691-.27 1.3-.454 1.824-.181.528-.427.967-.738 1.321-.31.353-.7.624-1.171.811-.47.184-1.047.275-1.73.275-.937 0-1.638-.212-2.095-.644-.458-.432-.688-1.136-.688-2.11 0-.432.048-.926.143-1.476l.92-5.231zm8.713.012a8.593 8.593 0 0 1 1.003-.135c.305-.023.62-.034.94-.034.442 0 .868.039 1.282.111.412.074.786.201 1.113.388.328.185.592.439.79.763.2.323.299.731.299 1.223 0 .398-.059.756-.178 1.074-.114.321-.262.608-.437.863-.18.255-.37.469-.579.647a4.268 4.268 0 0 1-.596.432l-.154.09 1.385 3.873c-.363.051-.713.078-1.048.078-.337 0-.654-.026-.947-.078l-1.436-4.323.218-.13c.13-.08.298-.172.506-.279.21-.11.41-.252.61-.43.196-.176.369-.39.509-.64.145-.25.216-.551.216-.905 0-.226-.04-.412-.117-.563a1.011 1.011 0 0 0-.318-.37 1.25 1.25 0 0 0-.46-.2 2.363 2.363 0 0 0-.53-.059c-.182 0-.327.013-.442.038l-1.385 7.86c-.17.018-.334.033-.484.046a4.851 4.851 0 0 1-.45.019c-.136 0-.287-.004-.451-.013a5.217 5.217 0 0 1-.492-.051l1.633-9.295zm11.978 7.535c.093.223.17.475.224.752.056.277.093.55.11.815-.19.078-.394.141-.607.188a5.727 5.727 0 0 1-.629.102 8.978 8.978 0 0 1-.99.058c-.63 0-1.182-.085-1.651-.256a3.195 3.195 0 0 1-1.178-.735 2.984 2.984 0 0 1-.707-1.125 4.352 4.352 0 0 1-.233-1.456c0-.837.124-1.624.377-2.356a5.99 5.99 0 0 1 1.054-1.923c.453-.548 1-.98 1.638-1.295a4.711 4.711 0 0 1 2.123-.475c.405 0 .766.025 1.082.073.315.049.642.148.978.305-.051.266-.117.517-.2.75a6.072 6.072 0 0 1-.343.765 3.728 3.728 0 0 0-1.4-.273c-.576 0-1.075.126-1.489.375a3.168 3.168 0 0 0-1.015.977 4.37 4.37 0 0 0-.582 1.37 6.402 6.402 0 0 0-.188 1.539c0 .708.181 1.235.549 1.58.367.344.891.517 1.574.517a5.214 5.214 0 0 0 .7-.05c.11-.02.23-.046.362-.085.13-.038.275-.085.44-.136v-.001zm3.071-7.535a5.288 5.288 0 0 1 1.417-.072c.161.014.323.037.486.072l-.635 3.639h2.81l.635-3.64c.171-.033.34-.056.496-.071a6.64 6.64 0 0 1 .463-.019c.145 0 .301.007.463.019.166.014.325.037.48.072l-1.629 9.296c-.337.051-.661.078-.97.078-.311 0-.622-.026-.935-.078l.701-4.026h-2.81l-.7 4.026c-.354.051-.678.078-.972.078-.308 0-.62-.026-.93-.078l1.63-9.296zm8.623-.012h5.102c0 .034.002.068.007.101.003.034.006.07.006.105 0 .222-.027.451-.078.686-.051.232-.126.471-.22.712h-3.21l-.351 2.02h2.551c0 .516-.094 1.057-.285 1.62h-2.55l-.441 2.458h3.302c0 .035.002.066.005.096a.552.552 0 0 1 .009.098c0 .233-.029.464-.085.694-.055.227-.121.467-.2.718h-5.192l1.63-9.308zm5.209 7.404c.327.123.662.225 1.003.313.341.084.673.127.992.127.268 0 .515-.028.746-.09.226-.06.427-.15.593-.272a1.224 1.224 0 0 0 .54-1.048.852.852 0 0 0-.119-.454 1.48 1.48 0 0 0-.297-.35 2.813 2.813 0 0 0-.43-.29 10.43 10.43 0 0 1-.49-.292c-.554-.328-.99-.668-1.313-1.017a1.758 1.758 0 0 1-.486-1.236c0-.467.083-.882.245-1.247.166-.37.397-.677.7-.928.301-.25.665-.443 1.096-.577.426-.13.906-.2 1.443-.2.473 0 .884.035 1.23.105.345.068.708.175 1.087.323a4.237 4.237 0 0 1-.181.738 3.566 3.566 0 0 1-.364.762 5.17 5.17 0 0 0-.77-.298c-.263-.076-.605-.115-1.029-.115-.155 0-.321.011-.5.039a1.46 1.46 0 0 0-.477.15.99.99 0 0 0-.357.302c-.096.13-.143.297-.143.505 0 .295.108.537.317.725.212.19.483.379.812.57.292.163.565.328.813.492.25.165.473.341.661.531.19.192.34.405.448.64.107.24.161.513.161.822 0 .443-.08.864-.24 1.27a2.786 2.786 0 0 1-.737 1.063c-.333.301-.752.544-1.263.724-.508.181-1.112.27-1.811.27-.811 0-1.611-.15-2.395-.45.032-.26.096-.522.186-.783.092-.266.2-.539.33-.824h-.001z"/></g>
    </symbol>
    <symbol id="instagram" viewBox="0 0 100 100">
      <title>Instagram</title><path d="M49.984.032c-13.575 0-15.277.057-20.608.3-5.32.243-8.954 1.088-12.133 2.324-3.287 1.277-6.075 2.986-8.854 5.765-2.778 2.779-4.488 5.566-5.765 8.853-1.236 3.18-2.08 6.813-2.323 12.133C.058 34.74 0 36.441 0 50.016 0 63.59.058 65.293.3 70.624c.243 5.32 1.088 8.954 2.324 12.133 1.277 3.287 2.987 6.075 5.765 8.854 2.78 2.778 5.567 4.488 8.854 5.765 3.179 1.236 6.813 2.08 12.133 2.323 5.331.243 7.033.301 20.608.301s15.277-.058 20.609-.3c5.32-.243 8.953-1.088 12.133-2.324 3.287-1.277 6.074-2.987 8.853-5.765 2.779-2.78 4.488-5.567 5.765-8.854 1.236-3.179 2.081-6.813 2.324-12.133.243-5.331.3-7.033.3-20.608s-.057-15.277-.3-20.609c-.243-5.32-1.088-8.953-2.324-12.133-1.277-3.287-2.986-6.074-5.765-8.853-2.779-2.779-5.566-4.488-8.853-5.765C79.546 1.42 75.913.575 70.593.332c-5.332-.243-7.034-.3-20.609-.3zm0 9.006c13.347 0 14.928.05 20.198.291 4.874.222 7.52 1.037 9.281 1.721 2.334.907 3.999 1.99 5.748 3.74 1.749 1.748 2.832 3.413 3.739 5.747.684 1.76 1.499 4.407 1.72 9.28.241 5.271.292 6.852.292 20.199 0 13.346-.05 14.927-.291 20.198-.222 4.873-1.037 7.52-1.721 9.281-.907 2.333-1.99 3.998-3.74 5.747-1.748 1.75-3.413 2.833-5.747 3.74-1.76.684-4.407 1.498-9.28 1.72-5.27.24-6.851.292-20.199.292-13.347 0-14.928-.051-20.198-.292-4.873-.222-7.52-1.036-9.281-1.72-2.333-.907-3.998-1.99-5.747-3.74-1.75-1.749-2.833-3.414-3.74-5.747-.684-1.761-1.498-4.408-1.72-9.281-.24-5.27-.292-6.852-.292-20.198 0-13.347.051-14.928.292-20.198.222-4.874 1.036-7.52 1.72-9.281.907-2.334 1.99-3.999 3.74-5.748 1.749-1.749 3.414-2.832 5.747-3.739 1.761-.684 4.408-1.499 9.281-1.72 5.27-.241 6.852-.292 20.198-.292zm.002 56.305c-8.466 0-15.329-6.863-15.329-15.328 0-8.466 6.863-15.329 15.329-15.329 8.465 0 15.328 6.863 15.328 15.329 0 8.465-6.863 15.328-15.328 15.328zm0-38.943c-13.042 0-23.615 10.573-23.615 23.615 0 13.041 10.573 23.614 23.615 23.614 13.041 0 23.614-10.573 23.614-23.614C73.6 36.973 63.027 26.4 49.986 26.4zm30.065-.933a5.518 5.518 0 1 0-11.037 0 5.518 5.518 0 0 0 11.037 0z" fill-rule="nonzero" fill="currentColor"/>
    </symbol>
    <symbol id="listen" viewBox="0 0 33 34">
      <title>listen</title><path d="M29.409 27.96a16.446 16.446 0 0 1-12.345 5.531C7.934 33.491.509 26.07.509 16.947.509 7.824 7.935.403 17.064.403c4.919 0 9.318 2.127 12.345 5.53.237.237.426.615.426.993 0 .803-.615 1.418-1.42 1.418-.425 0-.85-.19-1.087-.52a13.827 13.827 0 0 0-10.264-4.585c-7.568 0-13.717 6.145-13.717 13.708 0 7.563 6.149 13.708 13.717 13.708 4.068 0 7.757-1.749 10.264-4.585.236-.331.662-.52 1.088-.52.804 0 1.419.614 1.419 1.418 0 .378-.142.756-.426.993zM33 16.5L21 24V9l12 7.5z" fill="currentColor" fill-rule="evenodd"/>
    </symbol>
    <symbol id="map" viewBox="0 0 30 32">
      <title>map</title><g fill="none" fill-rule="evenodd"><path d="M24.502 5.946L2.348 25.183A14.856 14.856 0 0 1 0 17.193c0-2.234.492-4.393 1.401-6.286.303.492.644.984 1.023 1.552 1.439 2.083 2.84 3.75 2.916 3.825l.946 1.136.947-1.136c.076-.076 1.477-1.742 2.916-3.825 2.045-2.992 3.068-5.188 3.068-6.779a6.76 6.76 0 0 0-.758-3.143 16.88 16.88 0 0 1 2.386-.19 14.75 14.75 0 0 1 9.657 3.599zm.34 22.153c2.954-2.726 4.81-6.589 4.81-10.906 0-3.37-1.098-6.438-2.992-8.937L15.072 18.329l9.77 9.77zm-20.525-.454A14.821 14.821 0 0 0 14.845 32c2.727 0 5.264-.72 7.46-2.007l-9.619-9.581-8.369 7.233z" fill="currentColor"/><path d="M.606 5.68c0-.87.19-1.704.568-2.461.19-.417.454-.795.72-1.136a7.15 7.15 0 0 1 .757-.758c.151-.113.303-.227.416-.34.152-.114.303-.19.455-.265.379-.19.72-.341 1.06-.455C5.112.114 5.68 0 6.25 0a5.7 5.7 0 0 1 4.014 1.666l.19.19c.378.416.68.87.908 1.363.34.757.568 1.59.568 2.461 0 3.144-5.643 9.77-5.643 9.77S.606 8.787.606 5.68zm3.446-.53c0 .417.114.796.303 1.136.076.152.19.303.34.417l.077.076c.378.34.908.568 1.477.568.265 0 .53-.038.757-.152.038 0 .076-.038.114-.038.151-.075.302-.151.454-.265.53-.416.871-1.06.871-1.78 0-.113 0-.227-.038-.34 0-.076-.038-.152-.038-.228a2.727 2.727 0 0 0-.568-1.022 2.145 2.145 0 0 0-1.552-.644c-.796 0-1.515.417-1.894 1.06-.114.19-.19.38-.265.606 0 .076-.038.152-.038.228v.378z" fill="#C16443"/></g>
    </symbol>
    <symbol id="subscribe" viewBox="0 0 34 35">
      <title>subscribe</title><path d="M20.696 17.26a4.44 4.44 0 0 0-4.435-4.434 4.44 4.44 0 0 0-4.435 4.435 4.44 4.44 0 0 0 4.435 4.435 4.44 4.44 0 0 0 4.435-4.435zm-5.913 0a1.48 1.48 0 0 1 1.478-1.477 1.48 1.48 0 0 1 1.478 1.478 1.48 1.48 0 0 1-1.478 1.478 1.48 1.48 0 0 1-1.478-1.478zm1.478-9.977c5.503 0 9.978 4.476 9.978 9.978a9.92 9.92 0 0 1-3.892 7.91 1.112 1.112 0 0 1-1.557-.201 1.11 1.11 0 0 1 .203-1.555 7.719 7.719 0 0 0 3.029-6.154c0-4.28-3.482-7.761-7.761-7.761-4.28 0-7.761 3.481-7.761 7.76a7.716 7.716 0 0 0 3.03 6.155 1.11 1.11 0 0 1 .201 1.555 1.107 1.107 0 0 1-1.555.201 9.92 9.92 0 0 1-3.893-7.91c0-5.502 4.476-9.978 9.978-9.978zm11.297 21.9c-.236.284-.614.425-.993.425a1.393 1.393 0 0 1-1.418-1.419c0-.425.19-.85.52-1.087 2.836-2.507 4.585-6.197 4.585-10.264 0-7.568-6.145-13.717-13.708-13.717-7.563 0-13.708 6.149-13.708 13.717 0 4.067 1.796 7.757 4.585 10.264.331.236.52.662.52 1.087 0 .805-.614 1.42-1.418 1.42-.378 0-.756-.19-.992-.426A16.446 16.446 0 0 1 0 16.838C0 7.708 7.421.283 16.544.283c9.123 0 16.545 7.426 16.545 16.555 0 4.919-2.128 9.318-5.531 12.345zm-9.819-4.53l2.957 8.869c.323.715-.661 1.478-1.479 1.478h-5.913c-.816 0-1.824-.693-1.478-1.478l2.957-8.87c.221-.78.662-1.478 1.478-1.478s1.144.585 1.478 1.478z" fill="currentColor" fill-rule="evenodd"/>
    </symbol>
    <symbol id="tgc-logo-long-no-ring-themed" viewBox="0 0 1880 110">
      <title>The Globe Church</title><g fill="none" fill-rule="evenodd"><path d="M26.876 15.732H2.808C1.183 15.732 0 14.398 0 12.927V4.65c0-1.486 1.183-2.814 2.808-2.814h63.499c1.62 0 2.8 1.328 2.8 2.814v8.277c0 1.47-1.18 2.805-2.8 2.805H42.234V102.5c0 1.486-1.328 2.812-2.803 2.812h-9.747c-1.475 0-2.808-1.326-2.808-2.812V15.732M114.61 4.65c0-1.486 1.333-2.814 2.808-2.814h9.747c1.62 0 2.803 1.328 2.803 2.814v41.24h54.044V4.65c0-1.486 1.183-2.814 2.812-2.814h9.744c1.478 0 2.802 1.328 2.802 2.814v97.85c0 1.485-1.324 2.81-2.802 2.81h-9.744c-1.63 0-2.812-1.325-2.812-2.81V59.784h-54.044v42.714c0 1.486-1.183 2.812-2.803 2.812h-9.747c-1.475 0-2.808-1.326-2.808-2.812V4.65M257.58 4.65c0-1.486 1.179-2.814 2.802-2.814h59.064c1.63 0 2.812 1.328 2.812 2.814v8.277c0 1.47-1.183 2.805-2.812 2.805h-46.662v30.159h39.431c1.478 0 2.803 1.331 2.803 2.802v8.28a2.803 2.803 0 0 1-2.803 2.812h-39.431v31.782h46.662c1.63 0 2.812 1.33 2.812 2.806v8.126c0 1.486-1.183 2.812-2.812 2.812h-59.064c-1.623 0-2.803-1.326-2.803-2.812V4.65M481.765.359c14.175 0 25.838 5.17 35.878 13.749 1.182 1.183 1.333 2.956.15 4.14-2.217 2.364-4.428 4.578-6.648 6.942-1.18 1.335-2.362 1.184-3.838-.15-6.938-6.055-16.094-10.05-25.105-10.05-20.966 0-37.06 17.738-37.06 38.435 0 20.55 16.094 38.287 37.06 38.287 12.26 0 20.674-4.435 22.152-5.024V70.13h-14.471c-1.623 0-2.803-1.18-2.803-2.66v-8.573c0-1.622 1.18-2.806 2.803-2.806h26.876c1.475 0 2.657 1.329 2.657 2.806 0 11.825.151 23.946.151 35.772 0 .737-.591 1.918-1.182 2.364 0 0-15.213 9.757-36.62 9.757-29.389 0-53.16-23.5-53.16-53.063 0-29.567 23.771-53.368 53.16-53.368M575.11 1.836h9.747c1.475 0 2.808 1.328 2.808 2.814v86.917h40.014c1.629 0 2.808 1.33 2.808 2.806v8.126c0 1.486-1.18 2.812-2.808 2.812h-52.57c-1.62 0-2.802-1.326-2.802-2.812V4.65c0-1.485 1.183-2.813 2.803-2.813z" fill="#FFF"/><path d="M716.118 73.464c16.645 0 30.272-13.52 30.272-30.182 0-16.56-13.627-30.425-30.272-30.425-16.535 0-30.16 13.865-30.16 30.425 0 16.662 13.625 30.182 30.16 30.182zm0-72.26c23.285 0 41.915 18.764 41.915 42.078 0 23.309-18.63 41.839-41.915 41.839-23.288 0-41.802-18.53-41.802-41.839 0-23.314 18.514-42.079 41.802-42.079z" fill="#D06348"/><path d="M858.823 46.775c9.449 0 15.213-6.954 15.213-15.823 0-9.011-5.764-15.22-15.213-15.22H838.89v31.043h19.934zm2.362 44.937c9.011 0 15.947-6.95 15.947-16.107 0-9.02-8.565-15.525-18.158-15.525h-20.236v31.632h22.447zM823.83 4.65c0-1.486 1.18-2.814 2.803-2.814h33.075c17.871 0 30.716 11.825 30.716 27.344 0 11.384-8.414 19.513-15.358 23.508 7.831 3.252 18.462 10.5 18.462 24.098 0 16.557-13.587 28.525-32.191 28.525h-34.704c-1.623 0-2.803-1.326-2.803-2.812V4.65zM945.23 4.65c0-1.486 1.182-2.814 2.811-2.814h59.064c1.623 0 2.803 1.328 2.803 2.814v8.277c0 1.47-1.18 2.805-2.803 2.805h-46.662v30.159h39.425c1.476 0 2.809 1.331 2.809 2.802v8.28c0 1.628-1.333 2.812-2.809 2.812h-39.425v31.782h46.662c1.623 0 2.803 1.33 2.803 2.806v8.126c0 1.486-1.18 2.812-2.803 2.812h-59.064c-1.629 0-2.811-1.326-2.811-2.812V4.65M1169.569.359c14.909 0 25.693 5.025 35.733 13.749 1.327 1.183 1.327 2.956.145 4.14l-6.498 6.65c-1.03 1.325-2.362 1.325-3.687 0-6.944-6.058-16.396-9.908-25.551-9.908-21.111 0-37.06 17.738-37.06 38.435 0 20.694 16.09 38.287 37.21 38.287 10.78 0 18.312-4.282 25.401-9.756 1.325-1.03 2.658-.885 3.545-.151l6.79 6.655c1.183 1.033.887 2.957-.15 3.987-10.043 9.765-22.74 14.343-35.878 14.343-29.534 0-53.311-23.5-53.311-53.063 0-29.567 23.777-53.368 53.31-53.368M1256.437 4.515c0-1.486 1.328-2.814 2.803-2.814h9.753c1.623 0 2.802 1.328 2.802 2.814v41.24h54.047V4.516c0-1.486 1.18-2.814 2.809-2.814h9.738c1.484 0 2.811 1.328 2.811 2.814v97.85c0 1.485-1.327 2.81-2.81 2.81h-9.74c-1.628 0-2.808-1.325-2.808-2.81V59.65h-54.047v42.714c0 1.486-1.18 2.812-2.803 2.812h-9.752c-1.475 0-2.803-1.326-2.803-2.812V4.514M1397.762 4.65c0-1.486 1.334-2.814 2.803-2.814h9.898c1.629 0 2.808 1.328 2.808 2.814v61.047c0 14.782 9.452 26.311 24.508 26.311 15.213 0 24.807-11.384 24.807-26.015V4.65c0-1.486 1.182-2.814 2.808-2.814h9.898c1.47 0 2.802 1.328 2.802 2.814v62.086c0 22.467-16.978 40.054-40.315 40.054-23.18 0-40.017-17.587-40.017-40.054V4.65M1576.758 52.096c9.593 0 18.013-8.132 18.013-18.33 0-9.606-8.42-17.596-18.013-17.596h-26.285v35.926h26.285zM1534.964 4.65c0-1.486 1.18-2.814 2.809-2.814h40.164c17.72 0 32.192 14.047 32.192 31.634 0 13.601-9.011 24.835-21.856 30.005l20.236 37.553c1.028 1.918 0 4.283-2.513 4.283h-11.521c-1.18 0-2.066-.734-2.362-1.326l-19.636-39.176h-22.3v37.69c0 1.486-1.327 2.812-2.81 2.812h-9.594c-1.629 0-2.809-1.326-2.809-2.812V4.65zM1708.496.359c14.918 0 25.7 5.025 35.742 13.749 1.325 1.183 1.325 2.956.145 4.14l-6.498 6.65c-1.037 1.325-2.362 1.325-3.69 0-6.944-6.058-16.392-9.908-25.548-9.908-21.114 0-37.06 17.738-37.06 38.435 0 20.694 16.091 38.287 37.21 38.287 10.777 0 18.312-4.282 25.399-9.756 1.327-1.03 2.652-.885 3.544-.151l6.785 6.655c1.183 1.033.893 2.957-.142 3.987-10.042 9.765-22.743 14.343-35.887 14.343-29.533 0-53.305-23.5-53.305-53.063 0-29.567 23.772-53.368 53.305-53.368M1795.06 4.515c0-1.486 1.327-2.814 2.803-2.814h9.752c1.623 0 2.803 1.328 2.803 2.814v41.24h54.047V4.516c0-1.486 1.18-2.814 2.809-2.814h9.738c1.484 0 2.811 1.328 2.811 2.814v97.85c0 1.485-1.327 2.81-2.811 2.81h-9.738c-1.63 0-2.809-1.325-2.809-2.81V59.65h-54.047v42.714c0 1.486-1.18 2.812-2.803 2.812h-9.752c-1.476 0-2.803-1.326-2.803-2.812V4.514" fill="#FFF"/><rect fill="#D06348" x="685.843" y="100.204" width="62.874" height="10.627" rx="1.75"/></g>
    </symbol>
    <symbol id="tgc-logo-long-no-ring" viewBox="0 0 1880 110">
      <title>The Globe Church</title><g fill="none" fill-rule="evenodd"><path d="M26.876 15.732H2.808C1.183 15.732 0 14.398 0 12.927V4.65c0-1.486 1.183-2.814 2.808-2.814h63.499c1.62 0 2.8 1.328 2.8 2.814v8.277c0 1.47-1.18 2.805-2.8 2.805H42.234V102.5c0 1.486-1.328 2.812-2.803 2.812h-9.747c-1.475 0-2.808-1.326-2.808-2.812V15.732M114.61 4.65c0-1.486 1.333-2.814 2.808-2.814h9.747c1.62 0 2.803 1.328 2.803 2.814v41.24h54.044V4.65c0-1.486 1.183-2.814 2.812-2.814h9.744c1.478 0 2.802 1.328 2.802 2.814v97.85c0 1.485-1.324 2.81-2.802 2.81h-9.744c-1.63 0-2.812-1.325-2.812-2.81V59.784h-54.044v42.714c0 1.486-1.183 2.812-2.803 2.812h-9.747c-1.475 0-2.808-1.326-2.808-2.812V4.65M257.58 4.65c0-1.486 1.179-2.814 2.802-2.814h59.064c1.63 0 2.812 1.328 2.812 2.814v8.277c0 1.47-1.183 2.805-2.812 2.805h-46.662v30.159h39.431c1.478 0 2.803 1.331 2.803 2.802v8.28a2.803 2.803 0 0 1-2.803 2.812h-39.431v31.782h46.662c1.63 0 2.812 1.33 2.812 2.806v8.126c0 1.486-1.183 2.812-2.812 2.812h-59.064c-1.623 0-2.803-1.326-2.803-2.812V4.65" fill="#282938"/><path d="M481.765.359c14.175 0 25.838 5.17 35.878 13.749 1.182 1.183 1.333 2.956.15 4.14-2.217 2.364-4.428 4.578-6.648 6.942-1.18 1.335-2.362 1.184-3.838-.15-6.938-6.055-16.094-10.05-25.105-10.05-20.966 0-37.06 17.738-37.06 38.435 0 20.55 16.094 38.287 37.06 38.287 12.26 0 20.674-4.435 22.152-5.024V70.13h-14.471c-1.623 0-2.803-1.18-2.803-2.66v-8.573c0-1.622 1.18-2.806 2.803-2.806h26.876c1.475 0 2.657 1.329 2.657 2.806 0 11.825.151 23.946.151 35.772 0 .737-.591 1.918-1.182 2.364 0 0-15.213 9.757-36.62 9.757-29.389 0-53.16-23.5-53.16-53.063 0-29.567 23.771-53.368 53.16-53.368M575.11 1.836h9.747c1.475 0 2.808 1.328 2.808 2.814v86.917h40.014c1.629 0 2.808 1.33 2.808 2.806v8.126c0 1.486-1.18 2.812-2.808 2.812h-52.57c-1.62 0-2.802-1.326-2.802-2.812V4.65c0-1.485 1.183-2.813 2.803-2.813z" fill="#292A38"/><path d="M716.118 73.464c16.645 0 30.272-13.52 30.272-30.182 0-16.56-13.627-30.425-30.272-30.425-16.535 0-30.16 13.865-30.16 30.425 0 16.662 13.625 30.182 30.16 30.182zm0-72.26c23.285 0 41.915 18.764 41.915 42.078 0 23.309-18.63 41.839-41.915 41.839-23.288 0-41.802-18.53-41.802-41.839 0-23.314 18.514-42.079 41.802-42.079z" fill="#D06348"/><path d="M858.823 46.775c9.449 0 15.213-6.954 15.213-15.823 0-9.011-5.764-15.22-15.213-15.22H838.89v31.043h19.934zm2.362 44.937c9.011 0 15.947-6.95 15.947-16.107 0-9.02-8.565-15.525-18.158-15.525h-20.236v31.632h22.447zM823.83 4.65c0-1.486 1.18-2.814 2.803-2.814h33.075c17.871 0 30.716 11.825 30.716 27.344 0 11.384-8.414 19.513-15.358 23.508 7.831 3.252 18.462 10.5 18.462 24.098 0 16.557-13.587 28.525-32.191 28.525h-34.704c-1.623 0-2.803-1.326-2.803-2.812V4.65zM945.23 4.65c0-1.486 1.182-2.814 2.811-2.814h59.064c1.623 0 2.803 1.328 2.803 2.814v8.277c0 1.47-1.18 2.805-2.803 2.805h-46.662v30.159h39.425c1.476 0 2.809 1.331 2.809 2.802v8.28c0 1.628-1.333 2.812-2.809 2.812h-39.425v31.782h46.662c1.623 0 2.803 1.33 2.803 2.806v8.126c0 1.486-1.18 2.812-2.803 2.812h-59.064c-1.629 0-2.811-1.326-2.811-2.812V4.65" fill="#292A38"/><path d="M1169.569.359c14.909 0 25.693 5.025 35.733 13.749 1.327 1.183 1.327 2.956.145 4.14l-6.498 6.65c-1.03 1.325-2.362 1.325-3.687 0-6.944-6.058-16.396-9.908-25.551-9.908-21.111 0-37.06 17.738-37.06 38.435 0 20.694 16.09 38.287 37.21 38.287 10.78 0 18.312-4.282 25.401-9.756 1.325-1.03 2.658-.885 3.545-.151l6.79 6.655c1.183 1.033.887 2.957-.15 3.987-10.043 9.765-22.74 14.343-35.878 14.343-29.534 0-53.311-23.5-53.311-53.063 0-29.567 23.777-53.368 53.31-53.368M1256.437 4.515c0-1.486 1.328-2.814 2.803-2.814h9.753c1.623 0 2.802 1.328 2.802 2.814v41.24h54.047V4.516c0-1.486 1.18-2.814 2.809-2.814h9.738c1.484 0 2.811 1.328 2.811 2.814v97.85c0 1.485-1.327 2.81-2.81 2.81h-9.74c-1.628 0-2.808-1.325-2.808-2.81V59.65h-54.047v42.714c0 1.486-1.18 2.812-2.803 2.812h-9.752c-1.475 0-2.803-1.326-2.803-2.812V4.514M1397.762 4.65c0-1.486 1.334-2.814 2.803-2.814h9.898c1.629 0 2.808 1.328 2.808 2.814v61.047c0 14.782 9.452 26.311 24.508 26.311 15.213 0 24.807-11.384 24.807-26.015V4.65c0-1.486 1.182-2.814 2.808-2.814h9.898c1.47 0 2.802 1.328 2.802 2.814v62.086c0 22.467-16.978 40.054-40.315 40.054-23.18 0-40.017-17.587-40.017-40.054V4.65M1576.758 52.096c9.593 0 18.013-8.132 18.013-18.33 0-9.606-8.42-17.596-18.013-17.596h-26.285v35.926h26.285zM1534.964 4.65c0-1.486 1.18-2.814 2.809-2.814h40.164c17.72 0 32.192 14.047 32.192 31.634 0 13.601-9.011 24.835-21.856 30.005l20.236 37.553c1.028 1.918 0 4.283-2.513 4.283h-11.521c-1.18 0-2.066-.734-2.362-1.326l-19.636-39.176h-22.3v37.69c0 1.486-1.327 2.812-2.81 2.812h-9.594c-1.629 0-2.809-1.326-2.809-2.812V4.65zM1708.496.359c14.918 0 25.7 5.025 35.742 13.749 1.325 1.183 1.325 2.956.145 4.14l-6.498 6.65c-1.037 1.325-2.362 1.325-3.69 0-6.944-6.058-16.392-9.908-25.548-9.908-21.114 0-37.06 17.738-37.06 38.435 0 20.694 16.091 38.287 37.21 38.287 10.777 0 18.312-4.282 25.399-9.756 1.327-1.03 2.652-.885 3.544-.151l6.785 6.655c1.183 1.033.893 2.957-.142 3.987-10.042 9.765-22.743 14.343-35.887 14.343-29.533 0-53.305-23.5-53.305-53.063 0-29.567 23.772-53.368 53.305-53.368M1795.06 4.515c0-1.486 1.327-2.814 2.803-2.814h9.752c1.623 0 2.803 1.328 2.803 2.814v41.24h54.047V4.516c0-1.486 1.18-2.814 2.809-2.814h9.738c1.484 0 2.811 1.328 2.811 2.814v97.85c0 1.485-1.327 2.81-2.811 2.81h-9.738c-1.63 0-2.809-1.325-2.809-2.81V59.65h-54.047v42.714c0 1.486-1.18 2.812-2.803 2.812h-9.752c-1.476 0-2.803-1.326-2.803-2.812V4.514" fill="#282938"/><rect fill="#D06348" x="685.843" y="100.204" width="62.874" height="10.627" rx="1.75"/></g>
    </symbol>
    <symbol id="tgc-logo-long-outline-themed" viewBox="0 0 1880 700">
      <title>The Globe Church</title><g fill="none" fill-rule="evenodd"><path d="M1065.868 349.996c0 193.302-156.7 350.004-350 350.004-193.297 0-350-156.702-350-350.004C365.868 156.702 522.571 0 715.868 0c193.3 0 350 156.702 350 349.996z" stroke="#D06348"/><path d="M26.876 313.732H2.808c-1.625 0-2.808-1.334-2.808-2.805v-8.277c0-1.486 1.183-2.814 2.808-2.814h63.499c1.62 0 2.8 1.328 2.8 2.814v8.277c0 1.47-1.18 2.805-2.8 2.805H42.234V400.5c0 1.486-1.328 2.812-2.803 2.812h-9.747c-1.475 0-2.808-1.326-2.808-2.812v-86.767M114.61 302.65c0-1.486 1.333-2.814 2.808-2.814h9.747c1.62 0 2.803 1.328 2.803 2.814v41.24h54.044v-41.24c0-1.486 1.183-2.814 2.812-2.814h9.744c1.478 0 2.802 1.328 2.802 2.814v97.85c0 1.485-1.324 2.81-2.802 2.81h-9.744c-1.63 0-2.812-1.325-2.812-2.81v-42.715h-54.044v42.714c0 1.486-1.183 2.812-2.803 2.812h-9.747c-1.475 0-2.808-1.326-2.808-2.812v-97.85M257.58 302.65c0-1.486 1.179-2.814 2.802-2.814h59.064c1.63 0 2.812 1.328 2.812 2.814v8.277c0 1.47-1.183 2.805-2.812 2.805h-46.662v30.159h39.431c1.478 0 2.803 1.331 2.803 2.802v8.28a2.803 2.803 0 0 1-2.803 2.812h-39.431v31.782h46.662c1.63 0 2.812 1.33 2.812 2.806v8.126c0 1.486-1.183 2.812-2.812 2.812h-59.064c-1.623 0-2.803-1.326-2.803-2.812v-97.85M481.765 298.359c14.175 0 25.838 5.17 35.878 13.749 1.182 1.183 1.333 2.956.15 4.14-2.217 2.364-4.428 4.578-6.648 6.942-1.18 1.335-2.362 1.184-3.838-.15-6.938-6.055-16.094-10.05-25.105-10.05-20.966 0-37.06 17.738-37.06 38.435 0 20.55 16.094 38.287 37.06 38.287 12.26 0 20.674-4.435 22.152-5.024V368.13h-14.471c-1.623 0-2.803-1.18-2.803-2.66v-8.573c0-1.622 1.18-2.806 2.803-2.806h26.876c1.475 0 2.657 1.329 2.657 2.806 0 11.825.151 23.946.151 35.772 0 .737-.591 1.918-1.182 2.364 0 0-15.213 9.757-36.62 9.757-29.389 0-53.16-23.5-53.16-53.063 0-29.567 23.771-53.368 53.16-53.368M575.11 299.836h9.747c1.475 0 2.808 1.328 2.808 2.814v86.917h40.014c1.629 0 2.808 1.33 2.808 2.806v8.126c0 1.486-1.18 2.812-2.808 2.812h-52.57c-1.62 0-2.802-1.326-2.802-2.812v-97.85c0-1.485 1.183-2.813 2.803-2.813z" fill="#FFF"/><path d="M716.118 371.464c16.645 0 30.272-13.52 30.272-30.182 0-16.56-13.627-30.425-30.272-30.425-16.535 0-30.16 13.865-30.16 30.425 0 16.662 13.625 30.182 30.16 30.182zm0-72.26c23.285 0 41.915 18.764 41.915 42.078 0 23.309-18.63 41.839-41.915 41.839-23.288 0-41.802-18.53-41.802-41.839 0-23.314 18.514-42.079 41.802-42.079z" fill="#D06348"/><path d="M858.823 344.775c9.449 0 15.213-6.954 15.213-15.823 0-9.011-5.764-15.22-15.213-15.22H838.89v31.043h19.934zm2.362 44.937c9.011 0 15.947-6.95 15.947-16.107 0-9.02-8.565-15.525-18.158-15.525h-20.236v31.632h22.447zM823.83 302.65c0-1.486 1.18-2.814 2.803-2.814h33.075c17.871 0 30.716 11.825 30.716 27.344 0 11.384-8.414 19.513-15.358 23.508 7.831 3.252 18.462 10.5 18.462 24.098 0 16.557-13.587 28.525-32.191 28.525h-34.704c-1.623 0-2.803-1.326-2.803-2.812v-97.85zM945.23 302.65c0-1.486 1.182-2.814 2.811-2.814h59.064c1.623 0 2.803 1.328 2.803 2.814v8.277c0 1.47-1.18 2.805-2.803 2.805h-46.662v30.159h39.425c1.476 0 2.809 1.331 2.809 2.802v8.28c0 1.628-1.333 2.812-2.809 2.812h-39.425v31.782h46.662c1.623 0 2.803 1.33 2.803 2.806v8.126c0 1.486-1.18 2.812-2.803 2.812h-59.064c-1.629 0-2.811-1.326-2.811-2.812v-97.85M1169.569 298.359c14.909 0 25.693 5.025 35.733 13.749 1.327 1.183 1.327 2.956.145 4.14l-6.498 6.65c-1.03 1.325-2.362 1.325-3.687 0-6.944-6.058-16.396-9.908-25.551-9.908-21.111 0-37.06 17.738-37.06 38.435 0 20.694 16.09 38.287 37.21 38.287 10.78 0 18.312-4.282 25.401-9.756 1.325-1.03 2.658-.885 3.545-.151l6.79 6.655c1.183 1.033.887 2.957-.15 3.987-10.043 9.765-22.74 14.343-35.878 14.343-29.534 0-53.311-23.5-53.311-53.063 0-29.567 23.777-53.368 53.31-53.368M1256.437 302.515c0-1.486 1.328-2.814 2.803-2.814h9.753c1.623 0 2.802 1.328 2.802 2.814v41.24h54.047v-41.24c0-1.486 1.18-2.814 2.809-2.814h9.738c1.484 0 2.811 1.328 2.811 2.814v97.85c0 1.485-1.327 2.81-2.81 2.81h-9.74c-1.628 0-2.808-1.325-2.808-2.81V357.65h-54.047v42.714c0 1.486-1.18 2.812-2.803 2.812h-9.752c-1.475 0-2.803-1.326-2.803-2.812v-97.85M1397.762 302.65c0-1.486 1.334-2.814 2.803-2.814h9.898c1.629 0 2.808 1.328 2.808 2.814v61.047c0 14.782 9.452 26.311 24.508 26.311 15.213 0 24.807-11.384 24.807-26.015V302.65c0-1.486 1.182-2.814 2.808-2.814h9.898c1.47 0 2.802 1.328 2.802 2.814v62.086c0 22.467-16.978 40.054-40.315 40.054-23.18 0-40.017-17.587-40.017-40.054V302.65M1576.758 350.096c9.593 0 18.013-8.132 18.013-18.33 0-9.606-8.42-17.596-18.013-17.596h-26.285v35.926h26.285zm-41.794-47.446c0-1.486 1.18-2.814 2.809-2.814h40.164c17.72 0 32.192 14.047 32.192 31.634 0 13.601-9.011 24.835-21.856 30.005l20.236 37.553c1.028 1.918 0 4.283-2.513 4.283h-11.521c-1.18 0-2.066-.734-2.362-1.326l-19.636-39.176h-22.3v37.69c0 1.486-1.327 2.812-2.81 2.812h-9.594c-1.629 0-2.809-1.326-2.809-2.812v-97.85zM1708.496 298.359c14.918 0 25.7 5.025 35.742 13.749 1.325 1.183 1.325 2.956.145 4.14l-6.498 6.65c-1.037 1.325-2.362 1.325-3.69 0-6.944-6.058-16.392-9.908-25.548-9.908-21.114 0-37.06 17.738-37.06 38.435 0 20.694 16.091 38.287 37.21 38.287 10.777 0 18.312-4.282 25.399-9.756 1.327-1.03 2.652-.885 3.544-.151l6.785 6.655c1.183 1.033.893 2.957-.142 3.987-10.042 9.765-22.743 14.343-35.887 14.343-29.533 0-53.305-23.5-53.305-53.063 0-29.567 23.772-53.368 53.305-53.368M1795.06 302.515c0-1.486 1.327-2.814 2.803-2.814h9.752c1.623 0 2.803 1.328 2.803 2.814v41.24h54.047v-41.24c0-1.486 1.18-2.814 2.809-2.814h9.738c1.484 0 2.811 1.328 2.811 2.814v97.85c0 1.485-1.327 2.81-2.811 2.81h-9.738c-1.63 0-2.809-1.325-2.809-2.81V357.65h-54.047v42.714c0 1.486-1.18 2.812-2.803 2.812h-9.752c-1.476 0-2.803-1.326-2.803-2.812v-97.85" fill="#FFF"/><rect fill="#D06348" x="685.843" y="398.204" width="62.874" height="10.627" rx="1.75"/></g>
    </symbol>
    <symbol id="tgc-logo-long-outline" viewBox="0 0 1880 700">
      <title>The Globe Church</title><g fill="none" fill-rule="evenodd"><path d="M1065.868 349.996c0 193.302-156.7 350.004-350 350.004-193.297 0-350-156.702-350-350.004C365.868 156.702 522.571 0 715.868 0c193.3 0 350 156.702 350 349.996z" stroke="#D06348"/><path d="M26.876 313.732H2.808c-1.625 0-2.808-1.334-2.808-2.805v-8.277c0-1.486 1.183-2.814 2.808-2.814h63.499c1.62 0 2.8 1.328 2.8 2.814v8.277c0 1.47-1.18 2.805-2.8 2.805H42.234V400.5c0 1.486-1.328 2.812-2.803 2.812h-9.747c-1.475 0-2.808-1.326-2.808-2.812v-86.767M114.61 302.65c0-1.486 1.333-2.814 2.808-2.814h9.747c1.62 0 2.803 1.328 2.803 2.814v41.24h54.044v-41.24c0-1.486 1.183-2.814 2.812-2.814h9.744c1.478 0 2.802 1.328 2.802 2.814v97.85c0 1.485-1.324 2.81-2.802 2.81h-9.744c-1.63 0-2.812-1.325-2.812-2.81v-42.715h-54.044v42.714c0 1.486-1.183 2.812-2.803 2.812h-9.747c-1.475 0-2.808-1.326-2.808-2.812v-97.85M257.58 302.65c0-1.486 1.179-2.814 2.802-2.814h59.064c1.63 0 2.812 1.328 2.812 2.814v8.277c0 1.47-1.183 2.805-2.812 2.805h-46.662v30.159h39.431c1.478 0 2.803 1.331 2.803 2.802v8.28a2.803 2.803 0 0 1-2.803 2.812h-39.431v31.782h46.662c1.63 0 2.812 1.33 2.812 2.806v8.126c0 1.486-1.183 2.812-2.812 2.812h-59.064c-1.623 0-2.803-1.326-2.803-2.812v-97.85" fill="#282938"/><path d="M481.765 298.359c14.175 0 25.838 5.17 35.878 13.749 1.182 1.183 1.333 2.956.15 4.14-2.217 2.364-4.428 4.578-6.648 6.942-1.18 1.335-2.362 1.184-3.838-.15-6.938-6.055-16.094-10.05-25.105-10.05-20.966 0-37.06 17.738-37.06 38.435 0 20.55 16.094 38.287 37.06 38.287 12.26 0 20.674-4.435 22.152-5.024V368.13h-14.471c-1.623 0-2.803-1.18-2.803-2.66v-8.573c0-1.622 1.18-2.806 2.803-2.806h26.876c1.475 0 2.657 1.329 2.657 2.806 0 11.825.151 23.946.151 35.772 0 .737-.591 1.918-1.182 2.364 0 0-15.213 9.757-36.62 9.757-29.389 0-53.16-23.5-53.16-53.063 0-29.567 23.771-53.368 53.16-53.368M575.11 299.836h9.747c1.475 0 2.808 1.328 2.808 2.814v86.917h40.014c1.629 0 2.808 1.33 2.808 2.806v8.126c0 1.486-1.18 2.812-2.808 2.812h-52.57c-1.62 0-2.802-1.326-2.802-2.812v-97.85c0-1.485 1.183-2.813 2.803-2.813z" fill="#292A38"/><path d="M716.118 371.464c16.645 0 30.272-13.52 30.272-30.182 0-16.56-13.627-30.425-30.272-30.425-16.535 0-30.16 13.865-30.16 30.425 0 16.662 13.625 30.182 30.16 30.182zm0-72.26c23.285 0 41.915 18.764 41.915 42.078 0 23.309-18.63 41.839-41.915 41.839-23.288 0-41.802-18.53-41.802-41.839 0-23.314 18.514-42.079 41.802-42.079z" fill="#D06348"/><path d="M858.823 344.775c9.449 0 15.213-6.954 15.213-15.823 0-9.011-5.764-15.22-15.213-15.22H838.89v31.043h19.934zm2.362 44.937c9.011 0 15.947-6.95 15.947-16.107 0-9.02-8.565-15.525-18.158-15.525h-20.236v31.632h22.447zM823.83 302.65c0-1.486 1.18-2.814 2.803-2.814h33.075c17.871 0 30.716 11.825 30.716 27.344 0 11.384-8.414 19.513-15.358 23.508 7.831 3.252 18.462 10.5 18.462 24.098 0 16.557-13.587 28.525-32.191 28.525h-34.704c-1.623 0-2.803-1.326-2.803-2.812v-97.85zM945.23 302.65c0-1.486 1.182-2.814 2.811-2.814h59.064c1.623 0 2.803 1.328 2.803 2.814v8.277c0 1.47-1.18 2.805-2.803 2.805h-46.662v30.159h39.425c1.476 0 2.809 1.331 2.809 2.802v8.28c0 1.628-1.333 2.812-2.809 2.812h-39.425v31.782h46.662c1.623 0 2.803 1.33 2.803 2.806v8.126c0 1.486-1.18 2.812-2.803 2.812h-59.064c-1.629 0-2.811-1.326-2.811-2.812v-97.85" fill="#292A38"/><path d="M1169.569 298.359c14.909 0 25.693 5.025 35.733 13.749 1.327 1.183 1.327 2.956.145 4.14l-6.498 6.65c-1.03 1.325-2.362 1.325-3.687 0-6.944-6.058-16.396-9.908-25.551-9.908-21.111 0-37.06 17.738-37.06 38.435 0 20.694 16.09 38.287 37.21 38.287 10.78 0 18.312-4.282 25.401-9.756 1.325-1.03 2.658-.885 3.545-.151l6.79 6.655c1.183 1.033.887 2.957-.15 3.987-10.043 9.765-22.74 14.343-35.878 14.343-29.534 0-53.311-23.5-53.311-53.063 0-29.567 23.777-53.368 53.31-53.368M1256.437 302.515c0-1.486 1.328-2.814 2.803-2.814h9.753c1.623 0 2.802 1.328 2.802 2.814v41.24h54.047v-41.24c0-1.486 1.18-2.814 2.809-2.814h9.738c1.484 0 2.811 1.328 2.811 2.814v97.85c0 1.485-1.327 2.81-2.81 2.81h-9.74c-1.628 0-2.808-1.325-2.808-2.81V357.65h-54.047v42.714c0 1.486-1.18 2.812-2.803 2.812h-9.752c-1.475 0-2.803-1.326-2.803-2.812v-97.85M1397.762 302.65c0-1.486 1.334-2.814 2.803-2.814h9.898c1.629 0 2.808 1.328 2.808 2.814v61.047c0 14.782 9.452 26.311 24.508 26.311 15.213 0 24.807-11.384 24.807-26.015V302.65c0-1.486 1.182-2.814 2.808-2.814h9.898c1.47 0 2.802 1.328 2.802 2.814v62.086c0 22.467-16.978 40.054-40.315 40.054-23.18 0-40.017-17.587-40.017-40.054V302.65M1576.758 350.096c9.593 0 18.013-8.132 18.013-18.33 0-9.606-8.42-17.596-18.013-17.596h-26.285v35.926h26.285zm-41.794-47.446c0-1.486 1.18-2.814 2.809-2.814h40.164c17.72 0 32.192 14.047 32.192 31.634 0 13.601-9.011 24.835-21.856 30.005l20.236 37.553c1.028 1.918 0 4.283-2.513 4.283h-11.521c-1.18 0-2.066-.734-2.362-1.326l-19.636-39.176h-22.3v37.69c0 1.486-1.327 2.812-2.81 2.812h-9.594c-1.629 0-2.809-1.326-2.809-2.812v-97.85zM1708.496 298.359c14.918 0 25.7 5.025 35.742 13.749 1.325 1.183 1.325 2.956.145 4.14l-6.498 6.65c-1.037 1.325-2.362 1.325-3.69 0-6.944-6.058-16.392-9.908-25.548-9.908-21.114 0-37.06 17.738-37.06 38.435 0 20.694 16.091 38.287 37.21 38.287 10.777 0 18.312-4.282 25.399-9.756 1.327-1.03 2.652-.885 3.544-.151l6.785 6.655c1.183 1.033.893 2.957-.142 3.987-10.042 9.765-22.743 14.343-35.887 14.343-29.533 0-53.305-23.5-53.305-53.063 0-29.567 23.772-53.368 53.305-53.368M1795.06 302.515c0-1.486 1.327-2.814 2.803-2.814h9.752c1.623 0 2.803 1.328 2.803 2.814v41.24h54.047v-41.24c0-1.486 1.18-2.814 2.809-2.814h9.738c1.484 0 2.811 1.328 2.811 2.814v97.85c0 1.485-1.327 2.81-2.811 2.81h-9.738c-1.63 0-2.809-1.325-2.809-2.81V357.65h-54.047v42.714c0 1.486-1.18 2.812-2.803 2.812h-9.752c-1.476 0-2.803-1.326-2.803-2.812v-97.85" fill="#282938"/><rect fill="#D06348" x="685.843" y="398.204" width="62.874" height="10.627" rx="1.75"/></g>
    </symbol>
    <symbol id="tgc-logo-long-themed" viewBox="0 0 1880 700">
      <title>The Globe Church</title><g fill="none" fill-rule="evenodd"><path d="M1065.868 349.996c0 193.302-156.7 350.004-350 350.004-193.297 0-350-156.702-350-350.004C365.868 156.702 522.571 0 715.868 0c193.3 0 350 156.702 350 349.996z" fill="#D06348"/><path d="M26.876 313.732H2.808c-1.625 0-2.808-1.334-2.808-2.805v-8.277c0-1.486 1.183-2.814 2.808-2.814h63.499c1.62 0 2.8 1.328 2.8 2.814v8.277c0 1.47-1.18 2.805-2.8 2.805H42.234V400.5c0 1.486-1.328 2.812-2.803 2.812h-9.747c-1.475 0-2.808-1.326-2.808-2.812v-86.767M114.61 302.65c0-1.486 1.333-2.814 2.808-2.814h9.747c1.62 0 2.803 1.328 2.803 2.814v41.24h54.044v-41.24c0-1.486 1.183-2.814 2.812-2.814h9.744c1.478 0 2.802 1.328 2.802 2.814v97.85c0 1.485-1.324 2.81-2.802 2.81h-9.744c-1.63 0-2.812-1.325-2.812-2.81v-42.715h-54.044v42.714c0 1.486-1.183 2.812-2.803 2.812h-9.747c-1.475 0-2.808-1.326-2.808-2.812v-97.85M257.58 302.65c0-1.486 1.179-2.814 2.802-2.814h59.064c1.63 0 2.812 1.328 2.812 2.814v8.277c0 1.47-1.183 2.805-2.812 2.805h-46.662v30.159h39.431c1.478 0 2.803 1.331 2.803 2.802v8.28a2.803 2.803 0 0 1-2.803 2.812h-39.431v31.782h46.662c1.63 0 2.812 1.33 2.812 2.806v8.126c0 1.486-1.183 2.812-2.812 2.812h-59.064c-1.623 0-2.803-1.326-2.803-2.812v-97.85M481.765 298.359c14.175 0 25.838 5.17 35.878 13.749 1.182 1.183 1.333 2.956.15 4.14-2.217 2.364-4.428 4.578-6.648 6.942-1.18 1.335-2.362 1.184-3.838-.15-6.938-6.055-16.094-10.05-25.105-10.05-20.966 0-37.06 17.738-37.06 38.435 0 20.55 16.094 38.287 37.06 38.287 12.26 0 20.674-4.435 22.152-5.024V368.13h-14.471c-1.623 0-2.803-1.18-2.803-2.66v-8.573c0-1.622 1.18-2.806 2.803-2.806h26.876c1.475 0 2.657 1.329 2.657 2.806 0 11.825.151 23.946.151 35.772 0 .737-.591 1.918-1.182 2.364 0 0-15.213 9.757-36.62 9.757-29.389 0-53.16-23.5-53.16-53.063 0-29.567 23.771-53.368 53.16-53.368M575.11 299.836h9.747c1.475 0 2.808 1.328 2.808 2.814v86.917h40.014c1.629 0 2.808 1.33 2.808 2.806v8.126c0 1.486-1.18 2.812-2.808 2.812h-52.57c-1.62 0-2.802-1.326-2.802-2.812v-97.85c0-1.485 1.183-2.813 2.803-2.813zM716.118 371.464c16.645 0 30.272-13.52 30.272-30.182 0-16.56-13.627-30.425-30.272-30.425-16.535 0-30.16 13.865-30.16 30.425 0 16.662 13.625 30.182 30.16 30.182zm0-72.26c23.285 0 41.915 18.764 41.915 42.078 0 23.309-18.63 41.839-41.915 41.839-23.288 0-41.802-18.53-41.802-41.839 0-23.314 18.514-42.079 41.802-42.079zM858.823 344.775c9.449 0 15.213-6.954 15.213-15.823 0-9.011-5.764-15.22-15.213-15.22H838.89v31.043h19.934zm2.362 44.937c9.011 0 15.947-6.95 15.947-16.107 0-9.02-8.565-15.525-18.158-15.525h-20.236v31.632h22.447zM823.83 302.65c0-1.486 1.18-2.814 2.803-2.814h33.075c17.871 0 30.716 11.825 30.716 27.344 0 11.384-8.414 19.513-15.358 23.508 7.831 3.252 18.462 10.5 18.462 24.098 0 16.557-13.587 28.525-32.191 28.525h-34.704c-1.623 0-2.803-1.326-2.803-2.812v-97.85zM945.23 302.65c0-1.486 1.182-2.814 2.811-2.814h59.064c1.623 0 2.803 1.328 2.803 2.814v8.277c0 1.47-1.18 2.805-2.803 2.805h-46.662v30.159h39.425c1.476 0 2.809 1.331 2.809 2.802v8.28c0 1.628-1.333 2.812-2.809 2.812h-39.425v31.782h46.662c1.623 0 2.803 1.33 2.803 2.806v8.126c0 1.486-1.18 2.812-2.803 2.812h-59.064c-1.629 0-2.811-1.326-2.811-2.812v-97.85M1169.569 298.359c14.909 0 25.693 5.025 35.733 13.749 1.327 1.183 1.327 2.956.145 4.14l-6.498 6.65c-1.03 1.325-2.362 1.325-3.687 0-6.944-6.058-16.396-9.908-25.551-9.908-21.111 0-37.06 17.738-37.06 38.435 0 20.694 16.09 38.287 37.21 38.287 10.78 0 18.312-4.282 25.401-9.756 1.325-1.03 2.658-.885 3.545-.151l6.79 6.655c1.183 1.033.887 2.957-.15 3.987-10.043 9.765-22.74 14.343-35.878 14.343-29.534 0-53.311-23.5-53.311-53.063 0-29.567 23.777-53.368 53.31-53.368M1256.437 302.515c0-1.486 1.328-2.814 2.803-2.814h9.753c1.623 0 2.802 1.328 2.802 2.814v41.24h54.047v-41.24c0-1.486 1.18-2.814 2.809-2.814h9.738c1.484 0 2.811 1.328 2.811 2.814v97.85c0 1.485-1.327 2.81-2.81 2.81h-9.74c-1.628 0-2.808-1.325-2.808-2.81V357.65h-54.047v42.714c0 1.486-1.18 2.812-2.803 2.812h-9.752c-1.475 0-2.803-1.326-2.803-2.812v-97.85M1397.762 302.65c0-1.486 1.334-2.814 2.803-2.814h9.898c1.629 0 2.808 1.328 2.808 2.814v61.047c0 14.782 9.452 26.311 24.508 26.311 15.213 0 24.807-11.384 24.807-26.015V302.65c0-1.486 1.182-2.814 2.808-2.814h9.898c1.47 0 2.802 1.328 2.802 2.814v62.086c0 22.467-16.978 40.054-40.315 40.054-23.18 0-40.017-17.587-40.017-40.054V302.65M1576.758 350.096c9.593 0 18.013-8.132 18.013-18.33 0-9.606-8.42-17.596-18.013-17.596h-26.285v35.926h26.285zm-41.794-47.446c0-1.486 1.18-2.814 2.809-2.814h40.164c17.72 0 32.192 14.047 32.192 31.634 0 13.601-9.011 24.835-21.856 30.005l20.236 37.553c1.028 1.918 0 4.283-2.513 4.283h-11.521c-1.18 0-2.066-.734-2.362-1.326l-19.636-39.176h-22.3v37.69c0 1.486-1.327 2.812-2.81 2.812h-9.594c-1.629 0-2.809-1.326-2.809-2.812v-97.85zM1708.496 298.359c14.918 0 25.7 5.025 35.742 13.749 1.325 1.183 1.325 2.956.145 4.14l-6.498 6.65c-1.037 1.325-2.362 1.325-3.69 0-6.944-6.058-16.392-9.908-25.548-9.908-21.114 0-37.06 17.738-37.06 38.435 0 20.694 16.091 38.287 37.21 38.287 10.777 0 18.312-4.282 25.399-9.756 1.327-1.03 2.652-.885 3.544-.151l6.785 6.655c1.183 1.033.893 2.957-.142 3.987-10.042 9.765-22.743 14.343-35.887 14.343-29.533 0-53.305-23.5-53.305-53.063 0-29.567 23.772-53.368 53.305-53.368M1795.06 302.515c0-1.486 1.327-2.814 2.803-2.814h9.752c1.623 0 2.803 1.328 2.803 2.814v41.24h54.047v-41.24c0-1.486 1.18-2.814 2.809-2.814h9.738c1.484 0 2.811 1.328 2.811 2.814v97.85c0 1.485-1.327 2.81-2.811 2.81h-9.738c-1.63 0-2.809-1.325-2.809-2.81V357.65h-54.047v42.714c0 1.486-1.18 2.812-2.803 2.812h-9.752c-1.476 0-2.803-1.326-2.803-2.812v-97.85" fill="#FFF"/><rect fill="#FFF" x="685.843" y="398.204" width="62.874" height="10.627" rx="1.75"/></g>
    </symbol>
    <symbol id="tgc-logo-long" viewBox="0 0 1880 700">
      <title>The Globe Church</title><g fill="none" fill-rule="evenodd"><path d="M1065.868 349.996c0 193.302-156.7 350.004-350 350.004-193.297 0-350-156.702-350-350.004C365.868 156.702 522.571 0 715.868 0c193.3 0 350 156.702 350 349.996z" fill="#D06348"/><path d="M26.876 313.732H2.808c-1.625 0-2.808-1.334-2.808-2.805v-8.277c0-1.486 1.183-2.814 2.808-2.814h63.499c1.62 0 2.8 1.328 2.8 2.814v8.277c0 1.47-1.18 2.805-2.8 2.805H42.234V400.5c0 1.486-1.328 2.812-2.803 2.812h-9.747c-1.475 0-2.808-1.326-2.808-2.812v-86.767M114.61 302.65c0-1.486 1.333-2.814 2.808-2.814h9.747c1.62 0 2.803 1.328 2.803 2.814v41.24h54.044v-41.24c0-1.486 1.183-2.814 2.812-2.814h9.744c1.478 0 2.802 1.328 2.802 2.814v97.85c0 1.485-1.324 2.81-2.802 2.81h-9.744c-1.63 0-2.812-1.325-2.812-2.81v-42.715h-54.044v42.714c0 1.486-1.183 2.812-2.803 2.812h-9.747c-1.475 0-2.808-1.326-2.808-2.812v-97.85M257.58 302.65c0-1.486 1.179-2.814 2.802-2.814h59.064c1.63 0 2.812 1.328 2.812 2.814v8.277c0 1.47-1.183 2.805-2.812 2.805h-46.662v30.159h39.431c1.478 0 2.803 1.331 2.803 2.802v8.28a2.803 2.803 0 0 1-2.803 2.812h-39.431v31.782h46.662c1.63 0 2.812 1.33 2.812 2.806v8.126c0 1.486-1.183 2.812-2.812 2.812h-59.064c-1.623 0-2.803-1.326-2.803-2.812v-97.85" fill="#282938"/><path d="M481.765 298.359c14.175 0 25.838 5.17 35.878 13.749 1.182 1.183 1.333 2.956.15 4.14-2.217 2.364-4.428 4.578-6.648 6.942-1.18 1.335-2.362 1.184-3.838-.15-6.938-6.055-16.094-10.05-25.105-10.05-20.966 0-37.06 17.738-37.06 38.435 0 20.55 16.094 38.287 37.06 38.287 12.26 0 20.674-4.435 22.152-5.024V368.13h-14.471c-1.623 0-2.803-1.18-2.803-2.66v-8.573c0-1.622 1.18-2.806 2.803-2.806h26.876c1.475 0 2.657 1.329 2.657 2.806 0 11.825.151 23.946.151 35.772 0 .737-.591 1.918-1.182 2.364 0 0-15.213 9.757-36.62 9.757-29.389 0-53.16-23.5-53.16-53.063 0-29.567 23.771-53.368 53.16-53.368M575.11 299.836h9.747c1.475 0 2.808 1.328 2.808 2.814v86.917h40.014c1.629 0 2.808 1.33 2.808 2.806v8.126c0 1.486-1.18 2.812-2.808 2.812h-52.57c-1.62 0-2.802-1.326-2.802-2.812v-97.85c0-1.485 1.183-2.813 2.803-2.813zM716.118 371.464c16.645 0 30.272-13.52 30.272-30.182 0-16.56-13.627-30.425-30.272-30.425-16.535 0-30.16 13.865-30.16 30.425 0 16.662 13.625 30.182 30.16 30.182zm0-72.26c23.285 0 41.915 18.764 41.915 42.078 0 23.309-18.63 41.839-41.915 41.839-23.288 0-41.802-18.53-41.802-41.839 0-23.314 18.514-42.079 41.802-42.079zM858.823 344.775c9.449 0 15.213-6.954 15.213-15.823 0-9.011-5.764-15.22-15.213-15.22H838.89v31.043h19.934zm2.362 44.937c9.011 0 15.947-6.95 15.947-16.107 0-9.02-8.565-15.525-18.158-15.525h-20.236v31.632h22.447zM823.83 302.65c0-1.486 1.18-2.814 2.803-2.814h33.075c17.871 0 30.716 11.825 30.716 27.344 0 11.384-8.414 19.513-15.358 23.508 7.831 3.252 18.462 10.5 18.462 24.098 0 16.557-13.587 28.525-32.191 28.525h-34.704c-1.623 0-2.803-1.326-2.803-2.812v-97.85zM945.23 302.65c0-1.486 1.182-2.814 2.811-2.814h59.064c1.623 0 2.803 1.328 2.803 2.814v8.277c0 1.47-1.18 2.805-2.803 2.805h-46.662v30.159h39.425c1.476 0 2.809 1.331 2.809 2.802v8.28c0 1.628-1.333 2.812-2.809 2.812h-39.425v31.782h46.662c1.623 0 2.803 1.33 2.803 2.806v8.126c0 1.486-1.18 2.812-2.803 2.812h-59.064c-1.629 0-2.811-1.326-2.811-2.812v-97.85" fill="#FFF"/><path d="M1169.569 298.359c14.909 0 25.693 5.025 35.733 13.749 1.327 1.183 1.327 2.956.145 4.14l-6.498 6.65c-1.03 1.325-2.362 1.325-3.687 0-6.944-6.058-16.396-9.908-25.551-9.908-21.111 0-37.06 17.738-37.06 38.435 0 20.694 16.09 38.287 37.21 38.287 10.78 0 18.312-4.282 25.401-9.756 1.325-1.03 2.658-.885 3.545-.151l6.79 6.655c1.183 1.033.887 2.957-.15 3.987-10.043 9.765-22.74 14.343-35.878 14.343-29.534 0-53.311-23.5-53.311-53.063 0-29.567 23.777-53.368 53.31-53.368M1256.437 302.515c0-1.486 1.328-2.814 2.803-2.814h9.753c1.623 0 2.802 1.328 2.802 2.814v41.24h54.047v-41.24c0-1.486 1.18-2.814 2.809-2.814h9.738c1.484 0 2.811 1.328 2.811 2.814v97.85c0 1.485-1.327 2.81-2.81 2.81h-9.74c-1.628 0-2.808-1.325-2.808-2.81V357.65h-54.047v42.714c0 1.486-1.18 2.812-2.803 2.812h-9.752c-1.475 0-2.803-1.326-2.803-2.812v-97.85M1397.762 302.65c0-1.486 1.334-2.814 2.803-2.814h9.898c1.629 0 2.808 1.328 2.808 2.814v61.047c0 14.782 9.452 26.311 24.508 26.311 15.213 0 24.807-11.384 24.807-26.015V302.65c0-1.486 1.182-2.814 2.808-2.814h9.898c1.47 0 2.802 1.328 2.802 2.814v62.086c0 22.467-16.978 40.054-40.315 40.054-23.18 0-40.017-17.587-40.017-40.054V302.65M1576.758 350.096c9.593 0 18.013-8.132 18.013-18.33 0-9.606-8.42-17.596-18.013-17.596h-26.285v35.926h26.285zm-41.794-47.446c0-1.486 1.18-2.814 2.809-2.814h40.164c17.72 0 32.192 14.047 32.192 31.634 0 13.601-9.011 24.835-21.856 30.005l20.236 37.553c1.028 1.918 0 4.283-2.513 4.283h-11.521c-1.18 0-2.066-.734-2.362-1.326l-19.636-39.176h-22.3v37.69c0 1.486-1.327 2.812-2.81 2.812h-9.594c-1.629 0-2.809-1.326-2.809-2.812v-97.85zM1708.496 298.359c14.918 0 25.7 5.025 35.742 13.749 1.325 1.183 1.325 2.956.145 4.14l-6.498 6.65c-1.037 1.325-2.362 1.325-3.69 0-6.944-6.058-16.392-9.908-25.548-9.908-21.114 0-37.06 17.738-37.06 38.435 0 20.694 16.091 38.287 37.21 38.287 10.777 0 18.312-4.282 25.399-9.756 1.327-1.03 2.652-.885 3.544-.151l6.785 6.655c1.183 1.033.893 2.957-.142 3.987-10.042 9.765-22.743 14.343-35.887 14.343-29.533 0-53.305-23.5-53.305-53.063 0-29.567 23.772-53.368 53.305-53.368M1795.06 302.515c0-1.486 1.327-2.814 2.803-2.814h9.752c1.623 0 2.803 1.328 2.803 2.814v41.24h54.047v-41.24c0-1.486 1.18-2.814 2.809-2.814h9.738c1.484 0 2.811 1.328 2.811 2.814v97.85c0 1.485-1.327 2.81-2.811 2.81h-9.738c-1.63 0-2.809-1.325-2.809-2.81V357.65h-54.047v42.714c0 1.486-1.18 2.812-2.803 2.812h-9.752c-1.476 0-2.803-1.326-2.803-2.812v-97.85" fill="#282938"/><rect fill="#FFF" x="685.843" y="398.204" width="62.874" height="10.627" rx="1.75"/></g>
    </symbol>
    <symbol id="twitter" viewBox="0 0 100 100">
      <title>Twitter</title><path d="M32.363 87.435c34.863 0 53.928-28.9 53.928-53.963 0-.82-.017-1.638-.054-2.451a38.559 38.559 0 0 0 9.455-9.821 37.775 37.775 0 0 1-10.885 2.986 19.032 19.032 0 0 0 8.335-10.49 37.997 37.997 0 0 1-12.036 4.603 18.926 18.926 0 0 0-13.835-5.992c-10.466 0-18.954 8.494-18.954 18.963 0 1.489.166 2.936.491 4.325-15.752-.793-29.72-8.34-39.069-19.816a18.925 18.925 0 0 0-2.566 9.533c0 6.58 3.346 12.389 8.434 15.787-3.11-.096-6.03-.95-8.584-2.372-.003.08-.003.157-.003.242 0 9.185 6.534 16.854 15.206 18.592a18.966 18.966 0 0 1-8.56.325c2.413 7.536 9.41 13.02 17.706 13.173a38.007 38.007 0 0 1-23.54 8.118 38.47 38.47 0 0 1-4.522-.262 53.625 53.625 0 0 0 29.054 8.52" fill-rule="nonzero" fill="currentColor"/>
    </symbol></svg>