<svg xmlns="http://www.w3.org/2000/svg" width="33" height="30" viewBox="0 0 33 30">
  <title>
    calendar
  </title>
  <path fill="currentColor" fill-rule="evenodd" d="M9.954 23.425v4.254H8.82v-4.255H2.777v-1.16H8.82v-4.64H2.777v-1.162H8.82v-4.64h1.134v4.64h6.234v-4.64h1.133v4.64h6.235v-4.64h1.133v4.64h6.045v1.16h-6.045v4.642h6.045v1.16h-6.045v4.254h-1.133v-4.255H17.32v4.254H16.19v-4.255H9.954zm0-1.16h6.234v-4.64H9.954v4.64zm7.367-4.64v4.64h6.235v-4.64H17.32zM25.067 2.54h5.926c1.11 0 2.008.898 2.008 1.997v23.466C33 29.106 32.097 30 30.992 30H2.517C1.407 30 .51 29.102.51 28.003V4.537c0-1.103.902-1.997 2.007-1.997h5.548V1.158c0-.518.42-.938.944-.938.52 0 .944.414.944.938V2.54h13.223V1.158c0-.518.42-.938.945-.938.52 0 .944.414.944.938V2.54zm0 2.32v1.382c0 .52-.42.94-.944.94-.522 0-.945-.415-.945-.94v-1.38H9.954v1.38c0 .52-.42.94-.945.94-.522 0-.945-.415-.945-.94v-1.38h-3.29c-1.1 0-2 .896-2 2.004v18.808c0 1.11.896 2.005 2 2.005h23.96c1.1 0 1.998-.898 1.998-2.006V6.866c0-1.11-.895-2.005-2-2.005h-3.667zM8.443 1.178v5.046c0 .32.253.57.566.57.303 0 .566-.254.566-.57V1.177c0-.32-.254-.57-.567-.57-.304 0-.567.255-.567.57zm15.112 0v5.046c0 .32.254.57.567.57.303 0 .566-.254.566-.57V1.177c0-.32-.253-.57-.566-.57-.304 0-.567.255-.567.57zm-20.78 9.485h27.958v1.16H2.776v-1.16z"/>
</svg>
