<?xml version="1.0" encoding="UTF-8"?>
<svg width="33px" height="32px" viewBox="0 0 33 32" version="1.1" xmlns="http://www.w3.org/2000/svg" xmlns:xlink="http://www.w3.org/1999/xlink">
    <!-- Generator: Sketch 43.2 (39069) - http://www.bohemiancoding.com/sketch -->
    <title>Clock</title>
    <desc>Created with Sketch.</desc>
    <defs></defs>
    <g id="Designs" stroke="none" stroke-width="1" fill="none" fill-rule="evenodd">
        <g id="Series-Copy" transform="translate(-968.000000, -1286.000000)">
            <g id="Sundays" transform="translate(134.000000, 871.000000)">
                <g id="Icon-List" transform="translate(830.000000, 356.000000)">
                    <g id="Download" transform="translate(4.000000, 59.000000)">
                        <g id="Clock">
                            <path d="M16.5,32 C7.48528763,32 0.177419355,24.836556 0.177419355,16 C0.177419355,7.163444 7.48528763,0 16.5,0 C25.5147124,0 32.8225806,7.163444 32.8225806,16 C32.8225806,24.836556 25.5147124,32 16.5,32 Z M16.5,29.4450549 C23.9928672,29.4450549 30.0670363,23.4254988 30.0670363,16 C30.0670363,8.57450119 23.9928672,2.55494505 16.5,2.55494505 C9.00713276,2.55494505 2.93296371,8.57450119 2.93296371,16 C2.93296371,23.4254988 9.00713276,29.4450549 16.5,29.4450549 Z" id="Combined-Shape" fill="currentColor"></path>
                            <path d="M18,15.415712 L18,6.00889597 C18,5.17953755 17.3284271,4.51648352 16.5,4.51648352 C15.6657972,4.51648352 15,5.18465933 15,6.00889597 L15,16.0340713 C15,16.3994633 15.1303547,16.732575 15.3470471,16.9909261 C15.3987016,17.062725 15.4574869,17.1309264 15.5233717,17.1945506 L19.6205224,21.1511231 C20.2039359,21.7145189 21.1603956,21.7045652 21.7358694,21.1086446 C22.3153554,20.5085693 22.2972976,19.565564 21.7044975,18.9931037 L18,15.415712 Z" id="Combined-Shape" fill="#C16443"></path>
                        </g>
                    </g>
                </g>
            </g>
        </g>
    </g>
</svg>
