<?xml version="1.0" encoding="UTF-8"?>
<svg width="34px" height="32px" viewBox="0 0 34 32" version="1.1" xmlns="http://www.w3.org/2000/svg" xmlns:xlink="http://www.w3.org/1999/xlink">
    <!-- Generator: Sketch 43.2 (39069) - http://www.bohemiancoding.com/sketch -->
    <title>download</title>
    <desc>Created with Sketch.</desc>
    <defs></defs>
    <g id="Designs" stroke="none" stroke-width="1" fill="none" fill-rule="evenodd">
        <g id="Recording" transform="translate(-978.000000, -711.000000)" fill="currentColor">
            <g id="Sermon-Intro" transform="translate(208.000000, 574.000000)">
                <g id="Actions" transform="translate(710.000000, 42.000000)">
                    <g id="Download" transform="translate(60.000000, 95.000000)">
                        <g id="Icon">
                            <path d="M17.4678669,21.7578676 C17.4638307,21.7578988 17.4597897,21.7579143 17.4557439,21.7579143 C17.4516981,21.7579143 17.447657,21.7578988 17.4436208,21.7578676 C17.0734557,21.7608715 16.7024058,21.6189876 16.4158192,21.332216 L11.6888889,16.6022346 C11.1216573,16.0346369 11.1216573,15.1359404 11.6888889,14.5683426 C12.2561205,14.0007449 13.1542373,14.0007449 13.7214689,14.5683426 L16.0376648,16.8860335 L16.0376648,1.41899441 C16.0376648,0.614897579 16.6521657,0 17.4557439,0 C18.259322,0 18.873823,0.614897579 18.873823,1.41899441 L18.873823,16.8860335 L21.1900188,14.5683426 C21.7572505,14.0007449 22.6553672,14.0007449 23.2225989,14.5683426 C23.7898305,15.1359404 23.7898305,16.0346369 23.2225989,16.6022346 L18.4956685,21.332216 C18.209082,21.6189876 17.8380321,21.7608715 17.4678669,21.7578676 Z M28.4694915,2.99366853 C31.8728814,6.02085661 34,10.4197393 34,15.3389199 C34,24.467784 26.5787194,31.8938547 17.4557439,31.8938547 C8.33276836,31.8938547 0.911487759,24.467784 0.911487759,15.3389199 C0.911487759,10.4197393 3.0386064,6.02085661 6.44199623,2.99366853 C6.67834275,2.75716946 7.05649718,2.5679702 7.4346516,2.5679702 C8.23822976,2.5679702 8.8527307,3.18286778 8.8527307,3.98696462 C8.8527307,4.41266294 8.66365348,4.83836127 8.33276836,5.07486034 C5.54387947,7.58175047 3.74764595,11.2711359 3.74764595,15.3389199 C3.74764595,22.9068901 9.89265537,29.0558659 17.4557439,29.0558659 C25.0188324,29.0558659 31.1638418,22.9068901 31.1638418,15.3389199 C31.1638418,11.2711359 29.4148776,7.58175047 26.5787194,5.07486034 C26.2478343,4.83836127 26.0587571,4.41266294 26.0587571,3.98696462 C26.0587571,3.18286778 26.673258,2.5679702 27.4768362,2.5679702 C27.8549906,2.5679702 28.233145,2.70986965 28.4694915,2.99366853 Z" id="download"></path>
                        </g>
                    </g>
                </g>
            </g>
        </g>
    </g>
</svg>
