<?xml version="1.0" encoding="UTF-8"?>
<svg width="413px" height="75px" viewBox="0 0 413 75" version="1.1" xmlns="http://www.w3.org/2000/svg" xmlns:xlink="http://www.w3.org/1999/xlink">
    <!-- Generator: Sketch 43.2 (39069) - http://www.bohemiancoding.com/sketch -->
    <title>FIEC</title>
    <desc>Created with Sketch.</desc>
    <defs></defs>
    <g id="Affilications" stroke="none" stroke-width="1" fill="none" fill-rule="evenodd">
        <g id="fiec-themed" fill-rule="nonzero" fill="currentColor">
            <g id="fiec-themed" transform="translate(206.414647, 37.812437) scale(-1, 1) rotate(-180.000000) translate(-206.414647, -37.812437) translate(-0.085353, 0.312437)">
                <path d="M1.36810325,28.8675438 C2.25002104,28.5735712 3.10028025,28.3282172 3.92170753,28.1326123 C4.74143881,27.9364422 5.72737768,27.8386397 6.87952413,27.8386397 C9.35285128,27.8386397 11.202052,28.3774011 12.4276916,29.455489 C13.6522005,30.5330117 14.2650203,31.9418188 14.2650203,33.6813451 C14.2650203,34.1957972 14.2039645,34.679156 14.0812875,35.1325522 C13.9569144,35.5859484 13.7437843,36.0201233 13.4379397,36.4373382 C13.1309645,36.8534225 12.7143149,37.2514162 12.1885562,37.6313193 C11.6611015,38.0112223 11.0058818,38.409216 10.2223318,38.8258656 C9.36415792,39.2668245 8.59304518,39.7021301 7.90729757,40.1300863 C7.22041928,40.5586079 6.63247409,41.0425321 6.14346197,41.5818587 C5.65275387,42.1200547 5.27850414,42.7210025 5.02184345,43.3824409 C4.76518275,44.0438792 4.63628708,44.8274293 4.63628708,45.7342217 C4.63628708,46.7631258 4.85111321,47.7055341 5.27906947,48.5637079 C5.70872173,49.4207511 6.31362688,50.1619013 7.09943825,50.786593 C7.88242296,51.4112848 8.82596194,51.9002969 9.92835918,52.256456 C11.0307564,52.6114845 12.2677027,52.7889987 13.6397632,52.7889987 C14.9372,52.7889987 16.0582532,52.6849776 17.0017922,52.4780661 C17.9442005,52.2688933 18.7469718,52.0297579 19.4084101,51.7600946 C19.334917,51.3683196 19.2184586,50.9641073 19.059035,50.548023 C18.8996114,50.130808 18.7220972,49.7757796 18.5264924,49.4823723 C17.9622911,49.7763449 17.2522342,50.0330056 16.395191,50.2540504 C15.5375825,50.4745298 14.679974,50.5847695 13.8229308,50.5847695 C11.7651226,50.5847695 10.1725826,50.2043012 9.04587605,49.4450604 C7.9186042,48.6858196 7.35553361,47.5715504 7.35553361,46.1011221 C7.35553361,45.5623608 7.42337344,45.072218 7.55792244,44.6312591 C7.6919061,44.1903002 7.9186042,43.7736506 8.23745141,43.3818755 C8.55573328,42.9901005 8.96672958,42.6164161 9.46874433,42.2613877 C9.97019374,41.9052286 10.5767949,41.5451121 11.2874171,41.1770811 C12.2428281,40.662629 13.0812153,40.1668329 13.8031442,39.6902581 C14.526769,39.211422 15.1260209,38.7026232 15.604857,38.1638619 C16.0825625,37.6251006 16.4432442,37.0252834 16.6885983,36.3638451 C16.933387,35.7024067 17.056064,34.9550379 17.056064,34.122304 C17.056064,32.7259342 16.7926194,31.4878573 16.26573,30.4103346 C15.7388407,29.3322467 15.0163465,28.4260196 14.0976821,27.6910881 C13.1795831,26.9561566 12.0964071,26.4055233 10.8470235,26.0380576 C9.59764001,25.6705918 8.26176068,25.4868589 6.84108156,25.4868589 C5.29772542,25.4868589 4.01724862,25.5914454 3.00134716,25.7989222 C1.98374971,26.0069643 1.1086159,26.2455344 0.373684399,26.515763 C0.470921489,26.8832288 0.605470486,27.2806571 0.777896722,27.7097441 C0.948626962,28.1382657 1.14536247,28.523822 1.36584192,28.8675438 L1.36810325,28.8675438 Z M25.0690787,52.3486051 C25.2398089,52.3723491 25.454635,52.391005 25.7118611,52.4034423 C25.9696524,52.414749 26.2093531,52.4220983 26.4298326,52.4220983 C26.6729253,52.4220983 26.8945354,52.4153143 27.0912709,52.4034423 C27.2863105,52.391005 27.4700433,52.3723491 27.6419042,52.3486051 L24.8491645,36.4005917 C24.7264875,35.6656602 24.6286851,34.9674752 24.5551919,34.3060369 C24.4816988,33.6445986 24.4449522,33.0442161 24.4449522,32.5048894 C24.4449522,30.814547 24.8237246,29.6273499 25.5835307,28.941037 C26.3422061,28.254724 27.6164643,27.9121329 29.4051745,27.9121329 C30.6048088,27.9121329 31.6280596,28.1009537 32.4732308,28.4814221 C33.3189674,28.8601945 34.0358082,29.4125238 34.6237534,30.135018 C35.2116986,30.8569469 35.6894041,31.746214 36.0568699,32.7994273 C36.4243356,33.8520754 36.7296148,35.0528404 36.9749689,36.4005917 L39.7677086,52.3486051 C39.9384388,52.3723491 40.1351743,52.391005 40.3556538,52.4034423 C40.5761332,52.414749 40.8203566,52.4220983 41.0905853,52.4220983 C41.2861901,52.4220983 41.5004509,52.4153143 41.7333677,52.4034423 C41.9668497,52.391005 42.1686732,52.3723491 42.3405341,52.3486051 L39.4008082,35.6656602 C39.1068356,34.0239363 38.6964046,32.5732946 38.1695152,31.3109084 C37.6426259,30.0490875 36.9630969,28.9834369 36.130363,28.1139564 C35.2964984,27.2444759 34.2930343,26.5892562 33.1171439,26.147732 C31.9412535,25.7067731 30.5561903,25.4862936 28.9642156,25.4862936 C24.1871609,25.4862936 21.7986335,27.8380744 21.7986335,32.541636 C21.7986335,33.0803973 21.8348147,33.6440332 21.9083079,34.2319784 C21.981801,34.8199236 22.0790381,35.4321781 22.2022805,36.0693072 L25.0690787,52.3486051 Z M48.8802938,38.7518071 C49.345562,38.678314 49.7622116,38.6353487 50.1296773,38.6229114 C50.4971431,38.6104741 50.9132274,38.6042555 51.3790609,38.6042555 C53.9264465,38.6042555 55.9045429,39.1865474 57.31335,40.3500005 C58.7221572,41.5134535 59.4265608,43.3083824 59.4265608,45.7336563 C59.4265608,47.5212359 58.936418,48.7706194 57.9566978,49.481807 C56.9764122,50.1912985 55.4211841,50.5468923 53.2898828,50.5468923 C52.8732331,50.5468923 52.4384929,50.5288017 51.985662,50.4920551 C51.5317005,50.4553085 51.1704534,50.4129086 50.9013554,50.3631594 L48.8802938,38.7518071 Z M48.6965609,52.3480398 C48.9413496,52.3723491 49.2788528,52.4158796 49.7068091,52.4769355 C50.1353307,52.5379913 50.5943802,52.5871752 51.0850883,52.6239218 L52.5368607,52.7341615 C53.0151315,52.7709081 53.4374344,52.7889987 53.8049002,52.7889987 C55.0050998,52.7889987 56.1199344,52.6663217 57.1488385,52.4215329 C58.1777426,52.1767442 59.0596604,51.7906225 59.7945918,51.2642985 C60.5295233,50.7368438 61.1050312,50.0573149 61.5216809,49.2245809 C61.9377652,48.391847 62.1463726,47.3748149 62.1463726,46.1751806 C62.1463726,44.4350889 61.8524,42.941482 61.2644548,41.6920984 C60.6765096,40.4427149 59.8923943,39.4194641 58.9126741,38.6223461 C57.9323885,37.8269241 56.805682,37.2389789 55.5319892,36.8596412 C54.257731,36.4791728 52.9229824,36.2903519 51.5266125,36.2903519 C50.9878512,36.2903519 50.4479592,36.3016586 49.9097632,36.3265332 C49.3704366,36.3508425 48.8921658,36.387589 48.4766468,36.4367729 L46.6393181,25.9272525 C46.4425826,25.9029432 46.2407591,25.8848526 46.0327169,25.8724153 C45.8246748,25.859978 45.5861047,25.8543247 45.3164414,25.8543247 C45.0710873,25.8543247 44.8325173,25.859978 44.6001658,25.8724153 C44.3672491,25.8848526 44.1897349,25.9029432 44.0676232,25.9272525 L48.6965609,52.3480398 Z M68.3559784,38.7518071 C68.8212466,38.678314 69.2378962,38.6353487 69.605362,38.6229114 C69.9728277,38.6104741 70.3894774,38.6042555 70.8547455,38.6042555 C73.4026965,38.6042555 75.3802275,39.1865474 76.7890347,40.3500005 C78.1978418,41.5134535 78.9022454,43.3083824 78.9022454,45.7336563 C78.9022454,47.5212359 78.4121026,48.7706194 77.4323824,49.481807 C76.4520969,50.1912985 74.8963034,50.5468923 72.7655674,50.5468923 C72.3489178,50.5468923 71.9141775,50.5288017 71.4613467,50.4920551 C71.0073851,50.4553085 70.6472687,50.4129086 70.3770401,50.3631594 L68.3559784,38.7518071 Z M68.1722456,52.3480398 C68.4170343,52.3723491 68.7545374,52.4158796 69.1824937,52.4769355 C69.6110153,52.5379913 70.0700648,52.5871752 70.5602076,52.6239218 L72.0131106,52.7341615 C72.4902508,52.7709081 72.9119884,52.7889987 73.2794541,52.7889987 C74.4802191,52.7889987 75.595619,52.6663217 76.6239578,52.4215329 C77.6528619,52.1767442 78.5347797,51.7906225 79.2697112,51.2642985 C80.0046427,50.7368438 80.5795852,50.0573149 80.9968002,49.2245809 C81.4134498,48.391847 81.6214919,47.3748149 81.6214919,46.1751806 C81.6214919,44.4350889 81.3275193,42.941482 80.7395742,41.6920984 C80.151629,40.4427149 79.3675136,39.4194641 78.3877934,38.6223461 C77.4075078,37.8269241 76.2808013,37.2389789 75.0071085,36.8596412 C73.7328503,36.4791728 72.3975363,36.2903519 71.0022972,36.2903519 C70.4629705,36.2903519 69.9225132,36.3016586 69.3843172,36.3265332 C68.8455559,36.3508425 68.3678504,36.387589 67.9517661,36.4367729 L66.1144374,25.9272525 C65.9177019,25.9029432 65.7158784,25.8848526 65.5078362,25.8724153 C65.2997941,25.859978 65.061224,25.8543247 64.7909954,25.8543247 C64.5462066,25.8543247 64.3076366,25.859978 64.0752851,25.8724153 C63.8423684,25.8848526 63.6648542,25.9029432 63.5427425,25.9272525 L68.1722456,52.3480398 Z M92.4617315,27.8018932 C93.9072852,27.8018932 95.2488179,28.1993215 96.4851988,28.9958742 C97.722145,29.7918615 98.8007983,30.8699495 99.7188974,32.2295728 C100.638127,33.589196 101.354403,35.1873894 101.86942,37.0247181 C102.383872,38.8620468 102.640533,40.8339246 102.640533,42.9409166 C102.640533,44.0433139 102.524074,45.0541274 102.291723,45.9727917 C102.058806,46.8914561 101.69134,47.6817901 101.189326,48.3432285 C100.687311,49.0046668 100.050182,49.5247722 99.2785038,49.9046752 C98.5068257,50.2845783 97.5700707,50.4739645 96.4676735,50.4739645 C94.9729359,50.4739645 93.6014407,50.0821895 92.3520571,49.2980741 C91.1026736,48.514524 90.0308043,47.4426547 89.1364492,46.0830315 C88.2420941,44.7234082 87.5506931,43.1246495 87.0605503,41.2873208 C86.5704076,39.449992 86.3256189,37.465677 86.3256189,35.3343757 C86.3256189,33.0317788 86.8157616,31.2006687 87.7954818,29.8410454 C88.7752021,28.4814221 90.3309955,27.8018932 92.4622968,27.8018932 L92.4617315,27.8018932 Z M92.0580845,25.4862936 C90.6617147,25.4862936 89.4422937,25.725429 88.4015177,26.2031345 C87.3601763,26.68084 86.4906958,27.3479316 85.7930762,28.2061055 C85.0948913,29.0625833 84.5674366,30.0796155 84.2129735,31.2555059 C83.857945,32.4313963 83.6804308,33.7050891 83.6804308,35.0771496 C83.6804308,37.5024236 83.9981473,39.7931485 84.6358417,41.9487591 C85.2724055,44.1043697 86.1667606,45.985229 87.3183417,47.589641 C88.4699228,49.194053 89.8538554,50.4615272 91.4707047,51.3926289 C93.0875539,52.3237305 94.8881361,52.7889987 96.8730165,52.7889987 C98.2931303,52.7889987 99.5300765,52.5379913 100.583855,52.0359766 C101.637069,51.5339618 102.512768,50.8476489 103.211518,49.9781684 C103.909703,49.1075572 104.429808,48.0916558 104.772965,46.9282027 C105.115556,45.7636189 105.287417,44.5210194 105.287417,43.1981427 C105.287417,40.6993756 104.96857,38.3668161 104.332006,36.1993335 C103.694311,34.0301549 102.794303,32.1560796 101.631415,30.5759769 C100.466831,28.9958742 99.0715923,27.752144 97.4423057,26.8464822 C95.8141498,25.9396898 94.019221,25.4862936 92.0592152,25.4862936 L92.0580845,25.4862936 Z M112.635601,52.4582795 C114.399437,52.678759 116.064339,52.7889987 117.633135,52.7889987 C118.636599,52.7889987 119.61745,52.6793243 120.572861,52.4582795 C121.528272,52.2378001 122.373443,51.8759876 123.10781,51.3745382 C123.842741,50.8713928 124.430686,50.2229571 124.871645,49.4269698 C125.312604,48.6298518 125.533083,47.6444782 125.533083,46.4685878 C125.533083,45.1700204 125.318257,44.0376606 124.890301,43.0698123 C124.460649,42.1019641 123.910016,41.2567929 123.236705,40.5342987 C122.56283,39.8106738 121.815461,39.1989847 120.995164,38.6969699 C120.173737,38.1949552 119.372662,37.7596496 118.587981,37.3927492 L124.063786,25.9278178 C123.792427,25.878634 123.535766,25.8543247 123.292108,25.8543247 L121.803589,25.8543247 C121.570672,25.8543247 121.356977,25.878634 121.160241,25.9278178 L115.244043,38.274667 L116.713906,38.8993588 C117.277541,39.1435821 117.914105,39.4437734 118.624727,39.7982365 C119.33535,40.1543956 119.996788,40.6077918 120.609042,41.1589904 C121.221862,41.7101891 121.736314,42.3772807 122.152399,43.1619614 C122.568483,43.9449461 122.77709,44.8884851 122.77709,45.9914477 C122.77709,49.07816 121.036999,50.6215161 117.559077,50.6215161 C117.068934,50.6215161 116.634194,50.6085135 116.254856,50.5847695 C115.874388,50.5598949 115.403466,50.5112764 114.83983,50.4377832 L110.541046,25.9272525 C110.344311,25.9029432 110.123831,25.8848526 109.879608,25.8724153 C109.633689,25.859978 109.401337,25.8537594 109.180858,25.8537594 C108.935504,25.8537594 108.709371,25.8594127 108.501329,25.8724153 C108.292156,25.8848526 108.115207,25.9029432 107.968221,25.9272525 L112.635601,52.4582795 Z M134.940207,50.0697522 L128.178837,50.0697522 C128.178837,50.8289929 128.312821,51.588799 128.583049,52.3480398 L144.640737,52.3480398 C144.640737,51.588799 144.506753,50.8289929 144.23709,50.0697522 L137.47572,50.0697522 L133.25043,25.9272525 C133.078569,25.9029432 132.87731,25.8848526 132.643828,25.87185 C132.409781,25.8605433 132.184214,25.8537594 131.963734,25.8537594 C131.718945,25.8537594 131.479245,25.8594127 131.247459,25.87185 C131.014542,25.8848526 130.836462,25.9029432 130.713785,25.9272525 L134.940207,50.0697522 Z M148.573186,52.3486051 L162.169419,52.3486051 C162.169419,51.5639244 162.03487,50.7922464 161.765772,50.0330056 L150.741799,50.0330056 L149.161131,41.1035879 L158.017056,41.1035879 C158.017056,40.7361222 157.985962,40.3505658 157.925472,39.9463535 C157.863285,39.5421411 157.75983,39.1565848 157.612843,38.789119 L148.756919,38.789119 L146.91959,28.2422867 L158.274282,28.2422867 C158.249972,27.7770186 158.206442,27.3728062 158.145951,27.0302151 C158.083765,26.6864933 157.980874,26.3190275 157.833888,25.9278178 L143.943683,25.9278178 L148.573186,52.3486051 Z M165.035651,28.1326123 C165.206947,28.1077377 165.451736,28.0828631 165.770583,28.0591192 C166.088299,28.0342446 166.432021,28.00937 166.799487,27.985626 C167.166953,27.9607514 167.540072,27.9420955 167.92054,27.9307888 C168.299313,27.9177862 168.636816,27.9115676 168.930788,27.9115676 C170.86592,27.9115676 172.581137,28.254724 174.075309,28.9404716 C175.569481,29.6267846 176.818865,30.5759769 177.823459,31.7886139 C178.827489,33.0012508 179.592948,34.4343672 180.120403,36.0879631 C180.646162,37.741559 180.910172,39.5234852 180.910172,41.4343071 C180.910172,42.8549862 180.768839,44.1230257 180.487869,45.2378602 C180.205203,46.3526948 179.721844,47.2956684 179.036096,48.0673465 C178.350349,48.8390246 177.431684,49.4331884 176.280103,49.849838 C175.128522,50.2659223 173.69484,50.4745298 171.980754,50.4745298 C171.515486,50.4745298 170.99425,50.4496552 170.418742,50.4010367 C169.842103,50.3518528 169.346307,50.2902316 168.930223,50.2167385 L165.035651,28.1326123 Z M166.725994,52.3486051 C167.06915,52.3972237 167.479016,52.4458422 167.956721,52.4955914 C168.434992,52.54421 168.92457,52.5871752 169.426584,52.6239218 C169.928599,52.6606683 170.412523,52.6917616 170.878357,52.7155055 C171.34306,52.7398148 171.7354,52.7528175 172.054247,52.7528175 C174.259042,52.7528175 176.09637,52.4825888 177.566233,51.9443928 C179.036096,51.4050662 180.21764,50.6514787 181.112561,49.6841958 C182.005785,48.7163475 182.637261,47.5715504 183.004726,46.2486737 C183.372192,44.925797 183.555925,43.4926806 183.555925,41.9487591 C183.555925,39.8909509 183.285696,37.8755426 182.7475,35.9042302 C182.208174,33.9323525 181.338128,32.1741702 180.138494,30.6313794 C178.937729,29.0880233 177.388719,27.8442931 175.490335,26.9013194 C173.590819,25.9572151 171.282569,25.4862936 168.562757,25.4862936 C167.950503,25.4862936 167.319027,25.4992963 166.671157,25.5236055 C166.021025,25.5484801 165.40877,25.5784427 164.833828,25.6151893 C164.257189,25.6519359 163.731431,25.7011197 163.253725,25.7621756 C162.77602,25.8243621 162.388767,25.8791993 162.095925,25.9278178 L166.725994,52.3486051 Z M202.47928,41.1035879 C204.513345,41.1035879 206.069138,41.6123866 207.146661,42.6288534 C208.224183,43.6447549 208.76351,44.9992902 208.76351,46.6890673 C208.76351,47.9876347 208.396044,48.9673549 207.661113,49.6287933 C206.926181,50.2902316 205.664361,50.6209508 203.876216,50.6209508 C203.313145,50.6209508 202.749509,50.5966415 202.185873,50.5474576 C201.622237,50.4982738 201.194846,50.4490899 200.900308,50.4004713 L199.246713,41.1035879 L202.47928,41.1035879 Z M196.931113,27.9115676 C197.225086,27.8623837 197.635517,27.8199838 198.161841,27.7826719 C198.68873,27.7464906 199.246147,27.7278347 199.833527,27.7278347 C200.813813,27.7278347 201.793533,27.8199838 202.774384,28.0037167 C203.753539,28.1868842 204.635456,28.5181687 205.420137,28.9958742 C206.203687,29.4735796 206.83912,30.1220154 207.330959,30.9428773 C207.819971,31.7637393 208.065891,32.8112993 208.065891,34.0849921 C208.065891,34.9669099 207.918904,35.7018414 207.624932,36.2897866 C207.330959,36.8777318 206.925616,37.3554373 206.411729,37.7234684 C205.897277,38.0909341 205.291241,38.3475948 204.592491,38.4951464 C203.894872,38.6421327 203.141284,38.7156259 202.332294,38.7156259 L198.841935,38.7156259 L196.931113,27.9115676 Z M198.657637,52.3486051 C198.902991,52.3723491 199.245582,52.4090956 199.686541,52.4582795 C200.1275,52.5074634 200.599552,52.5560819 201.101567,52.6052658 C201.603581,52.6544497 202.113511,52.6911963 202.626832,52.7155055 C203.141284,52.7398148 203.607118,52.7522521 204.023202,52.7522521 C206.449607,52.7522521 208.304461,52.2932026 209.590591,51.3745382 C210.877286,50.4558739 211.519503,49.0905973 211.519503,47.2770125 C211.519503,46.3216015 211.372517,45.4453371 211.078544,44.6493497 C210.784572,43.8522317 210.392797,43.1483935 209.902654,42.536139 C209.413076,41.9233192 208.850006,41.4156511 208.212311,41.0114388 C207.575748,40.6072265 206.914309,40.2945979 206.227996,40.0746838 C206.840251,39.9763161 207.423108,39.7863645 207.974872,39.5048292 C208.52494,39.2221633 209.015083,38.8490442 209.443604,38.383776 C209.872126,37.9179425 210.209064,37.3605253 210.453853,36.7115242 C210.699207,36.0613925 210.821318,35.3208077 210.821318,34.4880738 C210.821318,32.8712245 210.514908,31.4935106 209.903219,30.3538014 C209.290965,29.215223 208.470668,28.283556 207.441199,27.5610618 C206.412295,26.8391329 205.230751,26.3116782 203.896568,25.9815244 C202.560123,25.6508052 201.169972,25.485163 199.724418,25.485163 C198.720389,25.485163 197.679612,25.5281282 196.60209,25.6140586 C195.522306,25.6999891 194.666393,25.8034448 194.02983,25.9261219 L198.657637,52.3486051 Z M219.714555,35.7018414 L214.532722,52.3480398 C214.679709,52.3717837 214.888881,52.391005 215.157414,52.402877 C215.427643,52.4141836 215.684869,52.4215329 215.930223,52.4215329 C216.150702,52.4215329 216.394926,52.414749 216.665154,52.402877 C216.933687,52.3915704 217.154166,52.3717837 217.326593,52.3480398 L221.368716,38.4578345 L229.52476,52.3480398 C229.72093,52.3717837 229.941409,52.391005 230.186198,52.402877 C230.430987,52.4141836 230.688213,52.4215329 230.958441,52.4215329 C231.202665,52.4215329 231.454803,52.414749 231.712029,52.402877 C231.968689,52.3915704 232.169948,52.3717837 232.316934,52.3480398 L222.175445,35.5548551 L220.522414,25.9272525 C220.325679,25.9029432 220.123855,25.8848526 219.915813,25.87185 C219.707771,25.8605433 219.481638,25.8537594 219.236284,25.8537594 C218.967751,25.8537594 218.721832,25.8594127 218.501352,25.87185 C218.282004,25.8848526 218.110143,25.9029432 217.988031,25.9272525 L219.714555,35.7018414 Z M412.729048,44.3050626 L402.61526,58.2291878 L394.664997,52.4571489 L400.589676,44.3050626 L394.664997,36.1501496 L402.615825,30.3781107 L412.729048,44.3050626 Z" id="Shape"></path>
                <polygon id="Shape" points="400.877995 60.6120618 390.766468 74.5373177 374.395587 69.2209363 377.429723 59.874869 387.014926 62.9898479 392.933951 54.8411536"></polygon>
                <polygon id="Shape" points="400.877995 27.9963673 392.933386 33.7684062 387.01436 25.619712 377.429158 28.7329948 374.395021 19.3869275 390.765903 14.0705462"></polygon>
                <polygon id="Shape" points="374.623981 58.9669459 371.59041 68.3062292 355.221789 62.9887172 355.221789 45.7771869 365.045562 45.7771869 365.045562 55.8530977"></polygon>
                <polygon id="Shape" points="374.623981 29.6414832 365.045562 32.7553314 365.045562 42.8312423 355.220659 42.8312423 355.220659 25.6208426 371.589279 20.3021999"></polygon>
                <polygon id="Shape" points="412.729048 44.3050626 402.61526 58.2291878 394.664997 52.4571489 400.589676 44.3050626"></polygon>
                <polygon id="Shape" points="390.767034 74.5373177 374.396152 69.2209363 377.429723 59.874869 387.01436 62.9898479"></polygon>
                <polygon id="Shape" points="400.877995 27.9963673 392.933386 33.7684062 387.01436 25.619712 390.765903 14.0699808"></polygon>
                <polygon id="Shape" points="355.221789 62.9892825 355.221789 45.7777522 365.045562 45.7777522 365.045562 55.853663"></polygon>
                <polygon id="Shape" points="374.623981 29.6414832 365.045562 32.7553314 355.221224 25.6208426 371.589844 20.3021999"></polygon>
                <path d="M265.839421,74.4632592 C261.746418,74.4632592 258.465231,73.3099821 255.983424,71.0022972 C253.502748,68.6934816 251.839541,65.1137999 250.967799,60.2372467 L250.820813,59.7086614 L245.393627,59.7086614 C244.915356,58.4462752 244.601031,57.2624702 244.426909,56.1301103 C244.251656,54.9977505 244.161203,53.8450387 244.161203,52.6691483 L249.588389,52.6691483 L244.808508,26.0335349 C246.375608,25.7723516 247.82738,25.6225386 249.178524,25.6225386 C250.659693,25.6225386 252.246015,25.7723516 253.901872,26.0335349 L258.654052,52.6691483 L265.780626,52.6691483 C266.258897,53.9750651 266.575483,55.1509555 266.74904,56.2194328 C266.923162,57.2856488 267.012484,58.4468405 267.012484,59.7086614 L259.915308,59.7086614 L260.032331,60.2949106 C260.29408,61.6460539 260.599924,62.7693684 260.970782,63.6394142 C261.34164,64.5100254 261.790514,65.183901 262.290832,65.6633025 C262.790586,66.142704 263.36044,66.4649432 263.992481,66.660548 C264.624522,66.8561529 265.321011,66.9545206 266.105127,66.9545206 C266.75865,66.9545206 267.385604,66.9166434 267.952066,66.8075343 C268.517398,66.7001212 269.057855,66.5418283 269.624318,66.3677061 C270.233746,67.5006312 270.758374,68.6375137 271.150714,69.7698736 C271.541924,70.9022334 271.870382,72.1753609 272.176226,73.6141306 C271.174458,73.9165832 270.191911,74.1568493 269.213887,74.2868756 C268.234167,74.418598 267.104068,74.4632592 265.839986,74.4643898 L265.839421,74.4632592 Z M275.606095,65.3942045 C275.562564,66.917774 275.661498,68.3661544 275.900068,69.738215 C276.141464,71.1091449 276.521933,72.5563946 277.044299,74.0816601 C277.830111,74.256913 278.655495,74.3756327 279.527237,74.4406459 C280.397848,74.5062244 281.181964,74.537883 281.879018,74.537883 C282.574376,74.537883 283.347185,74.5062244 284.196879,74.4406459 C285.046573,74.3756327 285.840864,74.256913 286.580318,74.0822255 C286.580318,72.5575253 286.450292,71.0995343 286.190239,69.7054257 C285.928491,68.3124479 285.536715,66.8753741 285.014349,65.3953352 C284.230233,65.2653088 283.414459,65.1776824 282.564766,65.1341518 C281.715637,65.0889253 280.942263,65.068008 280.246905,65.068008 C279.592816,65.068008 278.829618,65.0894906 277.958441,65.1341518 C277.08783,65.1776824 276.30428,65.2641782 275.60666,65.3953352 L275.606095,65.3942045 Z M273.712798,52.6561457 L269.597182,52.6561457 C269.597182,52.786172 269.587006,52.917329 269.564958,53.0479207 C269.542345,53.1796431 269.533299,53.3317173 269.533299,53.5058396 C269.533299,54.6381994 269.640713,55.6936741 269.858365,56.6739596 C270.076583,57.6542452 270.40278,58.6661893 270.839216,59.7109227 L284.032933,59.7109227 L278.089033,25.9396898 C276.434306,25.6768105 274.866641,25.5467841 273.386602,25.5467841 C272.036589,25.5467841 270.576902,25.6768105 269.008106,25.9396898 L273.712798,52.6561457 Z M297.799895,45.4051985 C299.454057,45.6652512 300.803504,46.0027543 301.848803,46.416012 C302.894667,46.8304003 303.722878,47.2866231 304.331741,47.7897685 C304.940603,48.2906526 305.353295,48.800582 305.573209,49.3246447 C305.790297,49.8447501 305.898841,50.3671167 305.898841,50.8894834 C305.898841,51.7176947 305.627481,52.3932663 305.083067,52.9150677 C304.538652,53.4374344 303.809939,53.7008791 302.895232,53.7008791 C301.762872,53.7008791 300.728315,53.4493064 299.79156,52.9489876 C298.85537,52.4486689 298.039031,51.7844039 297.341411,50.9590193 C296.644922,50.1296773 296.04454,49.183877 295.544786,48.1165304 C295.042772,47.048053 294.662869,45.9705304 294.401685,44.8817011 L297.799895,45.4051985 Z M294.076054,38.7427618 C294.336107,36.6527297 295.031465,35.0963709 296.16439,34.0714242 C297.296185,33.049304 298.952607,32.5371133 301.130266,32.5371133 C302.873184,32.5371133 304.40806,32.7214115 305.73546,33.0928346 C307.06399,33.4625617 308.467709,33.9510085 309.949444,34.5598709 C310.645933,33.6909558 311.114028,32.6349157 311.353728,31.3928815 C311.592864,30.151978 311.711583,28.8347546 311.711583,27.4412114 C310.972695,27.0935323 310.111694,26.7786424 309.131974,26.4948458 C308.15395,26.2121798 307.139744,25.9724791 306.096141,25.7768742 C305.050277,25.5818347 304.005544,25.4274991 302.95968,25.3189554 C301.913816,25.2104116 300.977626,25.1550091 300.14998,25.1550091 C297.494051,25.1550091 295.218025,25.4829016 293.323597,26.1352947 C291.429735,26.7893837 289.863766,27.7142667 288.622297,28.9110744 C287.381394,30.1095781 286.466121,31.5681344 285.877611,33.2867434 C285.289665,35.0087445 284.995693,36.913913 284.995693,39.0045105 C284.995693,41.6593092 285.452481,44.273404 286.367188,46.8417069 C287.28133,49.4105751 288.577636,51.7092147 290.25441,53.733103 C291.93175,55.7592526 293.978817,57.3908005 296.393915,58.6328348 C298.81184,59.8737383 301.523172,60.4939074 304.527345,60.4939074 C305.963288,60.4939074 307.303125,60.3197852 308.544594,59.9726714 C309.785498,59.6238616 310.862455,59.0907536 311.778293,58.3727821 C312.691304,57.6536799 313.40984,56.7717621 313.933903,55.7270287 C314.455705,54.6811646 314.718019,53.462309 314.718019,52.0682005 C314.718019,50.1093254 314.2601,48.410503 313.344262,46.9734292 C312.429555,45.5363555 311.210699,44.3163692 309.686564,43.3157317 C308.16243,42.3133982 306.431383,41.4970589 304.493991,40.8655832 C302.554902,40.2324114 300.540625,39.7654473 298.449462,39.4612987 L294.076054,38.7427618 Z M338.014216,33.9719257 C338.493618,33.1895064 338.884827,32.2533167 339.188976,31.1639221 C339.493125,30.0750928 339.646895,28.6385844 339.646895,26.8538315 C338.252786,26.2432731 336.772182,25.8090981 335.204517,25.5479148 C333.635721,25.2856008 331.916546,25.1550091 330.044167,25.1550091 C325.079422,25.1550091 321.443207,26.3648194 319.134957,28.781048 C316.826141,31.196146 315.672299,34.5180364 315.672299,38.7421965 C315.672299,41.3116301 316.096298,43.8923703 316.946557,46.4827211 C317.794555,49.0742026 319.046765,51.4028048 320.701492,53.4713543 C322.356218,55.5404691 324.391413,57.2285503 326.809903,58.5339017 C329.227262,59.8398184 332.02509,60.4927768 335.203386,60.4927768 C336.683425,60.4927768 338.121629,60.384233 339.515738,60.1665802 C340.908716,59.9500581 342.234984,59.6012483 343.498501,59.1207162 C343.456667,57.9889217 343.261062,56.7813727 342.910556,55.4969386 C342.562877,54.2119391 342.018462,52.9812115 341.278443,51.8053212 C340.320205,52.1976615 339.372144,52.5018101 338.436519,52.7211589 C337.50033,52.9388117 336.466903,53.0473554 335.334543,53.0473554 C333.63459,53.0473554 332.154551,52.6657563 330.891034,51.9053849 C329.630344,51.1421868 328.573173,50.1404186 327.725175,48.8989498 C326.875481,47.6580462 326.242875,46.2317138 325.829617,44.6205178 C325.415229,43.0076258 325.209448,41.331982 325.209448,39.591325 C325.209448,37.1943177 325.818311,35.4304821 327.037732,34.2981223 C328.257153,33.1663278 329.802205,32.6009958 331.675715,32.6009958 C332.633952,32.6009958 333.580883,32.6874916 334.517638,32.8610485 C335.453828,33.0363014 336.618977,33.4054632 338.013651,33.9724911 L338.014216,33.9719257 Z M6.85578019,8.8661005 L5.80765481,8.8661005 C5.80765481,9.03739607 5.82065745,9.20416899 5.84553205,9.36359259 C5.87153732,9.52301619 5.9207212,9.69713842 5.98856103,9.88708995 L7.02481444,9.88708995 C7.06777966,10.1132227 7.10678757,10.3393555 7.14070748,10.5739682 C7.17575806,10.8074503 7.19271802,11.048847 7.19271802,11.2975931 L7.19271802,11.5067659 C7.36457892,11.5915657 7.57262107,11.6565789 7.81458313,11.6989788 C8.05767586,11.7442053 8.26402201,11.7651226 8.43644824,11.7651226 C8.44549355,11.6859761 8.4517122,11.609091 8.45623486,11.5322058 C8.45906152,11.4530594 8.46188818,11.3739129 8.46188818,11.2857211 C8.46188818,11.0171885 8.42796826,10.6864693 8.35786711,10.2873449 L8.28041663,9.88595929 L9.95153779,9.88595929 C9.95153779,9.69713842 9.93740449,9.52245086 9.91309522,9.36302726 C9.88652462,9.20360366 9.84242873,9.03683074 9.78306888,8.86553517 L8.12381969,8.86553517 L7.61897829,6.05413953 C7.57657839,5.85627336 7.53700516,5.65105787 7.50308524,5.43962373 C7.46803466,5.2264936 7.45220537,5.03541141 7.45220537,4.86298518 C7.45220537,4.60519382 7.51778387,4.42541827 7.65233287,4.32478919 C7.7857512,4.2275521 7.96439609,4.17780289 8.18939819,4.17780289 C8.33638449,4.17780289 8.46980283,4.18910953 8.59078386,4.21059214 C8.71176489,4.23207475 8.83161525,4.25921069 8.95429228,4.29369593 C8.97803622,4.20720015 8.99951883,4.11278972 9.01760946,4.00763798 C9.03343875,3.90474757 9.04361472,3.79394252 9.04361472,3.67183082 L9.04361472,3.48527129 C9.04361472,3.42025812 9.03909207,3.35185295 9.02948143,3.28344779 C8.91811104,3.24726655 8.77112474,3.21560796 8.59021852,3.18451471 C8.40931231,3.15624811 8.21483813,3.14154948 8.00792665,3.14154948 C7.73204467,3.14154948 7.47821064,3.15850944 7.25038187,3.19808267 C7.02029178,3.23652524 6.82468694,3.30945306 6.66074068,3.41856212 C6.49679442,3.52597519 6.36959474,3.67296148 6.27914164,3.85952102 C6.18699253,4.04381922 6.14346197,4.28747728 6.14346197,4.58879919 C6.14346197,4.75557211 6.15759527,4.92799835 6.18699253,5.11568854 L6.28536029,5.69063111 L6.85578019,8.8661005 Z M11.4219661,10.0696922 C11.5067659,10.5536163 11.5774324,10.9685699 11.6294429,11.3190757 C11.6803228,11.6673202 11.7074587,11.980514 11.7074587,12.2575267 C11.7074587,12.3604171 11.7046321,12.4429556 11.7006747,12.5051421 L11.6808881,12.7369282 C11.7769946,12.7555841 11.8934529,12.7674561 12.0313939,12.7765014 C12.1693349,12.786112 12.2857933,12.789504 12.3818997,12.789504 C12.4666995,12.789504 12.5645019,12.786112 12.671915,12.7759361 C12.7793281,12.7668907 12.8765651,12.7550188 12.9636263,12.7363628 C12.9885009,12.5808965 13.0009382,12.4220383 13.0009382,12.2558307 C13.0009382,12.1619856 12.9952848,12.0483539 12.9822822,11.9132396 C12.9692796,11.7803865 12.9540156,11.6384882 12.9370557,11.4948939 C12.9200957,11.3445156 12.8974824,11.195268 12.8726078,11.0392364 C12.8454719,10.8843355 12.8200319,10.7396105 12.7934613,10.5994082 C12.7341015,10.3054356 12.677003,10.0137243 12.6255578,9.72710102 C12.5746779,9.43878174 12.5215367,9.14480914 12.4706568,8.85083654 C12.7120536,9.17137974 13.0224208,9.44839238 13.4023238,9.6790478 C13.7822269,9.91309522 14.2141405,10.0306843 14.6969339,10.0306843 C15.2238233,10.0306843 15.6365156,9.8916126 15.9350108,9.6151653 C16.2318101,9.33815265 16.381623,8.91132705 16.381623,8.3329925 C16.381623,8.20296616 16.3714471,8.06332917 16.3544871,7.90560157 C16.3375272,7.75070062 16.3149139,7.59466901 16.2894739,7.4403334 L15.5517158,3.24443989 C15.45674,3.22747993 15.3465003,3.21617329 15.2221273,3.21221597 C15.0966236,3.20882398 14.9863839,3.20543199 14.8908428,3.20543199 C14.7964323,3.20543199 14.6912806,3.20938931 14.5742569,3.2127813 C14.4577985,3.21730396 14.3554734,3.22804526 14.2701083,3.24557055 C14.3910894,3.91831554 14.5075477,4.58427654 14.6194835,5.24006157 C14.7325498,5.89810792 14.8484429,6.56067693 14.9688586,7.23455258 C14.9869492,7.36231759 15.0039092,7.49234394 15.0208691,7.62180495 C15.0389597,7.75296195 15.0474397,7.86489767 15.0474397,7.9593081 C15.0474397,8.28833128 14.9586826,8.53029334 14.7817337,8.68462896 C14.6047848,8.8412259 14.3786521,8.91867637 14.1033354,8.91867637 C13.9032079,8.91867637 13.7002537,8.87514581 13.4927769,8.78865003 C13.2858655,8.70102358 13.0891299,8.55403728 12.9048317,8.34034182 C12.7182722,8.13116901 12.5486726,7.84624172 12.3932064,7.48838661 C12.2377401,7.12940084 12.1122364,6.6788313 12.01613,6.13441666 C11.9222849,5.64144723 11.8335277,5.16034977 11.7515546,4.68320963 C11.6701468,4.20946148 11.585347,3.73006001 11.4994166,3.24726655 C11.3790009,3.23030659 11.2534972,3.21899995 11.1234709,3.21504263 C10.9945752,3.21165064 10.8690715,3.20825865 10.7492211,3.20825865 C10.7051252,3.20825865 10.6282401,3.21221597 10.515739,3.21560796 C10.4026727,3.22013062 10.3037396,3.23087192 10.2183745,3.24839721 L11.4219661,10.0696922 Z M19.726692,6.9744999 C20.1676509,7.0525157 20.53229,7.14070748 20.8206093,7.2402059 C21.1100592,7.33970432 21.3407146,7.44937871 21.5148369,7.56414109 C21.6866978,7.67890347 21.8065482,7.80327649 21.8766493,7.93330283 C21.9444891,8.06445984 21.9784091,8.20466215 21.9784091,8.3595631 C21.9784091,8.55912527 21.9105692,8.72137553 21.7726282,8.84574855 C21.6346872,8.97012157 21.4356904,9.03343875 21.1762031,9.03343875 C20.9003211,9.03343875 20.6447911,8.96899091 20.4118743,8.84461789 C20.1789576,8.72024487 19.9692194,8.55629861 19.7843559,8.35277912 C19.5977963,8.15152095 19.4411994,7.91747354 19.3117384,7.6528982 C19.181712,7.39114952 19.0833443,7.1214862 19.0138085,6.84447356 L19.726692,6.9744999 Z M18.9126141,5.88736661 C18.9374887,5.30903206 19.084475,4.87203049 19.3507463,4.57918855 C19.6187136,4.28521595 20.0336672,4.13822965 20.5944765,4.13822965 C20.939329,4.13822965 21.2672215,4.18006422 21.5781541,4.26147201 C21.8890866,4.34457581 22.1694912,4.43333292 22.4204986,4.52830868 C22.4973838,4.39828234 22.5539169,4.2416854 22.5884022,4.06077918 C22.6223221,3.87987297 22.6392821,3.69783609 22.6392821,3.51806054 C22.5103864,3.45757002 22.3532241,3.40273283 22.1660993,3.34846096 C21.9812357,3.29758109 21.7873269,3.25122387 21.5838074,3.2127813 C21.3814185,3.17320807 21.1767684,3.14494147 20.9692916,3.12232819 C20.7623801,3.10084558 20.5735592,3.09180027 20.4000023,3.09180027 C19.8912036,3.09180027 19.4615513,3.15737877 19.1121762,3.28853578 C18.7616704,3.42421544 18.4767431,3.61077497 18.2562637,3.84651838 C18.0374802,4.08565379 17.8774913,4.36436242 17.7779929,4.68716695 C17.6773638,5.01110214 17.6293106,5.36160793 17.6293106,5.74433764 C17.6293106,6.27009632 17.7175024,6.79020169 17.8950166,7.30295774 C18.0714002,7.81740979 18.3257995,8.27702464 18.6582147,8.68236763 C18.9900645,9.08940661 19.3874929,9.41729912 19.849369,9.66604517 C20.3118106,9.91592188 20.8273933,10.0425562 21.3966825,10.0425562 C21.9659718,10.0425562 22.4165413,9.90122325 22.7495218,9.62025328 C23.081937,9.33871799 23.2470139,8.96672958 23.2470139,8.50089608 C23.2470139,8.12099303 23.1542994,7.79083919 22.9700012,7.51043456 C22.7834417,7.22946459 22.5279117,6.99032919 22.1994538,6.79246302 C21.8715613,6.59346618 21.4837436,6.42895459 21.0405234,6.29836292 C20.5961725,6.17059791 20.1099871,6.06827283 19.583663,5.98743036 L18.9126141,5.88736661 Z M28.3118226,12.5537606 L33.4133778,12.5537606 C33.4133778,12.5198407 33.4167698,12.4859208 33.4207271,12.4520009 C33.4246844,12.418081 33.4275111,12.3830304 33.4275111,12.3474145 C33.4275111,12.125239 33.4009405,11.8962796 33.3494953,11.6616668 C33.2963541,11.4298808 33.2251223,11.19018 33.1278852,10.9493486 L29.9179305,10.9493486 L29.5431155,8.76264476 L32.0927624,8.76264476 C32.0927624,8.48563212 32.0684532,8.21823012 32.0209653,7.95761211 C31.9734774,7.69869009 31.9022456,7.42846143 31.8072698,7.14353414 L29.2564922,7.14353414 L28.5707446,3.24443989 C28.2162815,3.19129869 27.8979996,3.16529342 27.6119416,3.16529342 C27.3010091,3.16529342 26.9912072,3.19129869 26.6802746,3.24443989 L28.3118226,12.5537606 Z M34.8877634,12.5537606 L39.989884,12.5537606 C39.989884,12.5198407 39.993276,12.4859208 39.9955373,12.4520009 C40.0011907,12.418081 40.0028867,12.3830304 40.0028867,12.3474145 C40.0028867,12.125239 39.9768814,11.8962796 39.9248709,11.6616668 C39.873991,11.4298808 39.8004978,11.19018 39.7043914,10.9493486 L36.4944368,10.9493486 L36.143931,8.92998301 L38.6935779,8.92998301 C38.6935779,8.41383497 38.5991675,7.87281232 38.409216,7.31030706 L35.859569,7.31030706 L35.4186101,4.85111321 L38.7218445,4.85111321 C38.7218445,4.81606263 38.7241059,4.7855347 38.7274978,4.75500678 C38.7308898,4.72391352 38.7331512,4.69055894 38.7331512,4.65720436 C38.7331512,4.42428761 38.7071459,4.19363218 38.651178,3.96297676 C38.5935142,3.73684399 38.526805,3.49657793 38.4487892,3.24500522 L33.2567809,3.24500522 L34.8877634,12.5537606 Z M41.7412823,12.5537606 C42.0691748,12.6142511 42.3891527,12.6453444 42.6995199,12.6453444 C43.0008418,12.6453444 43.3032944,12.6142511 43.604051,12.5537606 L42.2596917,4.87655314 L45.3153107,4.87655314 C45.3153107,4.73182817 45.3068307,4.58992986 45.2898708,4.45651153 L45.2389909,4.07491248 C45.211855,3.93584083 45.1824577,3.8007265 45.1474071,3.66391617 C45.1123566,3.53275917 45.073914,3.39255685 45.0303834,3.24557055 L40.1102997,3.24557055 L41.7412823,12.5537606 Z M48.0645198,12.5537606 C48.3924124,12.6142511 48.7112596,12.6453444 49.0221921,12.6453444 C49.3240794,12.6453444 49.6270973,12.6142511 49.9278538,12.5537606 L48.5812332,4.87655314 L51.6379829,4.87655314 C51.6379829,4.73182817 51.6295029,4.58992986 51.612543,4.45651153 L51.5616631,4.07491248 C51.5333965,3.93584083 51.5051299,3.8007265 51.469514,3.66391617 C51.4344634,3.53275917 51.3960208,3.39255685 51.3536209,3.24557055 L46.4329719,3.24557055 L48.0645198,12.5537606 Z M56.4065576,4.668511 C56.7423648,4.668511 57.0425561,4.74596147 57.3071314,4.89464376 C57.5688801,5.04728338 57.7978395,5.24514955 57.992879,5.4938956 C58.1862225,5.73868432 58.3524301,6.02191561 58.4903711,6.34641613 C58.6294428,6.66865533 58.7391172,7.00220116 58.8210903,7.34309631 C58.9024981,7.68229546 58.9624233,8.02149461 59.0019965,8.35899777 C59.0415697,8.69480493 59.060791,9.00121483 59.060791,9.27822747 C59.060791,10.4863418 58.5943922,11.0918123 57.6615945,11.0918123 C57.325222,11.0918123 57.0250308,11.0166231 56.7627168,10.8656795 C56.4998374,10.7153012 56.2686167,10.5151737 56.0684892,10.2698197 C55.870623,10.0227696 55.7021541,9.74066898 55.5636478,9.4150378 C55.4268374,9.09110261 55.3160324,8.75925277 55.2329286,8.41779229 C55.1515208,8.07746247 55.0915956,7.73939398 55.0520224,7.40302149 C55.0147105,7.06551834 54.9937932,6.75288978 54.9937932,6.47022382 C54.9937932,5.26889349 55.4641493,4.668511 56.4048617,4.668511 L56.4065576,4.668511 Z M56.2352621,3.09123494 C55.1402141,3.09123494 54.3317895,3.39821017 53.8099881,4.00707265 C53.2864908,4.62215378 53.0258728,5.47297832 53.0258728,6.5601116 C53.0258728,7.0259451 53.065446,7.50251991 53.1485498,7.99040136 C53.2288269,8.48054413 53.3577226,8.95033496 53.5295835,9.40938448 C53.7031404,9.86730333 53.9185319,10.2958249 54.1774539,10.6966453 C54.4375066,11.1008576 54.7450471,11.4496674 55.1045982,11.7481626 C55.461888,12.0455272 55.8677963,12.2795746 56.3211925,12.4536969 C56.7745887,12.6244271 57.2766035,12.7120536 57.8306288,12.7120536 C58.3733474,12.7120536 58.8470955,12.6289498 59.2535692,12.4655688 C59.6589122,12.3004919 59.994154,12.0687058 60.2575987,11.7656879 C60.520478,11.4649313 60.7172135,11.0957696 60.8455439,10.6576374 C60.9755702,10.2223318 61.0405834,9.73049301 61.0405834,9.17646773 C61.0405834,8.71063422 60.9993142,8.23236342 60.919037,7.74617797 C60.8364986,7.25660053 60.7087336,6.79076702 60.535742,6.33850149 C60.3627504,5.89188927 60.145663,5.46958633 59.8822183,5.07215799 C59.6187736,4.67303365 59.3112331,4.32761585 58.9567699,4.03364325 C58.6017415,3.74249731 58.1992252,3.51127656 57.744133,3.34111165 C57.2918674,3.1737734 56.7898527,3.0923656 56.2358274,3.0923656 L56.2352621,3.09123494 Z M62.5878969,12.5537606 C62.8971334,12.6069018 63.2340712,12.6317764 63.5975797,12.6317764 C63.7700059,12.6317764 63.9345175,12.6295151 64.0894184,12.6261231 C64.2448847,12.6227311 64.3992203,12.5978565 64.5552519,12.5537606 L64.5818225,5.78334554 L67.2614958,12.5537606 C67.4435327,12.5893765 67.6046523,12.6102938 67.7476813,12.6199045 C67.8890143,12.6283844 68.0388272,12.6312111 68.1931628,12.6312111 C68.3231892,12.6312111 68.4566075,12.6283844 68.5962445,12.6199045 C68.7341855,12.6102938 68.8755185,12.5893765 69.0225048,12.5537606 L69.3334373,5.61487663 L71.7813245,12.5537606 C71.9356602,12.5893765 72.0933878,12.6102938 72.2533767,12.6199045 C72.413931,12.6283844 72.5654399,12.6312111 72.7112956,12.6312111 C72.8594125,12.6312111 73.0143135,12.6255578 73.1782597,12.6142511 C73.342206,12.5989872 73.4948456,12.5803312 73.6322213,12.5537606 L69.8767213,3.24500522 C69.7127751,3.21956528 69.5443061,3.19977867 69.3713146,3.18564537 C69.198323,3.17433873 69.0343767,3.16642408 68.8794758,3.16642408 C68.5594979,3.16642408 68.2152108,3.19242935 67.8449184,3.24557055 L67.5074152,9.24035023 L64.9950802,3.24500522 L64.5411186,3.20543199 C64.3166819,3.18112271 64.1018557,3.16585875 63.8932483,3.16585875 C63.6445022,3.16585875 63.3629669,3.19186402 63.0520344,3.24500522 L62.5878969,12.5537606 Z M73.2783235,5.14904313 C73.606216,5.02693143 73.9408925,4.92404102 74.2812223,4.83641458 C74.6221174,4.75274545 74.9522713,4.70921489 75.2716838,4.70921489 C75.5385205,4.70921489 75.7883972,4.73748149 76.0167913,4.799668 C76.2451854,4.86015852 76.4436169,4.94891563 76.6103898,5.07102732 C76.7799894,5.19144302 76.9128424,5.33842932 77.0061222,5.51198622 C77.1022286,5.68271646 77.1502818,5.88736661 77.1502818,6.1191527 C77.1502818,6.29157894 77.1107086,6.44478389 77.0315621,6.57311423 C76.9546769,6.70314058 76.8546132,6.82016428 76.7353282,6.92362002 C76.6137818,7.02537977 76.4696222,7.1214862 76.3068066,7.21420063 C76.1428603,7.30465374 75.9789141,7.40302149 75.8149678,7.5059119 C75.2626385,7.83380442 74.8256369,8.17300357 74.5011364,8.52237869 C74.1766359,8.87175382 74.014951,9.28388079 74.014951,9.75819427 C74.014951,10.2257238 74.0969241,10.6401121 74.2625663,11.0058818 C74.4248166,11.3756089 74.6582987,11.6825841 74.9601859,11.9330262 C75.2626385,12.1829029 75.6272776,12.3762464 76.0541032,12.5107954 C76.4820595,12.6408217 76.9642876,12.7109229 77.4979609,12.7109229 C77.9745357,12.7109229 78.3844014,12.675307 78.7292538,12.6057712 C79.0741063,12.5379313 79.4376147,12.4305183 79.8169525,12.2824013 C79.7819019,12.0494845 79.720846,11.8035652 79.6360462,11.5446431 C79.5489851,11.2862865 79.4291348,11.0313218 79.2725378,10.7825757 C79.0220958,10.9024261 78.7665657,11.0013592 78.5019904,11.0799403 C78.2391111,11.1568254 77.8970853,11.195268 77.4730863,11.195268 C77.31762,11.195268 77.1525431,11.1839614 76.9755942,11.1568254 C76.7975147,11.1313855 76.6375257,11.081071 76.4950621,11.0058818 C76.3520331,10.9340847 76.2350094,10.8340209 76.138903,10.7045599 C76.0444926,10.5745336 75.99757,10.4077606 75.99757,10.1997185 C75.99757,9.90461524 76.1015911,9.66265318 76.3130252,9.47439765 C76.5261554,9.28444612 76.7935573,9.09562526 77.1231459,8.90454307 C77.4171185,8.74172748 77.6884778,8.57665056 77.9394852,8.4127043 C78.1899272,8.24762738 78.4104066,8.07124382 78.6009235,7.8812923 C78.789179,7.68907944 78.9384267,7.47651464 79.0475357,7.24077123 C79.1549488,7.00163583 79.2092206,6.72858051 79.2092206,6.41934395 C79.2092206,5.97668906 79.1283782,5.55551678 78.9700852,5.14960846 C78.8084003,4.74426547 78.5641769,4.38754103 78.2317618,4.08678445 C77.8999119,3.78546254 77.477609,3.54293514 76.9693756,3.36202893 C76.4605768,3.18112271 75.8556717,3.09180027 75.1557908,3.09180027 C74.3445395,3.09180027 73.5457255,3.24217856 72.7610448,3.54293514 C72.7949647,3.80298783 72.8571512,4.0647365 72.9476043,4.32535452 C73.0380574,4.59106052 73.1488625,4.86411584 73.2783235,5.14960846 L73.2783235,5.14904313 Z M81.8012675,12.5418886 C82.12916,12.6023792 82.4485725,12.6323418 82.7589398,12.6323418 C82.9059261,12.6323418 83.0596964,12.6249924 83.2196853,12.6136858 C83.3779782,12.5989872 83.5407938,12.5763739 83.7047401,12.5418886 L83.0698723,8.90284708 L85.879572,8.90284708 L86.5138744,12.5418886 C86.6874313,12.5758086 86.8530735,12.5984218 87.0124971,12.6136858 C87.1724861,12.6249924 87.3245604,12.6323418 87.4715467,12.6323418 C87.618533,12.6323418 87.7745646,12.6249924 87.9379455,12.6136858 C88.1018917,12.5989872 88.2630113,12.5763739 88.4184776,12.5418886 L86.785799,3.24500522 C86.4505572,3.19412535 86.126622,3.16755475 85.8151241,3.16755475 C85.5053222,3.16755475 85.1955203,3.19356002 84.8834571,3.24500522 L85.583338,7.27129916 L82.7736384,7.27129916 L82.0737575,3.24500522 C81.7198597,3.19412535 81.3953592,3.16755475 81.1030826,3.16755475 C80.790454,3.16755475 80.4812175,3.19356002 80.1702849,3.24500522 L81.8012675,12.5418886 Z M90.4248406,12.5418886 C90.7527331,12.6023792 91.072711,12.6323418 91.3830782,12.6323418 C91.5300645,12.6323418 91.6827041,12.6249924 91.8432584,12.6136858 C92.0015513,12.5989872 92.1632363,12.5763739 92.3277478,12.5418886 L90.6967653,3.24500522 C90.3423021,3.19412535 90.018367,3.16755475 89.7243944,3.16755475 C89.4145925,3.16755475 89.1036599,3.19356002 88.7915967,3.24500522 L90.4248406,12.5418886 Z M95.4071108,7.81571379 C95.5201772,7.78914319 95.714086,7.77783656 95.9894027,7.77783656 C96.1963142,7.77783656 96.4077483,7.81345247 96.6225744,7.88072696 C96.8402272,7.94969746 97.0386587,8.0672865 97.2201303,8.23010209 C97.4010365,8.39404835 97.5497188,8.61000514 97.6667425,8.87797247 C97.7832009,9.1459398 97.8419954,9.48174696 97.8419954,9.88652462 C97.8419954,10.137532 97.7995955,10.3444435 97.718753,10.5100857 C97.6362146,10.6729013 97.5282362,10.8006663 97.3942525,10.8905541 C97.2602688,10.9810072 97.1115866,11.0465857 96.9476403,11.0799403 C96.783694,11.1149909 96.6231398,11.1308202 96.4682388,11.1308202 L96.2737646,11.1308202 C96.2149701,11.1308202 96.1182984,11.1223402 95.9888374,11.1059456 L95.4071108,7.81571379 Z M94.3584201,12.5814619 C94.548937,12.5984218 94.7258859,12.6142511 94.8887014,12.6323418 C95.0526477,12.6493017 95.2154633,12.665131 95.3748869,12.6775683 C95.5343105,12.6917016 95.6942994,12.7001816 95.855419,12.7041389 C96.013712,12.7086616 96.1889649,12.7109229 96.3777857,12.7109229 C96.7486435,12.7109229 97.1370265,12.6758723 97.5423695,12.6069018 C97.9494085,12.539062 98.3197009,12.4067743 98.6589,12.2111695 C98.9941418,12.017826 99.2722852,11.74364 99.4921993,11.3914382 C99.7115481,11.0352791 99.8223531,10.5784909 99.8223531,10.0159856 C99.8223531,9.47326698 99.7290733,8.96842558 99.5430791,8.50259208 C99.3576503,8.03619324 99.0885523,7.63198092 98.7346545,7.29052044 C98.381322,6.94905996 97.9488431,6.68391929 97.4400444,6.49622909 C96.9289843,6.3051469 96.3512151,6.21017114 95.7044754,6.21017114 C95.5654038,6.21017114 95.4540334,6.21412846 95.3675376,6.21921645 C95.2810418,6.22147778 95.199634,6.22769643 95.1216182,6.23617641 L94.6015128,3.24557055 C94.4296519,3.22013062 94.2668363,3.20147466 94.1096741,3.19469068 C93.9559038,3.18564537 93.8043948,3.18168805 93.6574085,3.18168805 C93.5273822,3.18168805 93.3832225,3.18564537 93.2249296,3.19412535 C93.0643753,3.20317066 92.8942104,3.21956528 92.7127389,3.24500522 L94.3584201,12.5814619 Z M105.611917,4.11222439 C106.016695,4.11222439 106.363809,4.22189878 106.652128,4.44407422 C106.942143,4.66285768 107.177887,4.94156631 107.358793,5.27793881 C107.539699,5.61487663 107.674248,5.97895039 107.761309,6.37185607 C107.846109,6.76476175 107.88964,7.1339235 107.88964,7.47990663 C107.88964,7.97004941 107.779965,8.34486447 107.560616,8.60491715 C107.340137,8.8661005 107.027508,8.99386552 106.621035,8.99386552 C106.215126,8.99386552 105.869143,8.88306046 105.586477,8.65805835 C105.299854,8.43475225 105.068633,8.15265162 104.886596,7.81571379 C104.70456,7.47990663 104.573403,7.11583288 104.49256,6.72179653 C104.410587,6.32889084 104.368187,5.96425176 104.368187,5.6267486 C104.368187,5.13660583 104.474469,4.76179076 104.685904,4.50173808 C104.897903,4.2416854 105.206009,4.11165905 105.611917,4.11165905 L105.611917,4.11222439 Z M105.483022,3.09123494 C104.68025,3.09123494 104.075345,3.31058372 103.668306,3.7583266 C103.264094,4.20154683 103.06114,4.83019592 103.06114,5.63975123 C103.06114,6.11689137 103.134633,6.61212214 103.281619,7.13618483 C103.428605,7.65742086 103.653608,8.13343033 103.961148,8.56082126 C104.267558,8.98595087 104.650853,9.33984865 105.114425,9.62081861 C105.575736,9.90178858 106.120716,10.0431216 106.752757,10.0431216 C107.561182,10.0431216 108.17174,9.81868479 108.575953,9.37037657 C108.982992,8.92150303 109.18538,8.28946194 109.18538,7.4793413 C109.18538,6.99541718 109.113018,6.49566376 108.966032,5.97555839 C108.820176,5.45941035 108.595174,4.98509687 108.291591,4.5588366 C107.989138,4.13257634 107.605278,3.78093988 107.140009,3.50392724 C106.673611,3.22804526 106.121281,3.09123494 105.483587,3.09123494 L105.483022,3.09123494 Z M111.4077,8.8661005 L110.331308,8.8661005 C110.331308,9.03739607 110.341484,9.20416899 110.364097,9.36359259 C110.386711,9.52301619 110.431937,9.69713842 110.501473,9.88708995 L111.575604,9.88708995 L111.640052,10.2613397 C111.787038,11.1364735 112.075357,11.7866052 112.501617,12.2190841 C112.927878,12.6487364 113.531652,12.8652585 114.308418,12.8652585 C114.53229,12.8652585 114.726764,12.8511252 114.89071,12.8217279 C115.054656,12.7917654 115.2056,12.7555841 115.342976,12.7114882 C115.292096,12.4864861 115.237824,12.2970999 115.182987,12.147287 C115.126454,11.995778 115.055222,11.8397464 114.969291,11.6724082 C114.873185,11.7097201 114.774252,11.740248 114.669665,11.7656879 C114.566775,11.7916932 114.445794,11.8035652 114.307853,11.8035652 C114.128077,11.8035652 113.96187,11.7809519 113.816014,11.733464 C113.667897,11.6825841 113.537871,11.6034377 113.421978,11.486414 C113.304389,11.3699556 113.204325,11.2094013 113.116699,11.0047512 C113.030768,10.8040583 112.960667,10.547963 112.909222,10.2358997 C112.892262,10.1771052 112.880955,10.11718 112.872475,10.0623428 C112.862299,10.0058097 112.850993,9.9481458 112.832902,9.88708995 L114.427138,9.88708995 C114.427138,9.70448774 114.415831,9.53658416 114.394349,9.38281388 C114.371735,9.22678227 114.324813,9.05492136 114.256973,8.86553517 L112.662737,8.86553517 L111.666622,3.20543199 C111.562601,2.62709743 111.436532,2.14091198 111.284458,1.74461431 C111.134645,1.34662063 110.945259,1.02381611 110.723083,0.779592718 C110.499212,0.533108001 110.236898,0.355593778 109.938402,0.248180713 C109.638777,0.140767648 109.292793,0.0864957838 108.896496,0.0864957838 C108.705979,0.0864957838 108.524507,0.101759746 108.351516,0.130026342 C108.18022,0.161119597 108.028146,0.201823495 107.89925,0.254399364 C107.934301,0.453961532 107.976135,0.63317175 108.028146,0.792595352 C108.081852,0.950888289 108.150258,1.10918123 108.237319,1.26464751 C108.320988,1.22903159 108.419921,1.20133033 108.527334,1.17984772 C108.634747,1.15893044 108.746117,1.14988513 108.857488,1.14988513 C109.056485,1.14988513 109.233434,1.17475973 109.394553,1.2256396 C109.554542,1.27765014 109.693048,1.37997522 109.815725,1.53657216 C109.934445,1.6914731 110.04525,1.90969123 110.145314,2.19066119 C110.243682,2.47106582 110.333004,2.83627024 110.41102,3.28401312 L111.4077,8.8661005 Z M118.827116,12.5418886 C119.155009,12.6023792 119.473856,12.6323418 119.784223,12.6323418 C119.929514,12.6323418 120.08498,12.6249924 120.242142,12.6136858 C120.403827,12.5989872 120.564381,12.5763739 120.729458,12.5418886 L119.098476,3.24500522 C118.744578,3.19412535 118.421773,3.16755475 118.127235,3.16755475 C117.816303,3.16755475 117.50537,3.19356002 117.194438,3.24500522 L118.827116,12.5418886 Z M122.746562,12.5537606 C122.892418,12.5893765 123.033751,12.6102938 123.166039,12.6199045 C123.300022,12.6283844 123.428353,12.6329071 123.548203,12.6329071 C123.808256,12.6329071 124.068308,12.6069018 124.324969,12.5548913 L126.61739,6.63756207 L127.63951,12.5554566 C127.950443,12.6074671 128.255722,12.6334724 128.55874,12.6334724 C128.698377,12.6334724 128.83123,12.6289498 128.960126,12.6204698 C129.091848,12.6108591 129.219048,12.5899419 129.350205,12.5543259 L127.706219,3.24557055 C127.403767,3.19469068 127.139191,3.16812008 126.914755,3.16812008 C126.673923,3.16812008 126.419524,3.19412535 126.150426,3.24557055 L123.846133,9.14989713 L122.822882,3.24557055 C122.677027,3.22013062 122.52891,3.200344 122.378531,3.1862107 C122.224761,3.17490406 122.077209,3.16698942 121.929658,3.16698942 C121.652645,3.16698942 121.382417,3.19299468 121.113884,3.24613588 L122.746562,12.5537606 Z M131.900417,4.74878813 C132.057579,4.72221753 132.27184,4.70921489 132.548287,4.70921489 C133.041257,4.70921489 133.486738,4.80814798 133.888124,5.00601415 C134.28951,5.20501099 134.636058,5.48089296 134.930031,5.83422541 C135.225699,6.1881232 135.452397,6.61099147 135.611256,7.10452624 C135.77181,7.59523435 135.849826,8.14077965 135.849826,8.73607416 C135.849826,9.1318065 135.79725,9.4806163 135.689837,9.77854622 C135.579597,10.0759108 135.434307,10.3178729 135.248878,10.5095204 C135.064014,10.6983413 134.840708,10.8408049 134.581786,10.9357807 C134.32456,11.0307564 134.046982,11.079375 133.753575,11.079375 C133.572669,11.079375 133.434162,11.075983 133.339752,11.0737216 C133.243646,11.0697643 133.136232,11.0578924 133.016382,11.0381057 L131.900417,4.74878813 Z M131.370136,12.5418886 C131.716119,12.5848539 132.069451,12.6238618 132.43296,12.6572164 C132.795903,12.6928323 133.179198,12.7103576 133.583975,12.7103576 C134.247675,12.7103576 134.848058,12.6232964 135.378339,12.4520009 C135.90749,12.278444 136.360886,12.0313939 136.731178,11.7068934 C137.102601,11.3823929 137.386963,10.9849645 137.58596,10.514043 C137.784957,10.0436869 137.88389,9.51057889 137.88389,8.91584971 C137.88389,7.98305204 137.736904,7.15484078 137.442931,6.42951993 C137.148958,5.70306841 136.739658,5.09533659 136.213334,4.60349782 C135.685879,4.11165905 135.058926,3.73627866 134.330779,3.47679131 C133.599239,3.21843462 132.803252,3.09010427 131.938294,3.09010427 C131.446455,3.09010427 131.041678,3.1048029 130.722831,3.1330695 C130.403983,3.16416276 130.07496,3.19977867 129.739153,3.24387456 L131.370136,12.5418886 Z M140.245281,12.5537606 L145.349098,12.5537606 C145.349098,12.5198407 145.351359,12.4859208 145.356447,12.4520009 C145.359839,12.418081 145.362101,12.3830304 145.362101,12.3474145 C145.362101,12.125239 145.336661,11.8962796 145.282954,11.6616668 C145.232074,11.4298808 145.158581,11.19018 145.064736,10.9493486 L141.851389,10.9493486 L141.503145,8.92998301 L144.054488,8.92998301 C144.054488,8.41383497 143.959512,7.87281232 143.768995,7.31030706 L141.219348,7.31030706 L140.778389,4.85111321 L144.079928,4.85111321 C144.079928,4.81606263 144.082754,4.7855347 144.087277,4.75500678 C144.09293,4.72391352 144.094626,4.69055894 144.094626,4.65720436 C144.094626,4.42428761 144.06636,4.19363218 144.009827,3.96297676 C143.953293,3.73684399 143.886584,3.49657793 143.809699,3.24500522 L138.615429,3.24500522 L140.245281,12.5537606 Z M148.16219,7.81571379 C148.27356,7.78914319 148.467469,7.77783656 148.745612,7.77783656 C148.953089,7.77783656 149.163958,7.81345247 149.378784,7.88072696 C149.59361,7.94969746 149.793172,8.0672865 149.97634,8.23010209 C150.154985,8.39404835 150.304232,8.61000514 150.421821,8.87797247 C150.536584,9.1459398 150.594813,9.48174696 150.594813,9.88652462 C150.594813,10.137532 150.55524,10.3444435 150.472136,10.5100857 C150.390728,10.6729013 150.28275,10.8006663 150.149897,10.8905541 C150.014217,10.9810072 149.865535,11.0465857 149.703284,11.0799403 C149.537077,11.1149909 149.378784,11.1308202 149.222752,11.1308202 L149.028278,11.1308202 C148.969484,11.1308202 148.873377,11.1223402 148.745612,11.1059456 L148.16219,7.81571379 Z M147.112934,12.5814619 C147.30345,12.5984218 147.479269,12.6142511 147.644346,12.6323418 C147.807161,12.6493017 147.972238,12.665131 148.130531,12.6775683 C148.289955,12.6917016 148.449378,12.7001816 148.609367,12.7041389 C148.768791,12.7086616 148.944609,12.7109229 149.13343,12.7109229 C149.504853,12.7109229 149.893236,12.6758723 150.299144,12.6069018 C150.705053,12.539062 151.07478,12.4067743 151.412848,12.2111695 C151.750351,12.017826 152.027364,11.74364 152.245582,11.3914382 C152.467192,11.0352791 152.576301,10.5784909 152.576301,10.0159856 C152.576301,9.47326698 152.484152,8.96842558 152.299289,8.50259208 C152.11386,8.03619324 151.843631,7.63198092 151.489168,7.29052044 C151.13527,6.94905996 150.705053,6.68391929 150.194558,6.49622909 C149.68689,6.3051469 149.106859,6.21017114 148.458989,6.21017114 C148.322179,6.21017114 148.208547,6.21412846 148.123182,6.21921645 C148.038382,6.22147778 147.956409,6.22769643 147.877262,6.23617641 L147.360549,3.24557055 C147.186427,3.22013062 147.023611,3.20147466 146.86871,3.19469068 C146.713809,3.18564537 146.56117,3.18168805 146.416445,3.18168805 C146.286418,3.18168805 146.139432,3.18564537 145.98227,3.19412535 C145.82115,3.20317066 145.651551,3.21956528 145.470079,3.24500522 L147.112934,12.5814619 Z M154.610931,12.5537606 L159.713051,12.5537606 C159.713051,12.5198407 159.715878,12.4859208 159.720966,12.4520009 C159.724358,12.418081 159.726619,12.3830304 159.726619,12.3474145 C159.726619,12.125239 159.700049,11.8962796 159.648604,11.6616668 C159.597724,11.4298808 159.522535,11.19018 159.428124,10.9493486 L156.217039,10.9493486 L155.866533,8.92998301 L158.418441,8.92998301 C158.418441,8.41383497 158.323466,7.87281232 158.132949,7.31030706 L155.583302,7.31030706 L155.142343,4.85111321 L158.443881,4.85111321 C158.443881,4.81606263 158.445577,4.7855347 158.451231,4.75500678 C158.455188,4.72391352 158.456884,4.69055894 158.456884,4.65720436 C158.456884,4.42428761 158.428617,4.19363218 158.373215,3.96297676 C158.317812,3.73684399 158.251103,3.49657793 158.173087,3.24500522 L152.981079,3.24500522 L154.610931,12.5537606 Z M161.46445,12.5537606 C161.612567,12.5893765 161.752769,12.6102938 161.885622,12.6199045 C162.01904,12.6283844 162.145675,12.6329071 162.268352,12.6329071 C162.526143,12.6329071 162.786196,12.6069018 163.043987,12.5548913 L165.336973,6.63756207 L166.360224,12.5554566 C166.671157,12.6074671 166.976436,12.6334724 167.279454,12.6334724 C167.416264,12.6334724 167.549682,12.6289498 167.680839,12.6204698 C167.810866,12.6108591 167.938631,12.5899419 168.069222,12.5543259 L166.424107,3.24557055 C166.122219,3.19469068 165.857644,3.16812008 165.634338,3.16812008 C165.391245,3.16812008 165.136846,3.19412535 164.870009,3.24557055 L162.563455,9.14989713 L161.541335,3.24557055 C161.395479,3.22013062 161.247362,3.200344 161.095853,3.1862107 C160.94604,3.17490406 160.796227,3.16698942 160.650372,3.16698942 C160.372228,3.16698942 160.100304,3.19299468 159.832902,3.24613588 L161.46445,12.5537606 Z M170.620565,4.74878813 C170.775466,4.72221753 170.991989,4.70921489 171.268436,4.70921489 C171.759144,4.70921489 172.205756,4.80814798 172.608272,5.00601415 C173.009658,5.20501099 173.357337,5.48089296 173.650745,5.83422541 C173.944717,6.1881232 174.169719,6.61099147 174.330274,7.10452624 C174.488566,7.59523435 174.569974,8.14077965 174.569974,8.73607416 C174.569974,9.1318065 174.513441,9.4806163 174.407724,9.77854622 C174.300311,10.0759108 174.152194,10.3178729 173.969026,10.5095204 C173.780771,10.6983413 173.559161,10.8408049 173.301935,10.9357807 C173.041882,11.0307564 172.764869,11.079375 172.470897,11.079375 C172.289991,11.079375 172.15205,11.075983 172.056509,11.0737216 C171.962098,11.0697643 171.852989,11.0578924 171.734269,11.0381057 L170.620565,4.74878813 Z M170.089153,12.5418886 C170.434006,12.5848539 170.787904,12.6238618 171.150281,12.6572164 C171.512094,12.6928323 171.898781,12.7103576 172.303559,12.7103576 C172.968389,12.7103576 173.567075,12.6232964 174.095661,12.4520009 C174.628203,12.278444 175.077642,12.0313939 175.449631,11.7068934 C175.820488,11.3823929 176.105416,10.9849645 176.305543,10.514043 C176.502279,10.0436869 176.603473,9.51057889 176.603473,8.91584971 C176.603473,7.98305204 176.454226,7.15484078 176.160818,6.42951993 C175.867976,5.70306841 175.458111,5.09533659 174.931221,4.60349782 C174.404332,4.11165905 173.776248,3.73627866 173.047535,3.47679131 C172.318257,3.21843462 171.521139,3.09010427 170.658443,3.09010427 C170.165473,3.09010427 169.759565,3.1048029 169.440152,3.1330695 C169.12074,3.16416276 168.793413,3.19977867 168.456475,3.24387456 L170.089153,12.5418886 Z M178.967126,12.5537606 L184.06755,12.5537606 C184.06755,12.5198407 184.070377,12.4859208 184.074334,12.4520009 C184.077726,12.418081 184.079988,12.3830304 184.079988,12.3474145 C184.079988,12.125239 184.055113,11.8962796 184.003103,11.6616668 C183.952223,11.4298808 183.87873,11.19018 183.781493,10.9493486 L180.571538,10.9493486 L180.223859,8.92998301 L182.77181,8.92998301 C182.77181,8.41383497 182.677399,7.87281232 182.487448,7.31030706 L179.937801,7.31030706 L179.496842,4.85111321 L182.79838,4.85111321 C182.79838,4.81606263 182.801207,4.7855347 182.804034,4.75500678 C182.808556,4.72391352 182.811948,4.69055894 182.811948,4.65720436 C182.811948,4.42428761 182.783682,4.19363218 182.728279,3.96297676 C182.671746,3.73684399 182.605602,3.49657793 182.528152,3.24500522 L177.335578,3.24500522 L178.967126,12.5537606 Z M185.817818,12.5537606 C185.964804,12.5893765 186.106137,12.6102938 186.241817,12.6199045 C186.373539,12.6283844 186.500739,12.6329071 186.624547,12.6329071 C186.882338,12.6329071 187.140695,12.6069018 187.399052,12.5548913 L189.690342,6.63756207 L190.713593,12.5554566 C191.023394,12.6074671 191.330935,12.6334724 191.632822,12.6334724 C191.770763,12.6334724 191.904182,12.6289498 192.034208,12.6204698 C192.163104,12.6108591 192.294261,12.5899419 192.424287,12.5543259 L190.77804,3.24557055 C190.474457,3.19469068 190.212708,3.16812008 189.987706,3.16812008 C189.745744,3.16812008 189.491345,3.19412535 189.224508,3.24557055 L186.920781,9.14989713 L185.89753,3.24557055 C185.749413,3.22013062 185.601296,3.200344 185.449222,3.1862107 C185.298843,3.17490406 185.148465,3.16698942 185.00374,3.16698942 C184.726728,3.16698942 184.453107,3.19299468 184.18627,3.24613588 L185.817818,12.5537606 Z M195.712257,10.9487833 L193.510855,10.9487833 C193.510855,11.2178813 193.534599,11.4835873 193.581521,11.7459013 C193.630705,12.0087806 193.700241,12.2795746 193.794086,12.5543259 L200.10206,12.5543259 C200.10206,12.2874893 200.07775,12.0217833 200.030828,11.7651226 C199.983905,11.5067659 199.912108,11.2337106 199.818828,10.9493486 L197.61573,10.9493486 L196.27024,3.24557055 C195.914081,3.19469068 195.591842,3.16812008 195.299,3.16812008 C194.988067,3.16812008 194.676004,3.19412535 194.366202,3.24557055 L195.712257,10.9487833 Z M204.256684,12.5537606 L209.357674,12.5537606 C209.357674,12.5198407 209.361066,12.4859208 209.363327,12.4520009 C209.368981,12.418081 209.370677,12.3830304 209.370677,12.3474145 C209.370677,12.125239 209.345802,11.8962796 209.294357,11.6616668 C209.242346,11.4298808 209.168288,11.19018 209.071616,10.9493486 L205.863357,10.9493486 L205.512852,8.92998301 L208.062499,8.92998301 C208.062499,8.41383497 207.967523,7.87281232 207.777571,7.31030706 L205.22962,7.31030706 L204.787531,4.85111321 L208.0902,4.85111321 C208.0902,4.81606263 208.09133,4.7855347 208.096984,4.75500678 C208.09981,4.72391352 208.102637,4.69055894 208.102637,4.65720436 C208.102637,4.42428761 208.076066,4.19363218 208.019533,3.96297676 C207.963,3.73684399 207.89516,3.49657793 207.819971,3.24500522 L202.626832,3.24500522 L204.256684,12.5537606 Z M210.177405,12.5537606 C210.522258,12.6069018 210.872763,12.6317764 211.225531,12.6317764 C211.529114,12.6317764 211.844004,12.6063365 212.171896,12.5537606 L212.766625,5.23836557 L215.965273,12.5537606 C216.276206,12.6069018 216.604098,12.6317764 216.950082,12.6317764 C217.285323,12.6317764 217.618304,12.6063365 217.946196,12.5537606 L213.530954,3.24500522 C213.143702,3.19412535 212.762103,3.16755475 212.39068,3.16755475 C212.219384,3.16755475 212.051481,3.17320807 211.887534,3.18564537 C211.723588,3.19977867 211.542682,3.21956528 211.34312,3.24500522 L210.177405,12.5537606 Z M222.195797,6.67656998 L221.859989,10.4077606 L220.203567,6.67656998 L222.195797,6.67656998 Z M221.121666,12.5537606 C221.293527,12.5792006 221.477825,12.5989872 221.671734,12.6136858 C221.865643,12.6249924 222.04768,12.6306458 222.222367,12.6306458 C222.574004,12.6317764 222.929032,12.6063365 223.28406,12.5543259 L224.421508,3.24557055 C224.093616,3.19469068 223.780987,3.16812008 223.478535,3.16812008 C223.176082,3.16812008 222.851016,3.19412535 222.506164,3.24557055 L222.336564,5.12416852 L219.50199,5.12416852 L218.672648,3.24557055 C218.361715,3.19469068 218.03778,3.16812008 217.700277,3.16812008 C217.372385,3.16812008 217.063148,3.19412535 216.769175,3.24557055 L221.121666,12.5537606 Z M227.296221,12.5537606 C227.443207,12.5893765 227.58341,12.6102938 227.714567,12.6199045 C227.850246,12.6283844 227.978011,12.6329071 228.098992,12.6329071 C228.357914,12.6329071 228.615706,12.6069018 228.875193,12.5548913 L231.168179,6.63756207 L232.19143,12.5554566 C232.501232,12.6074671 232.807642,12.6334724 233.110095,12.6334724 C233.248036,12.6334724 233.381454,12.6289498 233.51148,12.6204698 C233.641507,12.6108591 233.771533,12.5899419 233.900429,12.5543259 L232.255313,3.24557055 C231.953425,3.19469068 231.689981,3.16812008 231.466675,3.16812008 C231.223582,3.16812008 230.969183,3.19412535 230.701215,3.24557055 L228.396357,9.14989713 L227.373106,3.24557055 C227.22612,3.22013062 227.078003,3.200344 226.92819,3.1862107 C226.778377,3.17490406 226.626868,3.16698942 226.481578,3.16698942 C226.203434,3.16698942 225.933206,3.19299468 225.662977,3.24613588 L227.296221,12.5537606 Z M239.959091,8.06445984 C240.132082,8.09724909 240.294898,8.12099303 240.45093,8.13399566 C240.60583,8.1469983 240.757339,8.15265162 240.903195,8.15265162 C241.053573,8.15265162 241.204517,8.1469983 241.363375,8.134561 C241.523364,8.12155836 241.681657,8.09781442 241.835993,8.06502517 L241.021915,3.4536127 C240.640881,3.32189036 240.214621,3.23030659 239.740307,3.17490406 C239.262602,3.11837087 238.820512,3.0923656 238.404993,3.0923656 C237.775214,3.0923656 237.221754,3.18112271 236.748571,3.36202893 C236.272561,3.54293514 235.875698,3.79450785 235.557416,4.11278972 C235.238004,4.43333292 234.997738,4.81040931 234.837749,5.24571489 C234.679456,5.6798898 234.598614,6.15363795 234.598614,6.66243668 C234.598614,7.50025858 234.722987,8.28663528 234.972863,9.01987078 C235.226132,9.75480228 235.576638,10.3953233 236.028903,10.9419993 C236.483995,11.4903713 237.027279,11.9222849 237.668366,12.2383054 C238.30606,12.5514993 239.012725,12.7103576 239.790057,12.7103576 C240.197096,12.7103576 240.558908,12.682091 240.87832,12.6312111 C241.198864,12.5786352 241.522799,12.4802675 241.850691,12.3332812 C241.799811,12.0675752 241.731972,11.8165678 241.647172,11.5825204 C241.568025,11.3496036 241.453828,11.0963349 241.304581,10.8193223 C241.038875,10.9306927 240.794651,11.0047512 240.567953,11.0386711 C240.342951,11.072591 240.123602,11.0912469 239.907646,11.0912469 C239.329311,11.0912469 238.835776,10.9657433 238.426476,10.7164319 C238.016045,10.4659898 237.678542,10.1397933 237.415662,9.74010365 C237.152783,9.33702199 236.956613,8.8819298 236.83224,8.37086974 C236.706171,7.86376701 236.643984,7.34874963 236.643984,6.83316692 C236.643984,6.08127546 236.828283,5.54421014 237.194618,5.22592827 C237.560953,4.90708107 238.048269,4.74878813 238.651478,4.74878813 C238.774155,4.74878813 238.905877,4.75444145 239.053994,4.76744408 C239.19985,4.77988138 239.31122,4.79571068 239.390932,4.8138013 L239.959091,8.06445984 Z M244.442173,12.5537606 L249.543163,12.5537606 C249.543163,12.5198407 249.54712,12.4859208 249.549947,12.4520009 C249.5556,12.418081 249.5556,12.3830304 249.5556,12.3474145 C249.5556,12.125239 249.530726,11.8962796 249.479846,11.6616668 C249.428966,11.4298808 249.353777,11.19018 249.259366,10.9493486 L246.049412,10.9493486 L245.698906,8.92998301 L248.248553,8.92998301 C248.248553,8.41383497 248.154142,7.87281232 247.96306,7.31030706 L245.415109,7.31030706 L244.971889,4.85111321 L248.273427,4.85111321 C248.273427,4.81606263 248.277385,4.7855347 248.281907,4.75500678 C248.284169,4.72391352 248.28643,4.69055894 248.28643,4.65720436 C248.28643,4.42428761 248.258163,4.19363218 248.204457,3.96297676 C248.147924,3.73684399 248.081214,3.49657793 248.002068,3.24500522 L242.810625,3.24500522 L244.442173,12.5537606 Z M251.295692,12.5537606 C251.622454,12.6142511 251.941301,12.6453444 252.252799,12.6453444 C252.555817,12.6453444 252.857704,12.6142511 253.159591,12.5537606 L251.814101,4.87655314 L254.869155,4.87655314 C254.869155,4.73182817 254.859544,4.58992986 254.842584,4.45651153 C254.825624,4.32083186 254.81036,4.19476285 254.792835,4.07491248 C254.765699,3.93584083 254.737432,3.8007265 254.702382,3.66391617 C254.665635,3.53275917 254.628889,3.39255685 254.585358,3.24557055 L249.664144,3.24557055 L251.295692,12.5537606 Z M257.617799,12.5418886 C257.94456,12.6023792 258.264538,12.6323418 258.57434,12.6323418 C258.723023,12.6323418 258.876793,12.6249924 259.035651,12.6136858 C259.196205,12.5989872 259.35789,12.5763739 259.520141,12.5418886 L257.889158,3.24500522 C257.535825,3.19412535 257.213021,3.16755475 256.919614,3.16755475 C256.606985,3.16755475 256.296618,3.19356002 255.986816,3.24500522 L257.617799,12.5418886 Z M265.874471,5.00657948 C265.970578,4.78327338 266.047463,4.53170067 266.1023,4.25468803 C266.160529,3.97767539 266.196711,3.7051854 266.213105,3.4394794 C266.025415,3.3614636 265.820765,3.29814642 265.604243,3.25122387 C265.389417,3.20430132 265.179113,3.16981608 264.976724,3.14946413 C264.773205,3.12685085 264.582688,3.11271755 264.405739,3.10423757 C264.230486,3.09462693 264.089153,3.09180027 263.985697,3.09180027 C263.356483,3.09180027 262.80585,3.17660006 262.334928,3.3473303 C261.864007,3.52258319 261.471666,3.76567592 261.156776,4.08226179 C260.840191,4.39602101 260.605578,4.77196674 260.450112,5.20727232 C260.294645,5.64257789 260.218325,6.12876334 260.218325,6.66356734 C260.218325,7.50025858 260.344394,8.28720062 260.592575,9.01930545 C260.843583,9.75310628 261.194654,10.3958887 261.646919,10.9425646 C262.100881,11.4909366 262.647557,11.9228502 263.285251,12.2371747 C263.925772,12.5537606 264.632437,12.7120536 265.410899,12.7120536 C265.815677,12.7120536 266.176359,12.6871789 266.490683,12.6396911 C266.806138,12.5905072 267.130639,12.4910088 267.468707,12.3344118 C267.417827,12.0687058 267.351684,11.8176985 267.268014,11.583651 C267.185476,11.350169 267.07241,11.0963349 266.923162,10.8193223 C266.629189,10.931258 266.37479,11.0058818 266.155441,11.0381057 C265.933831,11.0737216 265.723528,11.0923776 265.525662,11.0923776 C264.946762,11.0923776 264.452662,10.9663086 264.037708,10.7175625 C263.62332,10.4665552 263.28412,10.140924 263.022372,9.74066898 C262.758927,9.33532599 262.564453,8.88136446 262.438384,8.37086974 C262.314011,7.86207101 262.250128,7.34931496 262.250128,6.83147092 C262.250128,6.12311003 262.433296,5.59622068 262.801892,5.25193354 C263.167662,4.90708107 263.692855,4.7340895 264.375211,4.7340895 C264.502976,4.7340895 264.623957,4.73804682 264.735327,4.74878813 C264.848394,4.75726811 264.959764,4.76914008 265.072831,4.78496937 C265.185897,4.80419066 265.306878,4.83019592 265.436904,4.86976916 C265.5658,4.9076464 265.712786,4.95456895 265.874471,5.00544882 L265.874471,5.00657948 Z M272.042243,6.67656998 L271.706435,10.4077606 L270.048317,6.67656998 L272.042243,6.67656998 Z M270.968112,12.5537606 C271.140538,12.5792006 271.324271,12.5989872 271.519311,12.6136858 C271.712654,12.6249924 271.894691,12.6306458 272.068813,12.6306458 C272.422146,12.6317764 272.775478,12.6063365 273.131637,12.5543259 L274.269085,3.24557055 C273.941192,3.19469068 273.627433,3.16812008 273.326111,3.16812008 C273.021963,3.16812008 272.698593,3.19412535 272.35374,3.24557055 L272.184141,5.12416852 L269.350132,5.12416852 L268.520225,3.24557055 C268.209292,3.19469068 267.884226,3.16812008 267.547854,3.16812008 C267.219961,3.16812008 266.909029,3.19412535 266.615056,3.24557055 L270.968112,12.5537606 Z M277.141536,12.5537606 C277.469429,12.6142511 277.789972,12.6453444 278.098643,12.6453444 C278.402227,12.6453444 278.70581,12.6142511 279.008828,12.5537606 L277.661642,4.87655314 L280.717826,4.87655314 C280.717826,4.73182817 280.708781,4.58992986 280.691256,4.45651153 C280.674296,4.32083186 280.657336,4.19476285 280.640376,4.07491248 C280.61437,3.93584083 280.582147,3.8007265 280.546531,3.66391617 C280.513741,3.53275917 280.474733,3.39255685 280.431768,3.24557055 L275.510554,3.24557055 L277.141536,12.5537606 Z M290.507114,5.00657948 C290.604351,4.78327338 290.680105,4.53170067 290.735508,4.25468803 C290.79091,3.97767539 290.825961,3.7051854 290.844617,3.4394794 C290.655796,3.3614636 290.450581,3.29814642 290.236885,3.25122387 C290.020363,3.20430132 289.81119,3.16981608 289.609367,3.14946413 C289.405847,3.12685085 289.215896,3.11271755 289.038381,3.10423757 C288.861998,3.09462693 288.721796,3.09180027 288.618905,3.09180027 C287.989125,3.09180027 287.437361,3.17660006 286.967005,3.3473303 C286.496649,3.52258319 286.103743,3.76567592 285.788854,4.08226179 C285.473398,4.39602101 285.238786,4.77196674 285.082189,5.20727232 C284.927288,5.64257789 284.848707,6.12876334 284.848707,6.66356734 C284.848707,7.50025858 284.975341,8.28720062 285.227479,9.01930545 C285.477921,9.75310628 285.826731,10.3958887 286.281258,10.9425646 C286.734654,11.4909366 287.281895,11.9228502 287.91959,12.2371747 C288.556719,12.5537606 289.26508,12.7120536 290.043542,12.7120536 C290.447189,12.7120536 290.808436,12.6871789 291.123326,12.6396911 C291.438215,12.5905072 291.764412,12.4910088 292.100219,12.3344118 C292.049339,12.0687058 291.98263,11.8176985 291.900092,11.583651 C291.818118,11.350169 291.704487,11.0963349 291.556935,10.8193223 C291.264659,10.931258 291.008563,11.0058818 290.788084,11.0381057 C290.565908,11.0737216 290.358431,11.0923776 290.158304,11.0923776 C289.581665,11.0923776 289.084173,10.9663086 288.669785,10.7175625 C288.255397,10.4665552 287.915632,10.140924 287.654449,9.74066898 C287.389874,9.33532599 287.195399,8.88136446 287.071026,8.37086974 C286.946653,7.86207101 286.882205,7.34931496 286.882205,6.83147092 C286.882205,6.12311003 287.065938,5.59622068 287.432839,5.25193354 C287.800304,4.90708107 288.326063,4.7340895 289.008419,4.7340895 C289.133922,4.7340895 289.257165,4.73804682 289.369101,4.74878813 C289.480471,4.75726811 289.592972,4.76914008 289.704908,4.78496937 C289.816278,4.80419066 289.93952,4.83019592 290.06672,4.86976916 C290.196747,4.9076464 290.344863,4.95456895 290.507679,5.00544882 L290.507114,5.00657948 Z M293.582519,12.5418886 C293.908716,12.6023792 294.226998,12.6323418 294.53793,12.6323418 C294.686047,12.6323418 294.838687,12.6249924 294.999806,12.6136858 C295.158099,12.5989872 295.320915,12.5763739 295.483165,12.5418886 L294.849994,8.90284708 L297.659693,8.90284708 L298.295692,12.5418886 C298.466987,12.5758086 298.634891,12.5984218 298.793184,12.6136858 C298.952607,12.6249924 299.106378,12.6323418 299.253364,12.6323418 C299.39922,12.6323418 299.555251,12.6249924 299.718632,12.6136858 C299.882578,12.5989872 300.043133,12.5763739 300.196338,12.5418886 L298.567051,3.24500522 C298.231244,3.19412535 297.905613,3.16755475 297.597507,3.16755475 C297.286574,3.16755475 296.975642,3.19356002 296.663013,3.24500522 L297.364025,7.27129916 L294.552629,7.27129916 L293.853313,3.24500522 C293.500546,3.19412535 293.176046,3.16755475 292.880942,3.16755475 C292.572837,3.16755475 292.262469,3.19356002 291.950971,3.24500522 L293.582519,12.5418886 Z M302.140514,12.5537606 C302.314071,12.5893765 302.479713,12.6102938 302.638006,12.6199045 C302.796299,12.6283844 302.955723,12.6329071 303.110058,12.6329071 C303.258175,12.6329071 303.406292,12.6283844 303.558366,12.6199045 C303.708745,12.6102938 303.865342,12.5893765 304.031549,12.5537606 L303.188074,7.72582602 C303.127584,7.37079757 303.080661,7.05590769 303.046741,6.78172171 C303.012821,6.50357841 302.995861,6.25257104 302.995861,6.02756893 C302.995861,5.57982605 303.076138,5.24967221 303.241215,5.03823807 C303.403465,4.82680393 303.694611,4.7216522 304.107869,4.7216522 C304.428412,4.7216522 304.694684,4.77988138 304.912336,4.89690509 C305.127163,5.01166747 305.31033,5.19426968 305.460708,5.43962373 C305.613348,5.68554312 305.737721,5.99591034 305.837219,6.37129074 C305.937848,6.74723647 306.032259,7.19893667 306.128931,7.72639135 L306.970145,12.5543259 C307.159531,12.5893765 307.330261,12.6108591 307.480074,12.6199045 C307.632714,12.6283844 307.781396,12.6329071 307.929513,12.6329071 C308.083283,12.6329071 308.240445,12.6283844 308.394781,12.6199045 C308.551378,12.6102938 308.709106,12.5893765 308.874182,12.5537606 L307.954953,7.32330969 C307.832841,6.63247409 307.683593,6.02304628 307.499861,5.49898359 C307.318954,4.97096357 307.073035,4.532266 306.762668,4.17836822 C306.452866,3.8256011 306.062787,3.55424178 305.5913,3.36711692 C305.120944,3.18338404 304.544305,3.0923656 303.861384,3.0923656 C302.924064,3.0923656 302.223618,3.3049304 301.766264,3.73684399 C301.308345,4.16875758 301.078821,4.87203049 301.078821,5.84722805 C301.078821,6.27801097 301.126309,6.7726764 301.221284,7.32274436 L302.140514,12.5537606 Z M310.85341,12.5418886 C311.218049,12.6097285 311.551594,12.656651 311.856308,12.6764376 C312.161588,12.6990509 312.476477,12.7103576 312.79589,12.7103576 C313.23798,12.7103576 313.664805,12.671915 314.078063,12.5989872 C314.490755,12.525494 314.863874,12.3982943 315.191767,12.2117348 C315.519659,12.0263059 315.783104,11.7724719 315.982101,11.4485367 C316.181098,11.1251669 316.280031,10.7169972 316.280031,10.2251584 C316.280031,9.8277301 316.221801,9.46987499 316.102516,9.15102779 C315.988319,8.83048459 315.840768,8.54386131 315.665515,8.28889661 C315.485739,8.03336658 315.295788,7.81967112 315.086615,7.64159156 C314.879703,7.46633867 314.679576,7.31935237 314.49019,7.20911264 L314.336419,7.11865954 L315.721483,3.24613588 C315.35854,3.19525601 315.008034,3.16868541 314.673357,3.16868541 C314.335854,3.16868541 314.019834,3.19469068 313.726426,3.24613588 L312.290483,7.56979441 L312.508701,7.69982075 C312.638728,7.77896722 312.806066,7.87111632 313.014673,7.97796406 C313.223846,8.08763845 313.424539,8.23010209 313.624101,8.40761631 C313.820271,8.58399987 313.993263,8.79769534 314.1329,9.04870271 C314.278756,9.29857942 314.349422,9.59990133 314.349422,9.95323378 C314.349422,10.1793666 314.309849,10.3659261 314.232398,10.5168697 C314.153252,10.6683787 314.0481,10.7938823 313.914682,10.8865968 C313.779002,10.9810072 313.628059,11.050543 313.455067,11.0872896 C313.282641,11.1268628 313.105692,11.1449535 312.924786,11.1449535 C312.742749,11.1449535 312.596893,11.1325162 312.482131,11.1070762 L311.097068,3.24670122 C310.927468,3.22974126 310.763522,3.2144773 310.613709,3.20147466 C310.461069,3.18734136 310.311822,3.18281871 310.16427,3.18281871 C310.02746,3.18281871 309.875951,3.18677603 309.712004,3.19582134 C309.549189,3.20486665 309.384112,3.22182661 309.220166,3.24670122 L310.85341,12.5418886 Z M322.831097,5.00657948 C322.924377,4.78327338 323.000696,4.53170067 323.054968,4.25468803 C323.111502,3.97767539 323.148248,3.7051854 323.165773,3.4394794 C322.975822,3.3614636 322.771172,3.29814642 322.558042,3.25122387 C322.339823,3.20430132 322.131216,3.16981608 321.929393,3.14946413 C321.725873,3.12685085 321.537617,3.11271755 321.358407,3.10423757 C321.183154,3.09462693 321.041821,3.09180027 320.938931,3.09180027 C320.309717,3.09180027 319.757387,3.17660006 319.288162,3.3473303 C318.81611,3.52258319 318.424335,3.76567592 318.11001,4.08226179 C317.793424,4.39602101 317.560507,4.77196674 317.403345,5.20727232 C317.249575,5.64257789 317.170428,6.12876334 317.170428,6.66356734 C317.170428,7.50025858 317.294801,8.28720062 317.546939,9.01930545 C317.795686,9.75310628 318.147887,10.3958887 318.601849,10.9425646 C319.054114,11.4909366 319.601356,11.9228502 320.239615,12.2371747 C320.87844,12.5537606 321.585105,12.7120536 322.362437,12.7120536 C322.76778,12.7120536 323.128462,12.6871789 323.443917,12.6396911 C323.759372,12.5905072 324.086134,12.4910088 324.421941,12.3344118 C324.371061,12.0687058 324.304917,11.8176985 324.221813,11.583651 C324.13871,11.350169 324.023947,11.0963349 323.879222,10.8193223 C323.58525,10.931258 323.32972,11.0058818 323.106414,11.0381057 C322.888761,11.0737216 322.678457,11.0923776 322.480026,11.0923776 C321.903387,11.0923776 321.404199,10.9663086 320.990376,10.7175625 C320.577684,10.4665552 320.238485,10.140924 319.975605,9.74066898 C319.71103,9.33532599 319.517687,8.88136446 319.393314,8.37086974 C319.26781,7.86207101 319.205623,7.34931496 319.205623,6.83147092 C319.205623,6.12311003 319.38653,5.59622068 319.753995,5.25193354 C320.121461,4.90708107 320.645524,4.7340895 321.327879,4.7340895 C321.45621,4.7340895 321.578321,4.73804682 321.689692,4.74878813 C321.802758,4.75726811 321.914694,4.76914008 322.027195,4.78496937 C322.138,4.80419066 322.258981,4.83019592 322.390138,4.86976916 C322.520164,4.9076464 322.665455,4.95456895 322.831097,5.00544882 L322.831097,5.00657948 Z M325.902545,12.5418886 C326.232134,12.6023792 326.54985,12.6323418 326.859652,12.6323418 C327.007769,12.6323418 327.159278,12.6249924 327.319832,12.6136858 C327.480387,12.5989872 327.642072,12.5763739 327.804887,12.5418886 L327.170585,8.90284708 L329.980284,8.90284708 L330.615717,12.5418886 C330.786448,12.5758086 330.954917,12.5984218 331.111514,12.6136858 C331.273198,12.6249924 331.425838,12.6323418 331.573955,12.6323418 C331.719245,12.6323418 331.875842,12.6249924 332.037527,12.6136858 C332.203735,12.5989872 332.362593,12.5763739 332.518059,12.5418886 L330.888773,3.24500522 C330.55127,3.19412535 330.227334,3.16755475 329.918098,3.16755475 C329.607165,3.16755475 329.296233,3.19356002 328.983604,3.24500522 L329.684616,7.27129916 L326.874916,7.27129916 L326.175035,3.24500522 C325.820007,3.19412535 325.496637,3.16755475 325.202664,3.16755475 C324.893993,3.16755475 324.582495,3.19356002 324.272128,3.24500522 L325.902545,12.5418886 Z M334.525553,12.5537606 L339.627674,12.5537606 C339.627674,12.5198407 339.62937,12.4859208 339.634458,12.4520009 C339.63785,12.418081 339.640111,12.3830304 339.640111,12.3474145 C339.640111,12.125239 339.612975,11.8962796 339.562095,11.6616668 C339.511215,11.4298808 339.436026,11.19018 339.342746,10.9493486 L336.131661,10.9493486 L335.781155,8.92998301 L338.332498,8.92998301 C338.332498,8.41383497 338.238088,7.87281232 338.047006,7.31030706 L335.497359,7.31030706 L335.0564,4.85111321 L338.357938,4.85111321 C338.357938,4.81606263 338.360199,4.7855347 338.363591,4.75500678 C338.369245,4.72391352 338.372071,4.69055894 338.372071,4.65720436 C338.372071,4.42428761 338.343805,4.19363218 338.287272,3.96297676 C338.232434,3.73684399 338.166291,3.49657793 338.087144,3.24500522 L332.895136,3.24500522 L334.525553,12.5537606 Z M339.733956,5.14904313 C340.061849,5.02693143 340.396525,4.92404102 340.73742,4.83641458 C341.078315,4.75274545 341.410165,4.70921489 341.729012,4.70921489 C341.99698,4.70921489 342.244595,4.73748149 342.47525,4.799668 C342.701383,4.86015852 342.902076,4.94891563 343.068849,5.07102732 C343.238449,5.19144302 343.370171,5.33842932 343.464581,5.51198622 C343.560688,5.68271646 343.608176,5.88736661 343.608176,6.1191527 C343.608176,6.29157894 343.568602,6.44478389 343.489456,6.57311423 C343.410309,6.70314058 343.311942,6.82016428 343.192657,6.92362002 C343.07111,7.02537977 342.928081,7.1214862 342.763004,7.21420063 C342.600189,7.30465374 342.436243,7.40302149 342.272862,7.5059119 C341.718836,7.83380442 341.2824,8.17300357 340.959596,8.52237869 C340.63566,8.87175382 340.47341,9.28388079 340.47341,9.75819427 C340.47341,10.2257238 340.555949,10.6401121 340.718199,11.0058818 C340.884406,11.3756089 341.115062,11.6825841 341.41808,11.9330262 C341.719402,12.1829029 342.083475,12.3762464 342.514824,12.5107954 C342.940519,12.6408217 343.420485,12.7109229 343.957551,12.7109229 C344.430734,12.7109229 344.84173,12.675307 345.186582,12.6057712 C345.532565,12.5379313 345.894943,12.4305183 346.274281,12.2824013 C346.240361,12.0494845 346.180436,11.8035652 346.093375,11.5446431 C346.005748,11.2862865 345.886463,11.0313218 345.729301,10.7825757 C345.480555,10.9024261 345.223329,11.0013592 344.959319,11.0799403 C344.69644,11.1568254 344.354414,11.195268 343.930415,11.195268 C343.774949,11.195268 343.609306,11.1839614 343.430661,11.1568254 C343.255409,11.1313855 343.094289,11.081071 342.952956,11.0058818 C342.811623,10.9340847 342.691207,10.8340209 342.596797,10.7045599 C342.50069,10.5745336 342.453768,10.4077606 342.453768,10.1997185 C342.453768,9.90461524 342.561181,9.66265318 342.770354,9.47439765 C342.982353,9.28444612 343.253147,9.09562526 343.58217,8.90454307 C343.874447,8.74172748 344.147502,8.57665056 344.395118,8.4127043 C344.646125,8.24762738 344.8683,8.07124382 345.056556,7.8812923 C345.247073,7.68907944 345.395755,7.47651464 345.504299,7.24077123 C345.611712,7.00163583 345.665419,6.72858051 345.665419,6.41934395 C345.665419,5.97668906 345.586272,5.55551678 345.424587,5.14960846 C345.266294,4.74426547 345.02094,4.38754103 344.688525,4.08678445 C344.354979,3.78546254 343.936633,3.54293514 343.425008,3.36202893 C342.91734,3.18112271 342.313,3.09180027 341.61425,3.09180027 C340.802999,3.09180027 340.003054,3.24217856 339.218939,3.54293514 C339.251728,3.80298783 339.315045,4.0647365 339.405498,4.32535452 C339.497082,4.59106052 339.605626,4.86411584 339.735087,5.14960846 L339.733956,5.14904313 Z" id="Shape"></path>
            </g>
        </g>
    </g>
</svg>
