<?xml version="1.0" encoding="UTF-8"?>
<svg width="33px" height="34px" viewBox="0 0 33 34" version="1.1" xmlns="http://www.w3.org/2000/svg" xmlns:xlink="http://www.w3.org/1999/xlink">
    <!-- Generator: Sketch 43.2 (39069) - http://www.bohemiancoding.com/sketch -->
    <title>listen</title>
    <desc>Created with Sketch.</desc>
    <defs></defs>
    <g id="Designs" stroke="none" stroke-width="1" fill="none" fill-rule="evenodd">
        <g id="Recording" transform="translate(-979.000000, -651.000000)" fill="currentColor">
            <g id="Sermon-Intro" transform="translate(208.000000, 574.000000)">
                <g id="Actions" transform="translate(710.000000, 42.000000)">
                    <g id="Listen-now" transform="translate(61.000000, 35.000000)">
                        <path d="M29.4090027,27.960675 C26.3818146,31.3640649 21.982932,33.4911835 17.0637513,33.4911835 C7.93488727,33.4911835 0.508816505,26.0699029 0.508816505,16.9469274 C0.508816505,7.82395186 7.93488727,0.402671254 17.0637513,0.402671254 C21.982932,0.402671254 26.3818146,2.5297899 29.4090027,5.93317973 C29.6455018,6.16952624 29.834701,6.54768067 29.834701,6.9258351 C29.834701,7.72941325 29.2198035,8.34391419 28.4157066,8.34391419 C27.9900083,8.34391419 27.56431,8.15483698 27.3278109,7.82395186 C24.8209208,5.03506297 21.1315353,3.23882945 17.0637513,3.23882945 C9.49578112,3.23882945 3.34680533,9.38383886 3.34680533,16.9469274 C3.34680533,24.5100159 9.49578112,30.6550253 17.0637513,30.6550253 C21.1315353,30.6550253 24.8209208,28.9060611 27.3278109,26.0699029 C27.56431,25.7390178 27.9900083,25.5499406 28.4157066,25.5499406 C29.2198035,25.5499406 29.834701,26.1644415 29.834701,26.9680197 C29.834701,27.3461741 29.6928016,27.7243285 29.4090027,27.960675 Z M33,16.5 L21,24 L21,9 L33,16.5 Z" id="listen"></path>
                    </g>
                </g>
            </g>
        </g>
    </g>
</svg>
