<?xml version="1.0" encoding="UTF-8"?>
<svg width="30px" height="32px" viewBox="0 0 30 32" version="1.1" xmlns="http://www.w3.org/2000/svg" xmlns:xlink="http://www.w3.org/1999/xlink">
    <!-- Generator: Sketch 43.2 (39069) - http://www.bohemiancoding.com/sketch -->
    <title>map</title>
    <desc>Created with Sketch.</desc>
    <defs></defs>
    <g id="Designs" stroke="none" stroke-width="1" fill="none" fill-rule="evenodd">
        <g id="Home" transform="translate(-229.000000, -674.000000)">
            <g id="Gathering-information" transform="translate(208.000000, 576.000000)">
                <g id="View-on-a-map" transform="translate(21.000000, 98.000000)">
                    <g id="map">
                        <path d="M24.5017751,5.94556213 L2.34792899,25.183432 C0.871005917,22.8733728 0,20.1088757 0,17.1928994 C0,14.9585799 0.492307692,12.8 1.40118343,10.9065089 C1.70414201,11.3988166 2.04497041,11.8911243 2.42366864,12.4591716 C3.86272189,14.5420118 5.26390533,16.208284 5.33964497,16.2840237 L6.28639053,17.4201183 L7.23313609,16.2840237 C7.30887574,16.208284 8.71005917,14.5420118 10.1491124,12.4591716 C12.1940828,9.46745562 13.216568,7.27100592 13.216568,5.68047337 C13.216568,4.5443787 12.9514793,3.48402367 12.4591716,2.53727811 C13.2544379,2.42366864 14.0497041,2.34792899 14.8449704,2.34792899 C18.5183432,2.34792899 21.9266272,3.7112426 24.5017751,5.94556213 L24.5017751,5.94556213 Z M24.8426036,28.0994083 C27.7964497,25.3727811 29.652071,21.5100592 29.652071,17.1928994 C29.652071,13.8224852 28.5538462,10.7550296 26.660355,8.2556213 L15.0721893,18.3289941 L24.8426036,28.0994083 L24.8426036,28.0994083 Z M4.31715976,27.6449704 C7.00591716,30.3337278 10.7171598,32 14.8449704,32 C17.5715976,32 20.1088757,31.2804734 22.3053254,29.9928994 L12.6863905,20.4118343 L4.31715976,27.6449704 L4.31715976,27.6449704 Z" id="Shape" fill="currentColor"></path>
                        <path d="M0.60591716,5.68047337 C0.60591716,4.80946746 0.795266272,3.97633136 1.1739645,3.21893491 C1.36331361,2.80236686 1.62840237,2.42366864 1.89349112,2.08284024 C2.12071006,1.81775148 2.38579882,1.55266272 2.65088757,1.32544379 C2.80236686,1.21183432 2.95384615,1.09822485 3.06745562,0.984615385 C3.21893491,0.871005917 3.3704142,0.795266272 3.52189349,0.719526627 C3.90059172,0.530177515 4.24142012,0.378698225 4.58224852,0.265088757 C5.11242604,0.113609467 5.68047337,0 6.24852071,0 C7.80118343,0 9.24023669,0.643786982 10.2627219,1.66627219 C10.3384615,1.74201183 10.3763314,1.77988166 10.452071,1.8556213 C10.8307692,2.27218935 11.1337278,2.72662722 11.3609467,3.21893491 C11.7017751,3.97633136 11.9289941,4.80946746 11.9289941,5.68047337 C11.9289941,8.82366864 6.28639053,15.4508876 6.28639053,15.4508876 C6.28639053,15.4508876 0.60591716,8.78579882 0.60591716,5.68047337 Z M4.05207101,5.15029586 C4.05207101,5.56686391 4.16568047,5.94556213 4.35502959,6.28639053 C4.43076923,6.43786982 4.5443787,6.58934911 4.69585799,6.70295858 C4.73372781,6.7408284 4.73372781,6.7408284 4.77159763,6.77869822 C5.15029586,7.11952663 5.68047337,7.34674556 6.24852071,7.34674556 C6.51360947,7.34674556 6.77869822,7.30887574 7.00591716,7.19526627 C7.04378698,7.19526627 7.0816568,7.15739645 7.11952663,7.15739645 C7.27100592,7.0816568 7.42248521,7.00591716 7.5739645,6.89230769 C8.10414201,6.47573964 8.44497041,5.83195266 8.44497041,5.11242604 C8.44497041,4.99881657 8.44497041,4.8852071 8.40710059,4.77159763 C8.40710059,4.69585799 8.36923077,4.62011834 8.36923077,4.5443787 C8.2556213,4.16568047 8.06627219,3.82485207 7.80118343,3.52189349 C7.38461538,3.10532544 6.85443787,2.87810651 6.24852071,2.87810651 C5.45325444,2.87810651 4.73372781,3.29467456 4.35502959,3.93846154 C4.24142012,4.12781065 4.16568047,4.31715976 4.08994083,4.5443787 C4.08994083,4.62011834 4.05207101,4.69585799 4.05207101,4.77159763 C4.05207101,4.92307692 4.05207101,5.03668639 4.05207101,5.15029586 Z" id="Combined-Shape" fill="#C16443"></path>
                    </g>
                </g>
            </g>
        </g>
    </g>
</svg>
