<?xml version="1.0" encoding="UTF-8"?>
<svg width="245px" height="245px" viewBox="0 0 245 245" version="1.1" xmlns="http://www.w3.org/2000/svg" xmlns:xlink="http://www.w3.org/1999/xlink">
    <title>one21</title>
    <g id="one21" stroke="none" stroke-width="1" fill="none" fill-rule="evenodd">
        <path d="M124,26 C170.719757,26 209.725005,59.0297441 218.938351,103.011842 L219.234385,100.648484 L219.540659,98.2690051 L219.842991,95.9850653 L220.154288,93.7002918 C221.15405,86.4710374 222.285691,79.3315814 223.520967,73.2541346 L223.603288,72.8680782 C224.861446,67.2224919 230.04773,54.2270009 241.745408,52.9307911 L232.580285,135.260481 L229.611846,140.199849 C232.001593,141.12876 233.628317,143.560891 233.438974,146.268624 L229.528821,202.186408 C229.29661,205.50718 226.415918,208.037127 223.126998,207.807143 L217.150871,207.389251 C213.861951,207.159268 211.434899,204.258167 211.755879,200.945338 L216.445854,152.458801 C203.975242,191.627327 167.301017,220 124,220 C83.9479715,220 49.5655927,195.725344 34.7626209,161.085789 L36.6866124,174.408049 C37.0641926,176.083745 37.3463766,177.867409 37.5116245,179.725811 L37.5753473,180.528528 L37.601769,180.933756 C38.2538819,191.717388 34.7196607,200.676033 29.6238132,201.032369 C24.4678358,201.39291 19.6645098,192.798134 18.8978638,181.834585 L18.8338048,180.822423 C17.8393828,163.484261 19.3558081,107.23853 18.8232317,99.6223323 L18.773594,98.9374138 C18.6121925,96.8514957 18.2974048,94.5526909 16.722556,93.8655037 L16.5423312,93.7958745 L11.416683,94.1542947 C10.0185856,94.2520592 8.78612221,93.2340161 8.60324277,91.8664591 L8.58639182,91.7007236 L5.28404077,44.4749034 C5.18264243,43.0248396 6.03974076,41.7705753 7.18511705,41.6904828 C8.28276934,41.6137274 9.26668349,42.6418016 9.43601501,44.003861 L9.45342457,44.1833516 L11.5635053,74.3589125 C11.6650281,75.8107555 12.5133813,76.9439751 13.4500208,76.8784788 C14.3442303,76.8159496 15.0074446,75.6784759 14.974577,74.309097 L14.9657368,74.1210053 L12.855656,43.9454444 C12.7542577,42.4953806 13.6077879,41.2413659 14.7513801,41.1613981 C15.8490324,41.0846428 16.8296695,42.1129461 16.998728,43.4750246 L17.0161195,43.6545165 L19.1262002,73.8300773 C19.227723,75.2819203 20.0760761,76.4151399 21.0109316,76.3497685 C21.9051411,76.2872392 22.5699877,75.1496514 22.537262,73.7802626 L22.5284317,73.5921701 L20.4183509,43.4166093 C20.3169526,41.9665455 21.1686987,40.7126555 22.3122909,40.6326877 C23.4099432,40.5559324 24.3905803,41.5842357 24.561209,42.9462044 L24.5788143,43.1256814 L26.6888951,73.3012422 C26.7904179,74.7530852 27.6405551,75.88618 28.5736265,75.8209333 C29.4695425,75.7582848 30.1344633,74.6206917 30.1017409,73.2513027 L30.0929106,73.0632102 L27.9828299,42.8876494 C27.8814315,41.4375856 28.7313936,40.1838203 29.8714176,40.1041021 C30.9639407,40.0277054 31.9443641,41.0560237 32.1118457,42.4182125 L32.1290233,42.5977193 L35.0411155,84.2690383 C49.9935319,49.9736163 84.1970969,26 124,26 Z M124.472019,45.5410684 C81.4319437,45.5410684 46.5410684,80.4319437 46.5410684,123.472019 C46.5410684,166.512095 81.4319437,201.402971 124.472019,201.402971 C167.512095,201.402971 202.402971,166.512095 202.402971,123.472019 C202.402971,80.4319437 167.512095,45.5410684 124.472019,45.5410684 Z M220.309206,134.622928 L220.183217,135.645397 C219.94933,137.441888 219.666289,139.222937 219.335487,140.987152 C220.013625,140.406278 220.816311,139.971941 221.686315,139.728937 C221.657687,138.716759 221.425224,136.853472 220.309206,134.622928 Z M31.8174807,92.7266517 L23.5372485,93.3096302 L27.7775238,93.0227487 C25.9955203,93.866158 26.1288682,96.595849 26.28678,98.8798027 L26.3225645,99.3661153 L26.3874574,100.069512 C26.592058,102.125277 27.0785063,105.999967 27.7399414,110.980635 C28.5148367,104.689509 29.894713,98.5850142 31.8174807,92.7266517 Z" id="Plate" fill="currentColor" fill-rule="nonzero"></path>
        <path d="M132.938073,85 C149.009174,85 158,95.1550725 158,107.207246 C158,114.46087 154.853211,119.036232 150.470183,125.285507 C147.382709,129.634581 142.781415,135.486819 138.307546,141.096121 L131.139908,150.05942 L155.415138,150.05942 C156.490128,150.05942 157.462293,150.978332 157.544796,152.034859 L157.550459,152.17971 L157.550459,159.87971 C157.550459,160.947133 156.625033,161.912454 155.561016,161.994378 L155.415138,162 L111.135321,162 C109.952832,162 109.078818,161.081088 109.005053,160.024562 L109,159.87971 L109,157.313043 L110.248087,155.800282 C117.915603,146.448657 130.981365,129.551993 138.107798,120.152174 C141.591743,115.911594 143.83945,111.55942 143.83945,107.765217 C143.83945,102.743478 140.018349,97.6101449 131.926606,97.6101449 C126.53211,97.6101449 121.924312,101.404348 119.33945,104.194203 C118.48318,105.044444 117.321101,105.084932 116.435707,104.315666 L116.305046,104.194203 L110.91055,98.8376812 C110.268349,98.2 110.033894,96.9550035 110.6926,96.0666842 L110.962473,95.7396444 C112.221921,94.2655756 120.628049,85 132.938073,85 Z M176.836511,92.4016892 L183.319586,93.312826 C184.196995,93.4361378 184.80201,94.2913697 184.75153,95.1760888 L184.736981,95.3236946 L176.300375,155.353271 C176.175534,156.241559 175.39387,156.951483 174.521955,156.908656 L174.383617,156.895555 L166.418695,155.776158 C165.450865,155.640138 164.840529,154.779874 164.894584,153.892507 L164.908685,153.752273 L171.203287,108.963851 L162.803453,109.594998 C161.988886,109.661183 161.185551,109.044322 161.125059,108.252606 L161.121981,108.119121 L161.210204,103.459327 C161.22158,102.767465 161.44086,102.262427 161.798461,101.934433 L161.909821,101.841336 L176.836511,92.4016892 Z M66.6627991,116 C71.9891226,116 76.3255983,120.571429 76.3255983,125.952381 C76.3255983,131.428571 71.9891226,136 66.6627991,136 C61.3364757,136 57,131.428571 57,125.952381 C57,120.571429 61.3364757,116 66.6627991,116 Z M113.185642,116 C118.040609,116 122,119.714286 122,124.857143 C122,125.190476 121.952864,125.809524 121.905729,126.142857 C121.858593,126.619048 121.434373,126.952381 121.010152,126.952381 L108.943437,126.952381 C109.084844,128.904762 110.73459,131.095238 113.468455,131.095238 C114.929659,131.095238 116.296592,130.52381 117.145033,129.904762 C117.616389,129.619048 118.040609,129.52381 118.370558,129.904762 L120.303118,132.142857 C120.6095,132.452381 120.712669,132.926142 120.34845,133.297255 L120.255983,133.380952 C118.700508,134.857143 116.296592,136 113.232777,136 C107.576505,136 103.569978,131.47619 103.569978,126 C103.569978,120.619048 107.576505,116 113.185642,116 Z M91.3147208,116 C97.197732,116 99.6209,120.369161 99.7027088,125.220436 L99.7048586,125.47619 L99.7048586,134.619048 C99.7048586,135.058608 99.3433926,135.457594 98.9170482,135.516375 L98.8092821,135.52381 L94.9441624,135.52381 C94.4655547,135.52381 94.1074357,135.158636 94.0551725,134.727919 L94.0485859,134.619048 L94.0485859,125.190476 C94.0485859,122.714286 92.7759246,121.142857 90.5134155,121.142857 C88.1499016,121.142857 86.6629656,122.73688 86.1371348,124.00356 L86.0826686,124.142857 L86.0826686,134.619048 C86.0826686,135.244048 85.8341019,135.492374 85.0650988,135.520973 L84.9042785,135.52381 L81.4162437,135.52381 C80.9811458,135.52381 80.5862107,135.158636 80.5280261,134.727919 L80.5206672,134.619048 L80.5206672,117.380952 C80.5206672,116.897436 80.8821331,116.535644 81.3084775,116.482845 L81.4162437,116.47619 L83.2073967,116.47619 C83.5844815,116.47619 83.8125946,116.664315 83.9579455,116.940231 L84.008702,117.047619 L84.6686004,118.809524 L84.8198809,118.652414 C85.6694956,117.799665 87.9121193,116 91.3147208,116 Z M66.6627991,121.142857 C64.1174764,121.142857 62.137781,123.285714 62.137781,125.952381 C62.137781,128.666667 64.1174764,130.857143 66.6627991,130.857143 C69.1609862,130.857143 71.1878173,128.666667 71.1878173,125.952381 C71.1878173,123.285714 69.1609862,121.142857 66.6627991,121.142857 Z M113.044235,120.380952 C111.158811,120.380952 109.603336,121.809524 109.367658,123.619048 L116.485134,123.619048 C116.343727,121.857143 114.835388,120.380952 113.044235,120.380952 Z" id="One21" fill="#D06348"></path>
    </g>
</svg>
