<?xml version="1.0" encoding="UTF-8"?>
<svg width="100px" height="100px" viewBox="0 0 100 100" version="1.1" xmlns="http://www.w3.org/2000/svg" xmlns:xlink="http://www.w3.org/1999/xlink">
    <!-- Generator: Sketch 46.2 (44496) - http://www.bohemiancoding.com/sketch -->
    <title>Person</title>
    <desc>Created with Sketch.</desc>
    <defs></defs>
    <g id="Designs" stroke="none" stroke-width="1" fill="none" fill-rule="evenodd">
        <g id="Person" stroke="currentColor" stroke-width="6">
            <path d="M54.3287144,87.8407266 C59.0451257,80.6199772 67.1112418,76.1304348 75.9593877,76.1304348 C78.2528737,76.1304348 80.5082182,76.4301881 82.681889,77.0148064 C85.4380031,74.9087237 87.9859085,72.5398752 90.2874789,69.9444298 C86.5087432,59.4425651 77.192779,50.8960354 65.1051393,46.9852795 L60.7515729,45.5767551 L63.7792473,42.1459142 C66.5889208,38.9621033 68.1634759,34.8789843 68.1634759,30.5434783 C68.1634759,20.8544828 60.3089932,13 50.6199977,13 C40.9310022,13 33.0765194,20.8544828 33.0765194,30.5434783 C33.0765194,34.8344984 34.6187142,38.8786737 37.3763474,42.0495728 L40.3800995,45.5034749 L36.014487,46.8794813 C23.6227668,50.7852533 14.0951535,59.5477899 10.3703603,70.3144073 C20.4544876,81.482262 34.7757036,88 50.1634759,88 C51.5593693,88 52.9484317,87.9467138 54.3287144,87.8407266 Z" id="Combined-Shape"></path>
        </g>
    </g>
</svg>
