<?xml version="1.0" encoding="UTF-8"?>
<svg width="34px" height="35px" viewBox="0 0 34 35" version="1.1" xmlns="http://www.w3.org/2000/svg" xmlns:xlink="http://www.w3.org/1999/xlink">
    <!-- Generator: Sketch 43.2 (39069) - http://www.bohemiancoding.com/sketch -->
    <title>subscribe</title>
    <desc>Created with Sketch.</desc>
    <defs></defs>
    <g id="Designs" stroke="none" stroke-width="1" fill="none" fill-rule="evenodd">
        <g id="Recording" transform="translate(-978.000000, -768.000000)" fill="currentColor">
            <g id="Sermon-Intro" transform="translate(208.000000, 574.000000)">
                <g id="Actions" transform="translate(710.000000, 42.000000)">
                    <g id="Podcast" transform="translate(60.000000, 152.000000)">
                        <path d="M20.6956522,17.2608696 C20.6956522,14.8158261 18.705913,12.826087 16.2608696,12.826087 C13.8158261,12.826087 11.826087,14.8158261 11.826087,17.2608696 C11.826087,19.705913 13.8158261,21.6956522 16.2608696,21.6956522 C18.705913,21.6956522 20.6956522,19.705913 20.6956522,17.2608696 L20.6956522,17.2608696 Z M14.7826087,17.2608696 C14.7826087,16.4448696 15.4463478,15.7826087 16.2608696,15.7826087 C17.0753913,15.7826087 17.7391304,16.4448696 17.7391304,17.2608696 C17.7391304,18.0768696 17.0753913,18.7391304 16.2608696,18.7391304 C15.4463478,18.7391304 14.7826087,18.0768696 14.7826087,17.2608696 Z M16.2608696,7.2826087 C21.7644348,7.2826087 26.2391304,11.7587826 26.2391304,17.2608696 C26.2391304,20.3814783 24.82,23.264087 22.3468696,25.1710435 C22.1443478,25.3262609 21.9048696,25.4016522 21.6698261,25.4016522 C21.3372174,25.4016522 21.0090435,25.2523478 20.7902609,24.97 C20.4177391,24.4851304 20.507913,23.7888696 20.9927826,23.4148696 C22.9174783,21.9306957 24.0217391,19.6881739 24.0217391,17.2608696 C24.0217391,12.9813043 20.5404348,9.5 16.2608696,9.5 C11.9813043,9.5 8.5,12.9813043 8.5,17.2608696 C8.5,19.6881739 9.60426087,21.9306957 11.5304348,23.4148696 C12.0153043,23.7888696 12.104,24.4851304 11.7314783,24.97 C11.3574783,25.4548696 10.6626957,25.5465217 10.1763478,25.1710435 C7.70173913,23.264087 6.2826087,20.38 6.2826087,17.2608696 C6.2826087,11.7587826 10.7587826,7.2826087 16.2608696,7.2826087 Z M27.5580038,29.1827949 C27.3216573,29.4665938 26.9435028,29.6084932 26.5653484,29.6084932 C25.7617702,29.6084932 25.1472693,28.9935957 25.1472693,28.1894988 C25.1472693,27.7638005 25.3363465,27.3381022 25.6672316,27.1016031 C28.5033898,24.594713 30.252354,20.9053275 30.252354,16.8375435 C30.252354,9.26957331 24.1073446,3.12059752 16.5442561,3.12059752 C8.98116761,3.12059752 2.83615819,9.26957331 2.83615819,16.8375435 C2.83615819,20.9053275 4.63239171,24.594713 7.4212806,27.1016031 C7.75216573,27.3381022 7.94124294,27.7638005 7.94124294,28.1894988 C7.94124294,28.9935957 7.326742,29.6084932 6.52316384,29.6084932 C6.14500942,29.6084932 5.76685499,29.419294 5.53050847,29.1827949 C2.12711864,26.1556068 0,21.7567242 0,16.8375435 C0,7.70867946 7.4212806,0.282608696 16.5442561,0.282608696 C25.6672316,0.282608696 33.0885122,7.70867946 33.0885122,16.8375435 C33.0885122,21.7567242 30.9613936,26.1556068 27.5580038,29.1827949 Z M17.7391304,24.6521739 L20.6956522,33.5217391 C21.0193913,34.2372174 20.0348696,35 19.2173913,35 L13.3043478,35 C12.4883478,35 11.4801739,34.3066957 11.826087,33.5217391 L14.7826087,24.6521739 C15.0043478,23.8716522 15.4448696,23.173913 16.2608696,23.173913 C17.0768696,23.173913 17.4050435,23.7593043 17.7391304,24.6521739 Z" id="subscribe"></path>
                    </g>
                </g>
            </g>
        </g>
    </g>
</svg>
